<svg width="187" height="40" viewBox="0 0 187 40" fill="none" xmlns="http://www.w3.org/2000/svg">
<path d="M0 0.864867V39.3514H12.7784C18.4755 39.3514 23.0012 37.6757 26.4088 34.2162C29.7099 30.8108 31.3604 26.1081 31.3604 20.1081C31.3604 14.0541 29.7099 9.35135 26.4088 5.94595C23.0544 2.5946 18.5287 0.864867 12.7784 0.864867H0ZM4.47245 35.2432V4.97297H12.7784C17.2509 4.97297 20.6585 6.32433 23.0544 8.97297C25.4504 11.6757 26.675 15.3514 26.675 20.1081C26.675 24.8649 25.4504 28.5946 23.0544 31.2432C20.6585 33.9459 17.2509 35.2432 12.7784 35.2432H4.47245Z" fill="#0C0C0C"/>
<path d="M56.1366 36C58.5858 33.4054 59.8636 29.8378 59.8636 25.4054C59.8636 20.973 58.5858 17.4595 56.1366 14.8108C53.5809 12.1622 50.3863 10.8108 46.5527 10.8108C42.6659 10.8108 39.4713 12.1622 36.9689 14.8108C34.4664 17.4595 33.2418 20.973 33.2418 25.4054C33.2418 29.8378 34.4664 33.4054 36.9689 36C39.4713 38.7027 42.6659 40 46.5527 40C50.3863 40 53.5809 38.7027 56.1366 36ZM40.1103 33.2432C38.513 31.4054 37.7143 28.7568 37.7143 25.4054C37.7143 22.0541 38.513 19.4054 40.1103 17.5135C41.7076 15.6757 43.8373 14.7027 46.5527 14.7027C49.2149 14.7027 51.3979 15.6757 52.9952 17.5135C54.5925 19.4054 55.3912 22.0541 55.3912 25.4054C55.3912 28.7568 54.5925 31.4054 52.9952 33.2432C51.3979 35.1892 49.2149 36.1081 46.5527 36.1081C43.8373 36.1081 41.7076 35.1892 40.1103 33.2432Z" fill="#0C0C0C"/>
<path d="M75.4806 10.8108C71.8068 10.8108 68.9316 12.4324 66.8551 15.6216V11.4595H62.8086V39.3514H67.0681V23.5676C67.0681 20.7027 67.8135 18.4865 69.3576 16.973C70.8484 15.4595 72.6054 14.7027 74.6287 14.7027C78.7817 14.7027 80.9114 16.8108 80.9114 20.9189V39.3514H85.1709V20.4865C85.1709 17.4595 84.319 15.0811 82.6152 13.3514C80.9114 11.6757 78.5155 10.8108 75.4806 10.8108Z" fill="#0C0C0C"/>
<path d="M98.7626 35.5676C96.6328 35.5676 94.6628 35.6216 92.9058 35.6757C93.0123 35.5135 93.4915 34.9189 94.3434 33.8378C95.142 32.8108 95.8342 31.8919 96.4731 31.1351L109.039 14.7027V11.4595H88.1139V15.2432H97.8574C99.9872 15.2432 101.904 15.2432 103.714 15.1351C103.554 15.3514 103.075 15.9459 102.277 16.973C101.425 18.0541 100.733 18.9189 100.147 19.6757L87.5814 36.1081V39.3514H109.784V35.5676H98.7626Z" fill="#0C0C0C"/>
<path d="M134.556 25.4054C134.556 21.2432 133.438 17.7838 131.202 14.973C128.966 12.2162 125.878 10.8108 121.938 10.8108C118.104 10.8108 115.069 12.1622 112.78 14.8108C110.437 17.5135 109.266 21.027 109.266 25.4054C109.266 29.8919 110.437 33.4595 112.833 36.0541C115.176 38.7027 118.211 40 122.044 40C125.132 40 127.688 39.1892 129.711 37.5676C131.734 35.9459 133.119 33.6757 133.864 30.8649H129.445C128.38 34.3243 125.931 36.0541 122.151 36.0541C119.595 36.0541 117.625 35.2973 116.187 33.7838C114.697 32.2703 113.898 29.9459 113.685 26.9189H134.556V25.4054ZM121.938 14.7568C124.227 14.7568 126.091 15.5676 127.528 17.0811C128.913 18.5946 129.764 20.5946 129.977 23.027H113.791C114.111 20.3784 115.016 18.3243 116.454 16.9189C117.838 15.5135 119.701 14.7568 121.938 14.7568Z" fill="#0C0C0C"/>
<path d="M141.74 39.3514V0.864867H137.481V39.3514H141.74Z" fill="#0C0C0C"/>
<path d="M150.269 39.3514V0.864867H146.01V39.3514H150.269Z" fill="#0C0C0C"/>
<path d="M158.905 7.24324V1.94595H154.38V7.24324H158.905ZM158.799 39.3514V11.4595H154.539V39.3514H158.799Z" fill="#0C0C0C"/>
<path d="M164.744 3.72973C162.189 6.21622 160.964 9.24324 160.964 12.8108C160.964 16.3784 162.189 19.4054 164.744 21.8919C167.247 24.3784 170.335 25.6216 174.009 25.6216C177.629 25.6216 180.717 24.3784 183.273 21.8919C185.722 19.4054 187 16.3784 187 12.8108C187 9.24324 185.722 6.21622 183.273 3.72973C180.717 1.24324 177.629 0 174.009 0C170.335 0 167.247 1.24324 164.744 3.72973ZM174.009 23.0811C171.027 23.0811 168.524 22.1081 166.608 20.1081C164.584 18.1081 163.626 15.6757 163.626 12.8108C163.626 9.94595 164.584 7.51351 166.608 5.45946C168.524 3.51351 171.027 2.48649 174.009 2.48649C176.937 2.48649 179.386 3.51351 181.356 5.45946C183.326 7.51351 184.338 9.94595 184.338 12.8108C184.338 15.6757 183.326 18.1081 181.356 20.1081C179.386 22.1081 176.937 23.0811 174.009 23.0811ZM179.067 15.4054C178.96 14.1081 178.428 13.2432 177.469 12.8649C178.747 12.3243 179.439 11.2432 179.439 9.62162C179.439 8.43243 179.013 7.45946 178.162 6.81081C177.31 6.16216 176.192 5.78378 174.701 5.78378H168.95V19.5135H171.293V14H174.967C175.606 14 176.032 14.1622 176.298 14.4324C176.564 14.7568 176.724 15.2432 176.831 16L176.937 17.4054C176.937 18.3784 177.15 19.0811 177.469 19.5135H179.865C179.439 18.9189 179.226 18.2162 179.226 17.4054L179.067 15.4054ZM171.293 11.8378V7.94595H174.701C176.245 7.94595 177.043 8.5946 177.043 9.89189C177.043 11.1892 176.298 11.8378 174.914 11.8378H171.293Z" fill="#0C0C0C"/>
</svg>
