<svg width="187" height="78" viewBox="0 0 187 78" fill="none" xmlns="http://www.w3.org/2000/svg">
<path fill-rule="evenodd" clip-rule="evenodd" d="M91.9247 0.151412C91.8644 0.267878 91.5818 0.988298 91.2964 1.75219C90.9659 2.63682 90.6718 3.24231 90.4862 3.41959C90.2671 3.62892 89.7319 3.82464 88.3296 4.20829C87.3037 4.48897 86.4224 4.75867 86.371 4.80763C86.3198 4.8567 86.542 4.97272 86.8648 5.06548C87.1877 5.15834 88.0443 5.39062 88.7684 5.58162C89.5116 5.77777 90.2285 6.03749 90.4143 6.17789C90.6777 6.37712 90.8617 6.74737 91.336 8.03277C91.6619 8.91609 91.989 9.63882 92.0628 9.63882C92.1366 9.63882 92.4599 8.93486 92.7814 8.0746C93.1728 7.02685 93.464 6.41718 93.6634 6.22827C93.8825 6.02069 94.3332 5.84945 95.3696 5.57997C96.1442 5.37854 97.0187 5.14363 97.3129 5.0579C97.607 4.97228 97.8045 4.86087 97.7518 4.81037C97.699 4.75988 96.8165 4.48897 95.7906 4.20829C94.3941 3.82618 93.8526 3.62848 93.6359 3.42145C93.4491 3.24308 93.1612 2.64121 92.8247 1.72617C92.5378 0.945924 92.2425 0.224739 92.1686 0.123531C92.0443 -0.0466122 92.0258 -0.0444171 91.9247 0.151412ZM79.5488 4.7568C79.1851 4.83683 78.5432 5.03178 78.1224 5.19018C77.7017 5.34846 77.0365 5.65395 76.6442 5.86899C76.252 6.08403 75.6842 6.43804 75.3824 6.65571C75.0807 6.87328 74.206 7.65956 73.4387 8.40281C72.3844 9.42422 71.8752 9.83399 71.354 10.0806C70.839 10.3244 70.5052 10.4071 70.0353 10.4071C69.495 10.4072 69.3555 10.3619 69.0478 10.0869C68.7401 9.81193 68.6894 9.69414 68.6894 9.25463C68.6894 8.81181 68.7394 8.69798 69.0593 8.41203C69.4035 8.10435 69.4166 8.06889 69.2474 7.89963C69.1231 7.77537 68.8784 7.71785 68.4733 7.71785C67.9652 7.71785 67.8318 7.76472 67.5347 8.04716C67.3444 8.22828 67.1138 8.51983 67.0223 8.69502C66.9065 8.91708 66.8687 9.23651 66.8978 9.74991C66.9315 10.3482 66.9968 10.5615 67.2452 10.8875C67.4134 11.1081 67.7931 11.4114 68.0892 11.5614C68.5051 11.7723 68.7962 11.8342 69.3716 11.8341C69.9654 11.8341 70.2521 11.7696 70.7901 11.5149C71.1609 11.3394 71.6762 11.006 71.935 10.7741C72.2539 10.4883 72.3762 10.4231 72.3144 10.5719C72.2644 10.6926 72.1051 11.1866 71.9606 11.6696C71.816 12.1525 71.6687 12.9923 71.6333 13.5356C71.5853 14.2711 71.6154 14.7043 71.7508 15.2308C71.8507 15.6198 72.0566 16.1009 72.2082 16.2997C72.3597 16.4984 72.5736 16.7092 72.6833 16.768L72.8829 16.8748L72.7354 16.2481C72.6543 15.9033 72.5872 15.1969 72.5863 14.6784C72.5852 14.088 72.667 13.413 72.805 12.8731C72.9262 12.3988 73.2199 11.6129 73.4576 11.1266C73.6953 10.6404 74.0872 9.94376 74.3286 9.57855C74.5698 9.21335 74.9772 8.67603 75.2338 8.38448C75.4903 8.09293 75.9923 7.61115 76.3493 7.31389C76.7065 7.01664 77.0147 6.78952 77.0344 6.80917C77.0541 6.82893 76.9249 7.14024 76.7473 7.50105C76.5696 7.86175 76.372 8.44353 76.3082 8.79381C76.2249 9.25089 76.2267 9.59743 76.3149 10.0219C76.3823 10.3472 76.5468 10.7768 76.6802 10.9767C76.8138 11.1767 77.0948 11.4266 77.3048 11.5321C77.5301 11.6455 77.9338 11.724 78.2901 11.7239C78.7018 11.7237 79.0088 11.6533 79.2567 11.5021C79.4565 11.3802 79.691 11.1104 79.7779 10.9023C79.8648 10.6943 79.9359 10.4274 79.9359 10.3094C79.9359 10.1067 79.9173 10.104 79.6001 10.2623C79.4155 10.3544 79.0821 10.4521 78.8595 10.4792C78.5989 10.5109 78.3204 10.4579 78.0782 10.3306C77.8586 10.2152 77.6078 9.94969 77.4766 9.6937C77.3253 9.39853 77.2541 9.05671 77.2594 8.65089C77.2642 8.29293 77.3607 7.8364 77.4967 7.52937C77.6227 7.24452 77.9596 6.76164 78.2451 6.45626C78.5576 6.12201 79.0301 5.77459 79.4324 5.58337C79.7998 5.40873 80.3967 5.19094 80.7588 5.0994C81.1209 5.00785 81.5652 4.91454 81.7463 4.89215L82.0754 4.85132L81.7666 4.72036C81.5967 4.64835 81.177 4.59435 80.8339 4.60038C80.4908 4.60653 79.9126 4.67689 79.5488 4.7568ZM102.319 4.72673L102.045 4.85022L102.374 4.8916C102.555 4.91432 102.999 5.00785 103.361 5.0994C103.723 5.19094 104.32 5.40873 104.688 5.58337C105.09 5.77459 105.563 6.12201 105.875 6.45626C106.161 6.76164 106.498 7.24452 106.624 7.52937C106.768 7.85396 106.853 8.27724 106.854 8.66384C106.854 9.06341 106.778 9.43048 106.636 9.70666C106.511 9.95112 106.258 10.2171 106.042 10.3306C105.8 10.4579 105.521 10.5109 105.261 10.4792C105.038 10.4521 104.705 10.3544 104.52 10.2623C104.203 10.104 104.184 10.1067 104.184 10.3094C104.184 10.4274 104.255 10.6943 104.342 10.9023C104.429 11.1104 104.664 11.3802 104.863 11.5021C105.106 11.6502 105.419 11.7238 105.806 11.724C106.125 11.7242 106.549 11.6564 106.748 11.5731C106.947 11.4899 107.218 11.2845 107.35 11.1168C107.482 10.9489 107.669 10.5395 107.765 10.2068C107.91 9.70797 107.92 9.47559 107.822 8.88229C107.756 8.48656 107.556 7.86636 107.376 7.5039C107.197 7.14155 107.066 6.82893 107.086 6.80917C107.105 6.78952 107.414 7.01664 107.771 7.31389C108.128 7.61115 108.628 8.09052 108.882 8.37899C109.136 8.66758 109.573 9.25298 109.854 9.67987C110.136 10.1068 110.533 10.8181 110.737 11.2606C110.941 11.703 111.205 12.4409 111.322 12.9002C111.454 13.4142 111.535 14.0981 111.534 14.6784C111.533 15.1969 111.466 15.9033 111.385 16.2481C111.25 16.8193 111.253 16.8664 111.415 16.7797C111.513 16.7273 111.677 16.5916 111.78 16.4781C111.882 16.3647 112.079 16.0267 112.217 15.727C112.438 15.2487 112.467 15.0213 112.456 13.865C112.446 12.7929 112.393 12.3843 112.17 11.6696C112.02 11.1866 111.856 10.6926 111.806 10.5719C111.744 10.4231 111.866 10.4883 112.185 10.7741C112.444 11.006 112.959 11.3394 113.33 11.5149C113.862 11.7667 114.155 11.8336 114.718 11.8317C115.196 11.8302 115.593 11.7559 115.922 11.6062C116.193 11.4835 116.507 11.2993 116.62 11.197C116.733 11.0947 116.919 10.8276 117.033 10.6037C117.165 10.3462 117.241 9.96824 117.241 9.57581C117.241 9.15034 117.17 8.8297 117.014 8.55605C116.889 8.33651 116.655 8.05813 116.493 7.93739C116.287 7.7836 116.027 7.71785 115.627 7.71785C115.24 7.71785 114.995 7.7769 114.873 7.89963C114.704 8.06889 114.717 8.10435 115.061 8.41203C115.381 8.69798 115.431 8.81181 115.431 9.25463C115.431 9.69414 115.38 9.81193 115.072 10.0869C114.765 10.3619 114.625 10.4072 114.085 10.4071C113.616 10.4071 113.281 10.3244 112.771 10.0829C112.252 9.83739 111.734 9.41807 110.632 8.35166C109.831 7.57767 108.822 6.70895 108.387 6.42124C107.953 6.13365 107.219 5.72278 106.755 5.50829C106.291 5.2938 105.442 4.99929 104.869 4.85384C104.296 4.7084 103.549 4.59259 103.21 4.59632C102.871 4.60016 102.47 4.65889 102.319 4.72673ZM84.0436 5.76943C83.9411 6.23727 83.8152 6.70171 83.7637 6.80149C83.7123 6.90116 83.1992 7.16932 82.6235 7.39732C82.0478 7.6252 81.6149 7.84661 81.6616 7.88909C81.7081 7.93168 82.166 8.02531 82.6789 8.09721C83.1919 8.16911 83.7226 8.29952 83.8583 8.387C83.9939 8.47438 84.2767 8.88701 84.4865 9.3038C84.6963 9.7206 84.91 10.0876 84.9614 10.1194C85.013 10.1512 85.1427 9.79678 85.2499 9.33179C85.357 8.8667 85.5119 8.37943 85.5941 8.24902C85.6852 8.10435 86.1103 7.87317 86.6832 7.65681C87.2001 7.46175 87.6458 7.26516 87.6735 7.22015C87.7014 7.17504 87.5641 7.10983 87.3685 7.07514C87.173 7.04035 86.7413 6.97887 86.4094 6.93837C86.0775 6.89786 85.6825 6.80149 85.5317 6.72421C85.3691 6.641 85.0785 6.24495 84.8185 5.7522C84.5771 5.29479 84.3459 4.92014 84.3048 4.91959C84.2636 4.91915 84.1461 5.30159 84.0436 5.76943ZM99.6633 5.15911C99.5721 5.29863 99.3709 5.66273 99.2161 5.96844C99.0614 6.27404 98.8609 6.58546 98.7707 6.66032C98.6805 6.73519 98.1057 6.8747 97.4935 6.97031C96.8811 7.06581 96.4203 7.1791 96.4693 7.22202C96.5185 7.26494 96.9619 7.45967 97.4546 7.65473C97.9475 7.8499 98.4254 8.09227 98.517 8.19337C98.6085 8.29447 98.766 8.7476 98.8671 9.20018C98.9681 9.65276 99.0833 10.0584 99.1232 10.1016C99.1629 10.1447 99.4079 9.78657 99.6676 9.30556C99.9273 8.82454 100.228 8.38338 100.337 8.32531C100.446 8.26724 100.985 8.15967 101.536 8.08623C102.088 8.0128 102.538 7.91587 102.538 7.87076C102.538 7.82564 102.131 7.63431 101.633 7.44551C101.135 7.25681 100.623 6.98634 100.496 6.84452C100.36 6.69413 100.208 6.29304 100.13 5.88228C100.057 5.4949 99.9597 5.11674 99.9134 5.04177C99.8527 4.94352 99.783 4.97623 99.6633 5.15911ZM89.4268 11.1404C89.125 11.1596 88.1375 11.2521 87.2323 11.3458C86.3271 11.4397 84.7472 11.6607 83.7213 11.837C82.6954 12.0134 81.2532 12.3059 80.5164 12.4871C79.7797 12.6684 78.8781 12.9382 78.5128 13.0867C78.1475 13.2352 77.5652 13.5294 77.219 13.7406C76.8727 13.9517 76.3216 14.3871 75.9941 14.7082C75.6668 15.0293 75.1836 15.6246 74.9203 16.0309C74.6571 16.4374 74.2884 17.129 74.101 17.5677C73.9137 18.0066 73.3937 19.4275 72.9455 20.7256C72.4974 22.0236 71.982 23.6537 71.7999 24.348C71.5588 25.2685 71.4528 25.9678 71.4084 26.9305C71.363 27.9197 71.393 28.4736 71.5278 29.1395C71.6269 29.6285 71.8523 30.3787 72.0287 30.8067C72.2051 31.2348 72.5818 31.9449 72.8658 32.3848C73.1497 32.8246 73.7828 33.5975 74.2725 34.1023C74.7623 34.6072 75.558 35.3294 76.0408 35.7074C76.5235 36.0853 77.4864 36.7654 78.1803 37.2185C78.8743 37.6717 80.0346 38.3636 80.7588 38.756C81.483 39.1485 83.2351 40.0497 84.6524 40.7587C86.0697 41.4677 88.1598 42.4863 89.297 43.0223C90.4341 43.5585 91.5478 44.0263 91.7718 44.0622C91.9958 44.098 92.3964 44.0688 92.6621 43.9972C92.9277 43.9257 94.6674 43.1345 96.5279 42.2394C98.3884 41.3441 100.761 40.1589 101.801 39.6054C102.84 39.052 104.308 38.2313 105.062 37.7817C105.816 37.3321 106.878 36.6464 107.421 36.2579C107.964 35.8693 108.811 35.1801 109.304 34.7263C109.796 34.2724 110.452 33.5669 110.761 33.1585C111.071 32.7502 111.545 31.9715 111.815 31.4281C112.085 30.8848 112.404 30.0495 112.524 29.5719C112.681 28.9503 112.742 28.3423 112.741 27.4314C112.74 26.5843 112.666 25.8107 112.519 25.1164C112.398 24.5428 111.852 22.7305 111.305 21.0891C110.704 19.2837 110.071 17.617 109.704 16.8703C109.182 15.8076 108.972 15.511 108.198 14.7364C107.484 14.0216 107.109 13.7451 106.373 13.3893C105.863 13.1432 104.952 12.8187 104.349 12.6685C103.745 12.5182 102.607 12.271 101.82 12.1192C101.033 11.9674 99.5268 11.7199 98.4736 11.5692C97.4204 11.4185 95.8946 11.2437 95.0829 11.1805C94.2713 11.1174 92.7901 11.0747 91.7913 11.0856C90.7926 11.0965 89.7285 11.1211 89.4268 11.1404ZM64.5952 13.2704C64.2744 13.3259 63.7409 13.504 63.4097 13.6663C63.0785 13.8285 62.6325 14.155 62.4188 14.3917C62.2049 14.6285 61.9528 15.0021 61.8584 15.2217C61.7641 15.4415 61.6825 15.9424 61.6771 16.3348C61.6693 16.9085 61.7281 17.172 61.9776 17.6803C62.1482 18.028 62.4444 18.4318 62.6359 18.5777C62.8273 18.7236 63.2108 18.9 63.4882 18.9698C63.86 19.0632 64.1102 19.0649 64.4403 18.9759C64.7065 18.9043 65.0051 18.7161 65.1766 18.5123L65.4652 18.1691L64.7732 17.8282C64.169 17.5306 64.0555 17.4241 63.8786 16.9894C63.7041 16.5607 63.6942 16.4241 63.8069 16.0056C63.8861 15.7113 64.0964 15.3607 64.3399 15.1171C64.6415 14.8152 64.8929 14.6833 65.3449 14.5894C65.7702 14.5011 66.12 14.4969 66.5322 14.5751C66.8537 14.6361 67.3311 14.7809 67.5931 14.8969C67.8552 15.0128 68.2928 15.3135 68.5656 15.565C68.8382 15.8166 69.2169 16.2646 69.4069 16.5609C69.5969 16.8572 69.8705 17.4489 70.0149 17.8758C70.1593 18.3027 70.3323 19.1038 70.3995 19.656C70.4913 20.4118 70.489 20.9179 70.39 21.7045C70.3177 22.279 70.1591 23.0718 70.0375 23.4662C69.9158 23.8606 69.6688 24.4797 69.4887 24.8419C69.3084 25.2042 68.9808 25.69 68.7606 25.9215C68.5405 26.153 68.1628 26.4448 67.9214 26.57C67.6449 26.7134 67.1912 26.8167 66.6955 26.8491C66.049 26.8912 65.8233 26.8592 65.4313 26.6694C65.1688 26.5423 64.8688 26.2938 64.7645 26.1171C64.6603 25.9405 64.5749 25.643 64.5749 25.4562C64.5749 25.2693 64.5217 25.1164 64.4567 25.1164C64.3918 25.1164 64.1943 25.2607 64.0178 25.4372C63.7581 25.697 63.6971 25.8524 63.6971 26.2534C63.6971 26.5257 63.7498 26.8877 63.8142 27.0576C63.8785 27.2276 64.039 27.4826 64.1708 27.6243C64.3025 27.766 64.6078 27.9875 64.8492 28.1164C65.1913 28.299 65.4822 28.3512 66.1682 28.3527C66.9389 28.3544 67.1366 28.311 67.7591 28.0035C68.1501 27.8104 68.7016 27.4153 68.9846 27.1254C69.2677 26.8355 69.673 26.3081 69.8853 25.9536C70.0976 25.599 70.3958 24.9322 70.5479 24.4717C70.7001 24.0112 70.9068 23.264 71.0074 22.8112C71.1293 22.2624 71.1924 21.4573 71.1968 20.3963C71.2016 19.2035 71.1538 18.6121 71.0057 18.0362C70.8969 17.6136 70.6396 16.922 70.4339 16.4994C70.2282 16.0768 69.8521 15.4885 69.598 15.1921C69.3439 14.8956 68.8457 14.4393 68.4909 14.1779C68.1359 13.9166 67.5416 13.6092 67.1703 13.495C66.7989 13.3808 66.1988 13.2609 65.8367 13.2285C65.4746 13.1961 64.9159 13.215 64.5952 13.2704ZM117.828 13.2671C117.517 13.3216 116.998 13.4654 116.676 13.5868C116.353 13.7081 115.807 14.0298 115.462 14.3016C115.116 14.5735 114.636 15.0465 114.394 15.3528C114.152 15.659 113.81 16.2152 113.635 16.5888C113.459 16.9622 113.226 17.6136 113.116 18.0362C112.966 18.6152 112.918 19.1969 112.923 20.3963C112.928 21.4573 112.991 22.2624 113.113 22.8112C113.213 23.264 113.42 24.0112 113.572 24.4717C113.724 24.9322 114.023 25.599 114.235 25.9536C114.447 26.3081 114.852 26.8355 115.136 27.1254C115.419 27.4153 115.97 27.8104 116.361 28.0035C116.984 28.311 117.181 28.3544 117.952 28.3527C118.638 28.3512 118.929 28.299 119.271 28.1164C119.512 27.9875 119.818 27.766 119.949 27.6243C120.081 27.4826 120.242 27.2276 120.306 27.0576C120.37 26.8877 120.423 26.5257 120.423 26.2534C120.423 25.8524 120.362 25.697 120.102 25.4372C119.926 25.2607 119.728 25.1164 119.663 25.1164C119.598 25.1164 119.545 25.2693 119.545 25.4562C119.545 25.643 119.46 25.9405 119.356 26.1171C119.251 26.2938 118.951 26.5423 118.689 26.6694C118.297 26.8592 118.071 26.8912 117.425 26.8491C116.929 26.8167 116.475 26.7134 116.199 26.57C115.957 26.4448 115.582 26.153 115.365 25.9215C115.149 25.69 114.867 25.3262 114.741 25.1132C114.614 24.9001 114.363 24.2827 114.184 23.7411C114.004 23.1995 113.799 22.2846 113.728 21.7081C113.631 20.9237 113.629 20.4071 113.721 19.656C113.788 19.1038 113.961 18.3027 114.105 17.8758C114.25 17.4489 114.523 16.8572 114.713 16.5609C114.903 16.2646 115.282 15.8166 115.555 15.565C115.827 15.3135 116.265 15.0128 116.527 14.8969C116.789 14.7809 117.266 14.6361 117.588 14.5751C117.994 14.4981 118.349 14.5009 118.75 14.5843C119.068 14.6503 119.477 14.8301 119.66 14.9837C119.843 15.1374 120.057 15.3932 120.137 15.552C120.217 15.7108 120.314 16.0069 120.352 16.2099C120.4 16.461 120.357 16.7279 120.216 17.0455C120.045 17.4328 119.895 17.5695 119.338 17.848L118.667 18.1835L118.95 18.5194C119.115 18.7166 119.417 18.9051 119.68 18.9759C120.009 19.0645 120.26 19.0633 120.624 18.9715C120.897 18.9027 121.26 18.7473 121.43 18.6262C121.6 18.5051 121.861 18.1978 122.01 17.9432C122.159 17.6886 122.338 17.2339 122.407 16.9328C122.504 16.5157 122.503 16.2349 122.403 15.754C122.322 15.3627 122.138 14.9475 121.92 14.6617C121.727 14.408 121.373 14.0666 121.133 13.903C120.893 13.7394 120.45 13.5304 120.149 13.4385C119.847 13.3466 119.329 13.2482 118.997 13.2197C118.665 13.1913 118.139 13.2126 117.828 13.2671ZM83.6664 18.21C83.6664 20.7718 83.6265 22.3763 83.5633 22.3538C83.5065 22.3337 82.864 21.8072 82.1355 21.184C81.3038 20.4724 80.8401 20.0026 80.8895 19.9216C80.9327 19.8506 81.189 19.5208 81.4589 19.1888C81.7289 18.8567 82.1657 18.1295 82.4296 17.5727C82.6935 17.0159 83.0305 16.0834 83.1783 15.5004C83.326 14.9175 83.447 14.3481 83.447 14.2351C83.447 14.122 83.4963 14.0296 83.5567 14.0296C83.6279 14.0296 83.6664 15.4962 83.6664 18.21ZM88.7983 20.2871L88.7684 22.3734L85.9963 20.0519L86.4779 19.2503C86.7428 18.8093 87.2728 17.7137 87.6556 16.8155C88.0386 15.9171 88.4123 14.9846 88.4862 14.7431C88.5601 14.5016 88.6538 14.2299 88.6945 14.1394C88.7352 14.0488 88.7818 14.9257 88.7983 16.0878C88.8146 17.2499 88.8146 19.1397 88.7983 20.2871ZM94.0899 18.2009C94.0899 20.4951 94.0578 22.3721 94.0185 22.3721C93.9792 22.3721 93.3497 21.8694 92.6195 21.255C91.8895 20.6405 91.2694 20.1199 91.2419 20.0979C91.2143 20.0761 91.2775 19.9243 91.3824 19.7607C91.4872 19.597 91.8122 18.994 92.1046 18.4204C92.3969 17.8469 92.9138 16.6821 93.2533 15.832C93.5928 14.982 93.8705 14.2287 93.8705 14.158C93.8705 14.0875 93.9198 14.0296 93.9802 14.0296C94.0514 14.0296 94.0899 15.4932 94.0899 18.2009ZM99.2468 18.2009C99.2468 20.4951 99.2215 22.3721 99.1905 22.3721C99.1596 22.3721 98.5177 21.8501 97.7642 21.2119C97.0106 20.5738 96.3941 20.0329 96.3941 20.0099C96.3941 19.9869 96.5453 19.744 96.73 19.4701C96.9149 19.1961 97.2791 18.5145 97.5393 17.9552C97.7995 17.396 98.2408 16.3656 98.5199 15.6655C98.799 14.9653 99.0274 14.3108 99.0274 14.2111C99.0274 14.1113 99.0768 14.0296 99.1371 14.0296C99.2083 14.0296 99.2468 15.4932 99.2468 18.2009ZM104.89 23.0307C107.39 25.174 109.439 26.9621 109.443 27.0044C109.448 27.0467 108.903 27.2585 108.233 27.4752C107.563 27.6919 106.316 28.0409 105.462 28.2508C104.609 28.4607 103.342 28.7259 102.648 28.84C101.954 28.9541 101.189 29.0754 100.948 29.1096L100.509 29.1717L100.508 27.6106C100.508 26.1413 100.487 25.993 100.165 25.091C99.977 24.5638 99.8785 24.1664 99.9464 24.2078C100.014 24.2493 100.894 24.9893 101.901 25.8524C102.908 26.7154 103.781 27.4215 103.839 27.4215C103.898 27.4215 103.977 27.2337 104.016 27.0042C104.056 26.7666 104.015 26.2446 103.921 25.7927C103.83 25.3558 103.529 24.5209 103.253 23.937C102.976 23.3532 102.435 22.4042 102.049 21.828C101.663 21.2518 101.011 20.3682 100.599 19.8642C100.187 19.3604 99.7762 18.8417 99.6857 18.7116C99.5614 18.533 99.6216 18.5558 99.9324 18.8046C100.158 18.9857 102.389 20.8875 104.89 23.0307ZM88.8233 29.7367L88.4118 29.6617C88.1856 29.6206 87.1708 29.4264 86.1567 29.2302C85.1428 29.034 84.2913 28.8517 84.2645 28.8249C84.2377 28.7982 84.4577 28.0392 84.7533 27.1384C85.049 26.2376 85.3461 25.1381 85.4137 24.6951C85.4813 24.252 85.5676 23.207 85.6056 22.3728L85.6746 20.856L88.8081 23.5247L88.8233 29.7367ZM92.7596 22.4838L94.0899 23.6205V26.6123C94.0899 28.2576 94.048 29.6299 93.9968 29.6615C93.9456 29.6932 92.9054 29.5281 91.6853 29.2948C90.4652 29.0613 89.451 28.853 89.4316 28.832C89.4123 28.8109 89.616 28.1377 89.8843 27.3358C90.1527 26.534 90.4445 25.5461 90.5329 25.1404C90.6212 24.7348 90.7246 23.6021 90.7625 22.6234L90.8316 20.8439L91.1304 21.0955C91.2948 21.2338 92.0279 21.8585 92.7596 22.4838ZM63.8069 21.0944C63.5353 21.1684 63.0738 21.3491 62.7814 21.4959C62.489 21.6428 61.95 22.0834 61.5839 22.475C61.1329 22.9572 60.7802 23.4813 60.4911 24.0986C60.2563 24.5999 59.9937 25.3427 59.9076 25.7493C59.8214 26.1559 59.7501 27.0893 59.749 27.8235C59.748 28.5578 59.8173 29.5254 59.9031 29.9737C59.9888 30.422 60.1891 31.1796 60.3483 31.6573C60.5074 32.1349 60.8394 32.8716 61.0862 33.2942C61.333 33.7168 61.796 34.3894 62.1152 34.789C62.4343 35.1884 63.0056 35.7485 63.3845 36.0334C63.7635 36.3185 64.569 36.7921 65.1745 37.0861C65.7801 37.3802 66.6505 37.7418 67.1088 37.8896C67.5671 38.0376 68.4559 38.2651 69.0838 38.3953C69.7117 38.5255 70.9168 38.6794 71.7616 38.7374C72.6065 38.7952 73.8524 38.8882 74.5303 38.944C75.3237 39.0092 75.9362 39.122 76.2492 39.2605C76.5166 39.3789 76.8181 39.6019 76.9192 39.7561C77.0203 39.9105 77.1299 40.2378 77.1628 40.4837C77.2038 40.7897 77.1594 41.0715 77.0218 41.3767C76.9112 41.622 76.6533 41.9365 76.4486 42.0756L76.0765 42.3286L76.4253 42.4052C76.6172 42.4474 76.9882 42.4498 77.2498 42.4105C77.5114 42.3713 77.8883 42.2294 78.0874 42.0951C78.2865 41.9609 78.556 41.6928 78.6861 41.4995C78.8164 41.3062 78.9555 40.9747 78.9952 40.7628C79.035 40.551 79.0146 40.1815 78.9501 39.9419C78.8856 39.7023 78.7044 39.3533 78.5471 39.1665C78.39 38.9796 78.0302 38.7096 77.7477 38.5664C77.4651 38.4231 76.9247 38.2498 76.5468 38.1812C76.0783 38.0962 75.0993 38.0811 73.4703 38.1336C71.8989 38.1845 71.0577 38.1729 71.0127 38.1001C70.9717 38.0338 71.1739 37.9624 71.5175 37.9221C71.8328 37.885 72.3614 37.7166 72.6922 37.5479C73.1188 37.3301 73.3653 37.1141 73.5407 36.8043C73.695 36.5317 73.7885 36.1812 73.7897 35.8708C73.7907 35.5863 73.715 35.2646 73.6125 35.1183C73.5141 34.9776 73.2689 34.7938 73.0674 34.7096C72.8661 34.6254 72.6491 34.5566 72.5852 34.5566C72.517 34.5566 72.5432 34.6996 72.6486 34.9038C72.7641 35.1272 72.8082 35.3993 72.7723 35.667C72.7417 35.8959 72.611 36.2313 72.482 36.4126C72.3526 36.5943 71.9289 36.8991 71.5368 37.0921C71.0419 37.3359 70.5476 37.4767 69.9082 37.5559C69.153 37.6496 68.8239 37.6369 68.051 37.485C67.5343 37.3835 66.9729 37.2422 66.8032 37.1712L66.495 37.042L67.1632 36.9702C67.5307 36.9307 68.0583 36.7884 68.3357 36.654C68.6131 36.5198 69.0216 36.2088 69.2434 35.9632C69.4653 35.7175 69.7428 35.2995 69.86 35.0343C69.9772 34.7691 70.1192 34.2695 70.1754 33.924C70.2429 33.509 70.2373 33.0645 70.1589 32.6141C70.0901 32.2195 69.9066 31.7215 69.7229 31.4318C69.5483 31.1565 69.174 30.7843 68.891 30.6047C68.6079 30.4252 68.2119 30.2473 68.011 30.2097C67.81 30.1719 67.4274 30.1738 67.1607 30.2139C66.894 30.2538 66.5116 30.3956 66.311 30.5289C66.1105 30.6623 65.832 30.9932 65.692 31.2644C65.4906 31.6546 65.4498 31.8691 65.4964 32.2927C65.5288 32.5872 65.6378 32.9539 65.7386 33.1078L65.9218 33.3876L66.1278 32.9862C66.241 32.7653 66.4786 32.5097 66.6558 32.418C66.833 32.3264 67.1578 32.2514 67.3778 32.2514C67.601 32.2514 67.9131 32.3478 68.084 32.4695C68.2524 32.5895 68.4738 32.8969 68.5761 33.1524C68.7086 33.484 68.7407 33.759 68.6878 34.1118C68.6471 34.3838 68.5218 34.7865 68.4095 35.0067C68.2972 35.2269 68.057 35.532 67.8756 35.6846C67.6944 35.8373 67.3216 36.0479 67.0472 36.1527C66.6904 36.2891 66.3672 36.3268 65.9114 36.2854C65.5378 36.2515 65.0349 36.1062 64.6953 35.9341C64.3769 35.7726 63.8931 35.4348 63.6205 35.1834C63.3479 34.932 62.9791 34.5144 62.801 34.2556C62.6231 33.9967 62.3352 33.4981 62.1613 33.1475C61.9873 32.7969 61.7382 32.1184 61.6075 31.6398C61.4418 31.0331 61.3526 30.3166 61.3129 29.2738C61.2777 28.347 61.3055 27.4932 61.3863 27.0293C61.458 26.6175 61.6687 25.886 61.8547 25.4037C62.1192 24.7172 62.3262 24.3905 62.8077 23.8981C63.2571 23.4388 63.5532 23.2348 63.9066 23.1411C64.1727 23.0706 64.5628 23.0452 64.7735 23.0847C64.9842 23.1243 65.3014 23.3016 65.4785 23.4788C65.779 23.7794 65.7981 23.8485 65.7637 24.514L65.727 25.227L66.0788 25.2928C66.3124 25.3365 66.57 25.2902 66.8454 25.1551C67.0735 25.0433 67.3719 24.7839 67.5085 24.5787C67.6961 24.2968 67.7568 24.0478 67.7568 23.559C67.7568 23.1326 67.6833 22.7681 67.5411 22.4894C67.4225 22.2568 67.1161 21.887 66.8602 21.6679C66.6043 21.4487 66.1493 21.1965 65.849 21.1072C65.5488 21.0181 65.0775 20.9484 64.8018 20.9525C64.5262 20.9566 64.0784 21.0204 63.8069 21.0944ZM82.1226 22.2712L83.6664 23.5973V26.662C83.6664 28.3475 83.6382 29.7267 83.6037 29.7267C83.5693 29.7267 82.1498 29.4736 80.4493 29.1641C78.7488 28.8547 77.3398 28.5859 77.318 28.5668C77.2964 28.5476 77.6429 28.0474 78.088 27.4553C78.5331 26.8632 79.0775 26.0082 79.2977 25.5554C79.5179 25.1026 79.7805 24.4852 79.8812 24.1833C79.9818 23.8815 80.1341 23.272 80.2195 22.829C80.3049 22.386 80.3748 21.7809 80.3748 21.4843C80.3748 21.1877 80.4207 20.9451 80.4768 20.9451C80.533 20.9451 81.2736 21.5418 82.1226 22.2712ZM97.703 22.2712L99.2468 23.5973V26.662C99.2468 28.3475 99.2098 29.7261 99.1645 29.7256C99.1192 29.7249 98.1057 29.5342 96.9122 29.3018C95.7187 29.0693 94.7113 28.8482 94.6735 28.8105C94.6358 28.7727 94.8094 28.136 95.0593 27.3956C95.3091 26.6552 95.5915 25.7283 95.6866 25.3359C95.7882 24.9171 95.8856 23.8629 95.9226 22.7838C95.9572 21.7726 96.0246 20.9451 96.0725 20.9451C96.1202 20.9451 96.854 21.5418 97.703 22.2712ZM118.225 21.1066C117.952 21.1948 117.518 21.4469 117.261 21.6667C117.005 21.8865 116.698 22.2568 116.579 22.4894C116.437 22.7681 116.363 23.1326 116.363 23.559C116.363 24.0478 116.424 24.2968 116.612 24.5787C116.748 24.7839 117.047 25.0433 117.275 25.1551C117.55 25.2902 117.808 25.3365 118.041 25.2928L118.393 25.227L118.356 24.514C118.322 23.8485 118.341 23.7794 118.642 23.4788C118.819 23.3016 119.136 23.1243 119.347 23.0847C119.557 23.0452 119.947 23.0706 120.214 23.1411C120.567 23.2348 120.863 23.4388 121.312 23.8981C121.795 24.3917 121.999 24.7143 122.26 25.3979C122.443 25.877 122.655 26.6202 122.73 27.0494C122.818 27.5513 122.846 28.3547 122.808 29.2997C122.768 30.3073 122.675 31.0432 122.512 31.6398C122.382 32.1184 122.133 32.7969 121.959 33.1475C121.785 33.4981 121.497 33.9967 121.319 34.2556C121.141 34.5144 120.764 34.9394 120.482 35.2C120.199 35.4607 119.687 35.8023 119.345 35.9592C119.003 36.1161 118.462 36.266 118.143 36.2925C117.758 36.3245 117.399 36.2774 117.069 36.1513C116.797 36.0472 116.426 35.8373 116.245 35.6846C116.063 35.532 115.82 35.2202 115.703 34.9919C115.587 34.7636 115.459 34.3739 115.419 34.1259C115.37 33.8156 115.406 33.522 115.535 33.184C115.638 32.9139 115.849 32.5936 116.003 32.4722C116.175 32.3364 116.449 32.2514 116.713 32.2514C116.949 32.2514 117.287 32.3264 117.464 32.418C117.642 32.5097 117.879 32.7653 117.992 32.9862L118.198 33.3876L118.372 33.1214C118.468 32.975 118.58 32.6445 118.621 32.387C118.674 32.0582 118.64 31.7731 118.509 31.4297C118.407 31.1605 118.176 30.8174 117.998 30.6671C117.819 30.5167 117.49 30.3427 117.265 30.2804C117.041 30.218 116.682 30.1668 116.467 30.1664C116.253 30.1661 115.819 30.2945 115.503 30.4521C115.15 30.6281 114.783 30.9299 114.549 31.2363C114.34 31.5101 114.111 31.937 114.041 32.1849C113.971 32.4327 113.917 32.9814 113.921 33.404C113.926 33.9052 114.009 34.3879 114.162 34.7922C114.29 35.1332 114.592 35.6354 114.832 35.9082C115.072 36.1811 115.498 36.5154 115.779 36.6513C116.059 36.7872 116.589 36.9307 116.957 36.9702C117.584 37.0376 117.607 37.0497 117.327 37.1673C117.163 37.2363 116.622 37.375 116.126 37.4757C115.511 37.6003 114.976 37.6377 114.449 37.5928C114.023 37.5565 113.428 37.4436 113.127 37.3419C112.825 37.2401 112.375 37.0186 112.126 36.8497C111.878 36.6806 111.594 36.3721 111.496 36.164C111.397 35.956 111.316 35.6549 111.316 35.495C111.316 35.3352 111.392 35.0585 111.484 34.8804C111.585 34.6851 111.605 34.5566 111.535 34.5566C111.471 34.5566 111.254 34.6254 111.053 34.7096C110.851 34.7938 110.606 34.9776 110.508 35.1183C110.405 35.2646 110.329 35.5863 110.33 35.8708C110.332 36.1812 110.425 36.5317 110.579 36.8043C110.755 37.1141 111.001 37.3301 111.428 37.5479C111.759 37.7166 112.287 37.885 112.603 37.9221C112.918 37.9591 113.148 38.0342 113.114 38.0889C113.079 38.1455 111.863 38.1746 110.292 38.1563C107.8 38.1273 107.467 38.1448 106.879 38.3377C106.453 38.4774 106.068 38.7049 105.765 38.9963C105.465 39.2859 105.259 39.6049 105.178 39.9095C105.109 40.1669 105.085 40.551 105.125 40.7628C105.165 40.9747 105.304 41.3062 105.434 41.4995C105.564 41.6928 105.834 41.9609 106.033 42.0951C106.232 42.2294 106.609 42.3713 106.87 42.4105C107.132 42.4498 107.506 42.4468 107.701 42.404L108.055 42.3261L107.706 42.1048C107.514 41.9831 107.26 41.6941 107.142 41.4626C107.024 41.2311 106.927 40.89 106.927 40.7046C106.927 40.519 106.998 40.1971 107.085 39.9891C107.172 39.781 107.404 39.5129 107.601 39.3933C107.797 39.2736 108.208 39.1222 108.513 39.0568C108.817 38.9914 109.978 38.8903 111.092 38.8322C112.205 38.7742 113.563 38.6546 114.109 38.5667C114.655 38.4788 115.58 38.2824 116.165 38.1302C116.75 37.9782 117.676 37.6606 118.223 37.4245C118.771 37.1885 119.576 36.7801 120.013 36.517C120.45 36.2537 121.104 35.7421 121.467 35.3798C121.83 35.0176 122.338 34.4002 122.596 34.0077C122.854 33.6153 123.21 32.993 123.387 32.6248C123.565 32.2566 123.84 31.4909 123.998 30.9234C124.231 30.0901 124.297 29.5742 124.34 28.2448C124.379 27.0201 124.35 26.3969 124.226 25.8126C124.135 25.3805 123.884 24.6453 123.668 24.1788C123.453 23.7124 123.067 23.0732 122.81 22.7585C122.553 22.4438 122.146 22.0345 121.904 21.849C121.663 21.6633 121.194 21.4044 120.862 21.2733C120.525 21.1403 119.919 21.0154 119.49 20.9906C119 20.9622 118.542 21.0043 118.225 21.1066ZM111.093 27.3941C111.091 27.4394 111.022 27.5658 110.939 27.675C110.856 27.7843 109.577 28.3627 108.096 28.9604C106.615 29.5582 105.067 30.217 104.657 30.4247C104.246 30.6323 103.802 30.9185 103.669 31.0606C103.537 31.2028 103.298 31.6061 103.137 31.9569C102.964 32.3358 102.749 32.6311 102.609 32.6844C102.48 32.7337 101.88 32.8275 101.276 32.8927C100.673 32.958 98.9451 33.069 97.4364 33.1393C95.6639 33.222 92.5583 33.2454 88.6587 33.2054C85.3396 33.1714 81.9328 33.0908 81.0879 33.0263C80.2431 32.9618 79.2062 32.8577 78.7838 32.795C78.3614 32.7322 77.9493 32.6147 77.8679 32.5338C77.7512 32.4178 77.7473 32.3358 77.8493 32.145C77.9205 32.0121 77.9623 31.8895 77.9423 31.8726C77.9224 31.8557 77.728 31.7588 77.5102 31.6573C77.2925 31.5559 76.9516 31.3146 76.7526 31.1212C76.5536 30.9278 76.2951 30.5544 76.178 30.2914C76.0611 30.0283 76.007 29.7751 76.0579 29.7286C76.1088 29.6821 76.5857 29.7095 77.1175 29.7895C77.6494 29.8694 78.7603 29.9916 79.5862 30.0609C80.4122 30.1303 83.2248 30.2193 85.8363 30.2588C88.4479 30.2982 92.2498 30.298 94.2849 30.2584C96.32 30.2188 98.6269 30.132 99.4114 30.0654C100.196 29.999 101.356 29.8662 101.99 29.7704C102.623 29.6746 103.66 29.4809 104.294 29.3402C104.928 29.1995 106.014 28.9097 106.708 28.6962C107.402 28.4827 108.636 28.0889 109.451 27.8212C110.266 27.5534 110.969 27.3292 111.014 27.3231C111.06 27.3168 111.095 27.3488 111.093 27.3941ZM105.982 34.997C105.921 35.0581 105.491 35.1808 105.027 35.2696C104.563 35.3585 103.43 35.5051 102.51 35.5952C101.59 35.6854 99.875 35.8139 98.6982 35.8806C97.5215 35.9474 94.5343 36.0019 92.0601 36.0019C89.5859 36.0019 86.5987 35.9474 85.4219 35.8806C84.2452 35.8139 82.5297 35.6854 81.6097 35.5952C80.6897 35.5051 79.5571 35.3585 79.0929 35.2696C78.6287 35.1808 78.1989 35.0581 78.1378 34.997C78.0628 34.922 82.5911 34.8859 92.0601 34.8859C101.529 34.8859 106.057 34.922 105.982 34.997ZM62.3805 37.1523C62.3805 37.1922 62.5601 37.5507 62.7795 37.9489C62.9991 38.3471 63.4239 39.0835 63.7237 39.5854C64.0234 40.0872 64.2512 40.5145 64.2298 40.5351C64.2084 40.5555 63.6231 40.6981 62.9291 40.8518C62.2351 41.0054 61.3505 41.1658 60.9633 41.2081L60.2593 41.285L60.7987 41.5604C61.0954 41.712 62.0541 42.1548 62.9291 42.5446C63.8041 42.9343 65.4411 43.6189 66.567 44.066C67.693 44.513 69.4951 45.1894 70.5718 45.5691L72.5297 46.2595V47.8936L73.4458 48.2009C73.9495 48.3698 75.2085 48.7256 76.2436 48.9913C77.2786 49.2571 78.8661 49.6215 79.7713 49.8012C80.6765 49.981 82.133 50.2302 83.0081 50.3551C83.8831 50.48 85.389 50.6579 86.3546 50.7504C87.3201 50.8428 89.2457 50.9483 90.6337 50.9847C92.13 51.0241 94.0283 50.9987 95.2969 50.9224C96.4736 50.8515 98.103 50.7208 98.9177 50.6319C99.7323 50.543 101.041 50.3674 101.825 50.2417C102.61 50.116 103.968 49.8689 104.843 49.6926C105.718 49.5162 107.1 49.1975 107.915 48.9841C108.729 48.7708 109.872 48.4499 110.455 48.2711C111.141 48.0601 111.538 47.88 111.585 47.7578C111.625 47.6542 111.625 47.2708 111.586 46.9057L111.515 46.2419L112.321 45.9857C112.764 45.8449 114.188 45.333 115.486 44.8484C116.783 44.3637 118.684 43.6092 119.71 43.1715C120.736 42.734 122.093 42.1355 122.727 41.8417C123.6 41.4365 123.812 41.2995 123.605 41.2749C123.454 41.2569 122.888 41.1687 122.347 41.0787C121.806 40.9886 121.028 40.8388 120.619 40.7457C120.209 40.6525 119.874 40.5347 119.874 40.484C119.874 40.4333 120.116 40.0026 120.411 39.527C120.705 39.0513 121.124 38.3105 121.34 37.8805L121.734 37.099L119.624 38.1219C118.464 38.6846 116.651 39.4895 115.595 39.9107C114.539 40.3319 113.255 40.8141 112.743 40.9823C112.23 41.1504 111.775 41.3178 111.732 41.3542C111.688 41.3906 111.73 41.6419 111.824 41.9127C111.947 42.2653 111.983 42.6858 111.952 43.393C111.919 44.1517 111.844 44.521 111.631 44.9847L111.354 45.5884L111.101 44.82C110.961 44.3974 110.75 43.8541 110.63 43.6126C110.511 43.3711 110.316 43.067 110.197 42.9369L109.981 42.7004L109.25 42.9124C108.847 43.029 107.753 43.3173 106.818 43.5531C105.882 43.7889 104.352 44.1322 103.416 44.3162C102.481 44.5001 101.024 44.7486 100.179 44.8683C99.3346 44.9881 98.1496 45.1415 97.5461 45.209C96.9427 45.2765 94.8936 45.3581 92.9927 45.3903C90.3006 45.4359 89.0757 45.4089 87.4518 45.2678C86.3052 45.1684 84.566 44.9671 83.5869 44.8208C82.6077 44.6745 81.0524 44.4004 80.1306 44.2117C79.2089 44.0231 77.8128 43.7015 77.0283 43.4971C76.2438 43.2927 75.272 43.0295 74.8687 42.9124C74.3014 42.7475 74.0978 42.7281 73.9685 42.8266C73.8766 42.8967 73.656 43.2503 73.4781 43.6126C73.3003 43.9748 73.0696 44.5645 72.9656 44.923C72.7899 45.5284 72.7653 45.5597 72.6208 45.3621C72.5352 45.2451 72.3836 44.8777 72.284 44.5456C72.1799 44.1983 72.1066 43.5923 72.1116 43.1186C72.1165 42.6658 72.1969 42.0882 72.2905 41.835L72.4608 41.3747L72.0564 41.2453C71.8339 41.1742 70.8675 40.8209 69.9087 40.4604C68.9499 40.0998 67.561 39.5411 66.8222 39.2188C66.0833 38.8964 64.7817 38.2833 63.9296 37.8563C63.0776 37.4292 62.3805 37.1124 62.3805 37.1523ZM102.357 37.5267C102.293 37.5906 101.974 37.7115 101.649 37.7954C101.323 37.8793 100.489 38.0237 99.7954 38.1161C99.1014 38.2085 97.8177 38.3364 96.9427 38.4003C96.0676 38.4643 93.8705 38.5165 92.0601 38.5165C90.2497 38.5165 88.0525 38.4643 87.1775 38.4003C86.3025 38.3364 85.0187 38.2085 84.3247 38.1161C83.6307 38.0237 82.7967 37.8793 82.4713 37.7954C82.1459 37.7115 81.8275 37.5906 81.7636 37.5267C81.682 37.4451 84.739 37.4106 92.0601 37.4106C99.3811 37.4106 102.438 37.4451 102.357 37.5267ZM97.2884 40.1575C97.1465 40.2757 96.7762 40.449 96.4655 40.5426C96.1547 40.6363 95.4313 40.7846 94.858 40.8723C94.2741 40.9615 93.0433 41.0317 92.0601 41.0317C91.0769 41.0317 89.846 40.9615 89.2622 40.8723C88.6889 40.7846 87.9655 40.6363 87.6547 40.5426C87.3439 40.449 86.9736 40.2757 86.8317 40.1575L86.574 39.9426H97.5461L97.2884 40.1575ZM108.44 45.2591C108.315 45.6217 108.188 46.3248 108.159 46.8234C108.13 47.3215 108.076 47.7296 108.038 47.7305C108 47.7313 107.859 47.7618 107.723 47.7981C107.489 47.8608 107.476 47.8329 107.478 47.2753C107.479 46.9512 107.551 46.3898 107.638 46.0275C107.726 45.6653 107.799 45.3342 107.801 45.2918C107.803 45.2495 107.57 45.2859 107.284 45.3729C106.811 45.5165 106.75 45.5141 106.626 45.3467C106.55 45.2453 106.488 45.1277 106.488 45.0855C106.488 45.0433 106.896 44.9016 107.394 44.7707C107.892 44.6397 108.348 44.517 108.409 44.498C108.469 44.4789 108.552 44.4941 108.594 44.5319C108.635 44.5697 108.566 44.8969 108.44 45.2591ZM76.6919 44.7266C77.0579 44.8261 77.3946 44.9399 77.4402 44.9794C77.4856 45.0191 77.458 45.1401 77.3787 45.2485C77.257 45.4151 77.173 45.4286 76.8367 45.3357L76.4387 45.2258L76.2193 45.8555L76.6051 45.928C76.8173 45.9678 77.017 46.0682 77.0488 46.1511C77.0806 46.2341 77.0794 46.3729 77.0462 46.4595C76.9977 46.586 76.9061 46.5949 76.5804 46.505C76.2662 46.4182 76.1541 46.426 76.0821 46.5396C76.031 46.6202 75.9885 46.7727 75.9876 46.8787C75.9864 47.0146 76.131 47.11 76.4798 47.2034C76.9026 47.3164 76.9639 47.3678 76.905 47.5597C76.8673 47.683 76.8212 47.8011 76.8026 47.8221C76.784 47.8432 76.4199 47.7706 75.9934 47.6607C75.538 47.5433 75.2179 47.4025 75.2179 47.3196C75.2179 47.2419 75.3741 46.586 75.5651 45.862C75.7562 45.1381 75.9381 44.5456 75.9695 44.5456C76.0007 44.5456 76.3258 44.6271 76.6919 44.7266ZM104.884 45.5061C104.915 45.6117 104.998 46.0052 105.069 46.3805C105.182 46.9758 105.229 47.0599 105.432 47.0392C105.599 47.0221 105.675 47.0853 105.7 47.2624C105.725 47.4345 105.68 47.5094 105.551 47.5094C105.405 47.5094 105.377 47.5893 105.412 47.8969C105.452 48.2327 105.422 48.2934 105.193 48.3509C105.026 48.3928 104.893 48.3614 104.833 48.2652C104.78 48.1815 104.736 48.0212 104.735 47.9089C104.733 47.7328 104.676 47.7149 104.321 47.7791C104.095 47.8202 103.803 47.8792 103.673 47.9105C103.504 47.951 103.423 47.9095 103.391 47.7658C103.367 47.655 103.565 47.1197 103.833 46.5764C104.1 46.033 104.369 45.5267 104.43 45.4512C104.491 45.3758 104.605 45.314 104.684 45.314C104.763 45.314 104.853 45.4005 104.884 45.5061ZM80.1608 45.5913C80.3388 45.6834 80.4837 45.8192 80.4828 45.8932C80.4818 45.967 80.4379 46.0958 80.3851 46.1793C80.3044 46.3065 80.2475 46.3022 80.0331 46.1519C79.8924 46.0533 79.688 45.9726 79.5788 45.9726C79.4697 45.9726 79.3502 46.0514 79.3132 46.1478C79.2683 46.2647 79.3951 46.4595 79.6938 46.7327C79.9402 46.9579 80.1758 47.2786 80.2176 47.4452C80.2725 47.6637 80.2331 47.8292 80.0761 48.0395C79.9565 48.1998 79.7098 48.3736 79.5279 48.4258C79.2783 48.4975 79.0727 48.4655 78.6888 48.2956C78.4091 48.1719 78.1803 48.0036 78.1803 47.9217C78.1803 47.8398 78.2327 47.7205 78.2968 47.6564C78.3788 47.5743 78.5273 47.5981 78.7999 47.7372C79.0126 47.8456 79.2565 47.9075 79.3418 47.8748C79.4271 47.842 79.497 47.7317 79.497 47.6297C79.497 47.5276 79.2995 47.2512 79.0581 47.0154C78.7254 46.6904 78.6192 46.5011 78.6192 46.2328C78.6192 45.9811 78.7028 45.813 78.9083 45.6513C79.0673 45.5262 79.3413 45.4238 79.5173 45.4238C79.6932 45.4238 79.9827 45.4992 80.1608 45.5913ZM82.4595 45.9756C82.8517 46.0366 83.3112 46.1149 83.4806 46.1495C83.7191 46.1982 83.7811 46.2659 83.7549 46.4493C83.7265 46.6491 83.6589 46.6813 83.3227 46.6555L82.9242 46.625L82.8502 47.1495C82.8095 47.4381 82.7239 47.9867 82.6599 48.3688L82.5436 49.0635L82.2549 48.9911C82.0961 48.9512 81.9558 48.9082 81.9431 48.8955C81.9305 48.8829 81.9918 48.4299 82.0796 47.8891C82.1674 47.3482 82.2394 46.8215 82.2396 46.7185C82.2399 46.5915 82.1168 46.5083 81.856 46.4594C81.5937 46.4102 81.472 46.3274 81.472 46.1982C81.472 46.0943 81.5049 45.9763 81.5452 45.9361C81.5853 45.8958 81.6471 45.8632 81.6823 45.8637C81.7175 45.8642 82.0672 45.9145 82.4595 45.9756ZM101.557 46.1955C101.673 46.2576 101.847 46.4603 101.943 46.6459C102.038 46.8315 102.122 47.2375 102.128 47.5483C102.135 47.8926 102.064 48.2557 101.947 48.4786C101.832 48.6983 101.601 48.9085 101.368 49.0061C101.155 49.0953 100.825 49.1531 100.635 49.1347C100.374 49.1093 100.289 49.0475 100.289 48.8815C100.289 48.7073 100.374 48.655 100.698 48.6281C100.98 48.6047 101.175 48.5069 101.329 48.3114C101.451 48.156 101.551 47.9871 101.551 47.9364C101.551 47.8857 101.424 47.8923 101.27 47.9512C101.115 48.0101 100.866 48.0583 100.716 48.0583C100.566 48.0583 100.323 47.937 100.175 47.7888C99.9804 47.5947 99.9052 47.3995 99.9052 47.0903C99.9052 46.7731 99.9805 46.5858 100.194 46.3718C100.409 46.1573 100.595 46.0824 100.915 46.0824C101.152 46.0824 101.441 46.1332 101.557 46.1955ZM92.3721 46.7231C92.4771 47.0152 92.6348 47.3567 92.7226 47.4821C92.8307 47.6364 93.148 47.7727 93.7055 47.9043C94.1583 48.0111 94.5288 48.1404 94.5288 48.1915C94.5288 48.2428 94.4671 48.3051 94.3917 48.3302C94.3163 48.3552 93.9055 48.4765 93.4788 48.5999L92.7032 48.8241L92.4364 49.5115C92.2898 49.8894 92.1204 50.1931 92.0601 50.186C91.9997 50.179 91.8297 49.8826 91.6821 49.5274C91.5345 49.1722 91.4011 48.8633 91.3856 48.841C91.37 48.8187 90.9762 48.6946 90.5105 48.5652C90.0446 48.4356 89.6462 48.2779 89.6251 48.2147C89.6041 48.1512 89.9579 48.0119 90.4124 47.9048C90.9719 47.7729 91.2894 47.6365 91.3976 47.4821C91.4853 47.3567 91.643 47.0152 91.748 46.7231C91.8529 46.4311 91.9934 46.1922 92.0601 46.1922C92.1268 46.1922 92.2672 46.4311 92.3721 46.7231ZM86.7899 46.7388C86.9889 46.8619 87.2131 47.1111 87.2884 47.2926C87.366 47.4801 87.4007 47.8392 87.3686 48.1234C87.3294 48.4712 87.2184 48.7218 87.0042 48.9454C86.8348 49.1224 86.5244 49.3146 86.3145 49.3725C86.1046 49.4305 85.642 49.4475 85.2865 49.4104L84.6402 49.3428L84.6973 48.9475C84.7288 48.7301 84.7833 48.2312 84.8185 47.8387C84.8537 47.4463 84.9079 46.9491 84.939 46.734L84.9955 46.3427L85.7119 46.4289C86.1059 46.4765 86.5911 46.6159 86.7899 46.7388ZM98.1861 46.8782C98.2196 47.0745 98.277 47.6302 98.3135 48.1131C98.3501 48.5961 98.4032 49.1025 98.4315 49.2383C98.4757 49.4504 98.4371 49.4853 98.1584 49.4853C97.8588 49.4853 97.8294 49.4495 97.7762 49.0187C97.7445 48.7622 97.6881 48.2644 97.6508 47.9127C97.5987 47.4204 97.5473 47.2878 97.4275 47.3364C97.3418 47.3712 97.2016 47.4282 97.1157 47.4631C97.0249 47.4999 96.9099 47.4337 96.841 47.3048C96.7368 47.1102 96.7792 47.0491 97.1891 46.8034C97.4459 46.6495 97.7614 46.5231 97.8906 46.5225C98.0699 46.5217 98.1395 46.6055 98.1861 46.8782ZM100.767 46.6014C100.667 46.6243 100.564 46.7286 100.536 46.8333C100.509 46.938 100.527 47.1329 100.576 47.2665C100.626 47.4001 100.757 47.5094 100.868 47.5094C100.979 47.5094 101.16 47.4439 101.269 47.3639C101.408 47.2621 101.445 47.1464 101.392 46.9795C101.351 46.8483 101.234 46.7001 101.132 46.6504C101.031 46.6006 100.866 46.5786 100.767 46.6014ZM104.268 46.8899C104.164 47.1099 104.114 47.2864 104.159 47.2822C104.203 47.2779 104.315 47.2409 104.407 47.1999C104.524 47.1478 104.557 47.0288 104.517 46.8075L104.459 46.49L104.268 46.8899ZM85.493 47.5369C85.455 47.8539 85.4234 48.2736 85.4229 48.4699L85.4219 48.8267H85.8528C86.1877 48.8267 86.3345 48.7622 86.5111 48.5374C86.6362 48.3783 86.7386 48.1337 86.7386 47.9937C86.7386 47.8538 86.6824 47.6159 86.6137 47.4652C86.545 47.3143 86.3402 47.1392 86.1585 47.0758C85.9768 47.0124 85.7682 46.9606 85.6951 46.9606C85.6167 46.9606 85.5339 47.1969 85.493 47.5369Z" fill="#0C0C0C"/>
<path d="M9.1964 61.6606H0V77.5898H2.52049V70.4114H8.94662V68.5883H2.52049V63.5292H9.1964V61.6606Z" fill="#0C0C0C"/>
<path d="M20.5303 66.0816C20.5303 67.4033 19.781 68.839 17.3513 68.839H15.9207V63.3925H17.3513C19.5766 63.3925 20.5076 64.5319 20.5303 66.0132V66.0816ZM23.8228 74.3538C22.6193 72.3484 21.6656 70.7304 20.1443 69.8645C21.8246 69.3403 23.0735 67.9502 23.0735 66.1043C23.0735 63.3469 21.0526 61.6378 17.8508 61.6606H13.4229V77.5898H15.9207V70.6165H16.7836C18.1006 70.6165 18.9408 71.0723 20.9844 74.3082L23.0508 77.5898H25.7983L23.8228 74.3538Z" fill="#0C0C0C"/>
<path d="M32.6912 70.9583L34.4624 66.6057C34.803 65.8081 35.03 65.0789 35.1209 64.6915C35.2117 65.0561 35.4842 65.8081 35.8475 66.6285L37.7776 70.9583H32.6912ZM36.2335 61.6606H34.4624L27.6729 77.5898H29.8528L31.8965 72.7814H38.5951L40.7295 77.5898H43.2955L36.2335 61.6606Z" fill="#0C0C0C"/>
<path d="M55.3056 73.3283C55.3056 70.89 53.8069 69.7049 51.1275 68.1553C49.6969 67.3349 48.4253 66.6057 48.448 65.2612V65.2156C48.448 64.0078 49.4017 63.3013 50.9912 63.3013C52.0585 63.3013 53.3528 63.5064 54.6017 64.6231V62.2759C53.489 61.5238 52.1947 61.3187 50.9912 61.3187C48.0847 61.3187 46.0638 62.9823 46.0638 65.5574C46.0638 67.7451 47.4716 68.9985 49.5153 70.1379C51.6951 71.3685 52.944 72.0977 52.9213 73.6702V73.7613C52.8986 74.9463 51.9903 75.9035 50.2192 75.9035C48.6524 75.9035 47.3581 75.3565 46.0865 74.1715V76.6783C47.1537 77.4075 48.4707 77.8633 50.2873 77.8633C51.5589 77.8633 52.717 77.5442 53.6026 76.8834C54.6925 76.0402 55.2602 74.9463 55.3056 73.5334C55.3056 73.4651 55.3056 73.3967 55.3056 73.3283Z" fill="#0C0C0C"/>
<path d="M69.1506 75.6983H62.0886V70.4114H68.7191V68.5883H62.0886V63.5292H68.9462V61.6606H59.5681V77.5898H69.1506V75.6983Z" fill="#0C0C0C"/>
<path d="M80.4754 66.0816C80.4754 67.4033 79.7261 68.839 77.2964 68.839H75.8659V63.3925H77.2964C79.5217 63.3925 80.4527 64.5319 80.4754 66.0132V66.0816ZM83.768 74.3538C82.5645 72.3484 81.6108 70.7304 80.0894 69.8645C81.7697 69.3403 83.0186 67.9502 83.0186 66.1043C83.0186 63.3469 80.9977 61.6378 77.796 61.6606H73.3681V77.5898H75.8659V70.6165H76.7287C78.0457 70.6165 78.8859 71.0723 80.9296 74.3082L82.9959 77.5898H85.7435L83.768 74.3538Z" fill="#0C0C0C"/>
<path d="M106.426 61.6606L102.293 67.221L98.1831 61.6606H95.2084L100.976 69.3859V77.5898H103.497V69.3859L109.287 61.6606H106.426Z" fill="#0C0C0C"/>
<path d="M114.249 70.9583L116.02 66.6057C116.361 65.8081 116.588 65.0789 116.679 64.6915C116.769 65.0561 117.042 65.8081 117.405 66.6285L119.335 70.9583H114.249ZM117.791 61.6606H116.02L109.231 77.5898H111.411L113.454 72.7814H120.153L122.287 77.5898H124.853L117.791 61.6606Z" fill="#0C0C0C"/>
<path d="M141.097 74.2627C139.622 75.4705 137.964 76.0402 135.898 76.0402C132.219 76.0402 129.721 73.2144 129.721 69.6594C129.721 66.0816 132.219 63.2786 135.898 63.2786C137.964 63.2786 139.622 63.8255 141.097 65.0333V62.5721C139.985 61.8429 138.327 61.3187 135.92 61.3187C130.788 61.3187 127.064 64.851 127.064 69.6594C127.064 74.445 130.788 78 135.92 78C138.327 78 139.985 77.4531 141.097 76.7238V74.2627Z" fill="#0C0C0C"/>
<path d="M158.608 61.6606H156.087V68.5883H147.526V61.6606H145.029V77.5898H147.526V70.4114H156.087V77.5898H158.608V61.6606Z" fill="#0C0C0C"/>
<path d="M174.904 61.6378H162.142V63.5292H167.274V77.5898H169.795V63.5292H174.904V61.6378Z" fill="#0C0C0C"/>
<path d="M187 73.3283C187 70.89 185.501 69.7049 182.822 68.1553C181.391 67.3349 180.12 66.6057 180.142 65.2612V65.2156C180.142 64.0078 181.096 63.3013 182.686 63.3013C183.753 63.3013 185.047 63.5064 186.296 64.6231V62.2759C185.183 61.5238 183.889 61.3187 182.686 61.3187C179.779 61.3187 177.758 62.9823 177.758 65.5574C177.758 67.7451 179.166 68.9985 181.21 70.1379C183.39 71.3685 184.638 72.0977 184.616 73.6702V73.7613C184.593 74.9463 183.685 75.9035 181.914 75.9035C180.347 75.9035 179.053 75.3565 177.781 74.1715V76.6783C178.848 77.4075 180.165 77.8633 181.982 77.8633C183.253 77.8633 184.411 77.5442 185.297 76.8834C186.387 76.0402 186.955 74.9463 187 73.5334C187 73.4651 187 73.3967 187 73.3283Z" fill="#0C0C0C"/>
</svg>
