<svg width="858" height="71" viewBox="0 0 858 71" fill="none" xmlns="http://www.w3.org/2000/svg">
<path d="M70.9396 25.5785L94.3526 0H67.8199L48.85 24.8723C47.0536 27.0088 43.5745 28.5577 40.9279 28.5577H36.4908V0H0V68.4803H36.371V47.4716H42.1374C44.7781 47.4716 46.0955 48.1896 47.5386 50.8068L57.7421 68.4803H101.676L81.2689 34.1482C79.5863 31.2995 75.0234 28.9138 70.2271 28.9138C69.0295 28.9138 67.8199 29.0384 70.9396 25.5785Z" fill="#D5BFAA"/>
<path d="M113.43 68.4091H147.771V28.6764H113.43V68.4091Z" fill="#D5BFAA"/>
<path d="M131.167 25.3292C140.664 24.6646 148.053 19.7684 147.676 14.3916C147.286 9.02072 139.28 5.19285 129.79 5.85753C120.293 6.52222 112.903 11.4183 113.287 16.7833C113.67 22.1601 121.676 25.9821 131.167 25.3292Z" fill="#D5BFAA"/>
<path d="M161.208 28.4331H172.735V15.1097H205.142V28.4331H218.591V41.5191H205.627V49.3707C205.627 57.2222 214.747 56.7415 218.825 53.1867V64.3617C206.346 69.8334 185.819 71.2637 177.538 65.6673C173.214 62.7 172.735 60.3142 172.735 56.7415V41.7564H161.208" fill="#D5BFAA"/>
<path d="M297.693 30.7001C279.926 21.8931 255.735 23.442 243.801 29.8693C224.651 40.16 224.945 56.9552 243.555 66.5041C256.998 73.4121 288.926 71.5011 297.573 63.6495V52.5932C284.854 59.0145 276.004 58.0828 270.687 56.2786C262.405 53.4775 262.208 41.893 272.842 39.8574C279.681 38.5517 288.333 38.6704 297.693 43.5487" fill="#D5BFAA"/>
<path d="M309.219 5.72104V68.4151H341.507V49.1333C341.986 36.9968 357.357 39.2579 357.357 48.1896V68.4151H389.518V43.6734C389.518 32.0058 368.399 18.9198 341.752 32.2372L342.225 5.72104" fill="#D5BFAA"/>
<path d="M493.47 28.5577V68.4091H528.044V46.9968C528.044 39.614 543.643 36.0532 543.643 47.2342V68.1717H574.14V43.9048C574.14 32.5221 557.739 17.8278 528.044 32.9612V28.5577" fill="#D5BFAA"/>
<path d="M697.181 68.3676H731.51V28.6408H697.181V68.3676Z" fill="#D5BFAA"/>
<path d="M714.923 25.2877C724.414 24.6289 731.797 19.7388 731.42 14.3501C731.043 8.97918 723.031 5.15724 713.534 5.82193C704.043 6.48068 696.66 11.3768 697.043 16.7477C697.414 22.1304 705.42 25.9524 714.923 25.2877Z" fill="#D5BFAA"/>
<path fill-rule="evenodd" clip-rule="evenodd" d="M842.533 17.3115V12.8308H845.551C847.084 12.8308 848.725 13.1691 848.725 14.9554C848.725 17.175 847.054 17.3115 845.186 17.3115H842.533ZM845.216 30.7476C852.108 30.7476 858 25.4361 858 18.1779C858 10.9792 852.108 5.66763 845.216 5.66763C838.246 5.66763 832.365 10.9792 832.365 18.1779C832.365 25.4361 838.246 30.7476 845.216 30.7476ZM834.904 18.1779C834.904 12.2373 839.425 7.75663 845.216 7.75663C850.94 7.75663 855.461 12.2373 855.461 18.1779C855.461 24.2135 850.94 28.6586 845.216 28.6586C839.425 28.6586 834.904 24.2135 834.904 18.1779ZM842.533 19.169H845.078L848.934 25.4361H851.407L847.252 19.0741C849.395 18.807 851.036 17.6735 851.036 15.0919C851.036 12.2373 849.335 10.9792 845.88 10.9792H840.329V25.4361H842.533" fill="#D5BFAA"/>
<path fill-rule="evenodd" clip-rule="evenodd" d="M437.937 42.9671H450.787C450.997 38.9197 447.53 36.8959 443.853 36.8959C440.781 36.8959 437.937 39.5191 437.937 42.9671ZM481.715 53.1867C459.871 51.519 436.578 52.9433 436.578 52.9433C443.296 63.8869 470.673 62.2252 479.787 55.0858L478.829 64.3617C460.584 75.0738 404.889 74.599 403.925 49.614C403.075 27.5547 436.099 24.3916 443.296 24.3916C460.338 24.3916 485.308 32.2432 481.715 53.1867Z" fill="#D5BFAA"/>
<path fill-rule="evenodd" clip-rule="evenodd" d="M614.235 41.0502L624.313 22.4865L632.475 41.0502H614.235ZM581.703 68.237H600.427L608.475 52.9493H637.762L644.732 68.237H689.133L654.564 0.130563H610.385C614.714 1.79821 615.912 4.64686 614.714 7.02073" fill="#D5BFAA"/>
<path fill-rule="evenodd" clip-rule="evenodd" d="M793.042 43.0621C787.264 38.8128 776.168 39.8752 776.168 46.6763C776.168 56.4448 789.348 54.7415 793.042 51.7683V43.0621ZM825.503 5.82786V68.1717H793.096V63.8869C777.013 76.2607 740.989 69.5961 740.989 49.614C740.989 25.0978 780.12 21.7744 793.324 30.3381V5.82786" fill="#D5BFAA"/>
</svg>
