<svg width="131" height="47" viewBox="0 0 131 47" fill="none" xmlns="http://www.w3.org/2000/svg">
<path fill-rule="evenodd" clip-rule="evenodd" d="M16.7804 2.08415C8.25596 12.0637 0.0826231 24.4393 0.000665401 33.6896C-0.031255 37.17 1.08337 40.2085 3.75692 42.5099C7.60461 45.8243 11.844 46.9931 16.0626 47C22.2276 47.0086 28.3494 44.5292 33.1426 42.6174C41.215 39.3992 130.448 0.770053 130.448 0.770053C131.309 0.340047 131.148 -0.195737 130.07 0.0717267C129.635 0.180088 32.9261 26.3064 32.9261 26.3064C31.0942 26.8228 29.2014 27.093 27.2978 27.1096C19.8655 27.1535 13.2519 23.0409 13.3054 14.3746C13.3261 10.9836 14.3674 6.8942 16.7804 2.08415Z" fill="#0C0C0C"/>
</svg>
