<svg width="649" height="136" viewBox="0 0 649 136" fill="none" xmlns="http://www.w3.org/2000/svg">
<path d="M0 2.94055V133.795H44.3487C64.1209 133.795 79.8277 128.097 91.654 116.335C103.111 104.757 108.839 88.7676 108.839 68.3676C108.839 47.7838 103.111 31.7946 91.654 20.2162C80.0125 8.82163 64.3056 2.94055 44.3487 2.94055H0ZM15.522 119.827V16.9081H44.3487C59.8708 16.9081 71.6971 21.5027 80.0125 30.5081C88.3279 39.6973 92.578 52.1946 92.578 68.3676C92.578 84.5406 88.3279 97.2216 80.0125 106.227C71.6971 115.416 59.8708 119.827 44.3487 119.827H15.522Z" fill="#D5BFAA"/>
<path d="M194.827 122.4C203.327 113.578 207.762 101.449 207.762 86.3784C207.762 71.3081 203.327 59.3622 194.827 50.3568C185.957 41.3514 174.87 36.7568 161.565 36.7568C148.076 36.7568 136.989 41.3514 128.304 50.3568C119.619 59.3622 115.369 71.3081 115.369 86.3784C115.369 101.449 119.619 113.578 128.304 122.4C136.989 131.589 148.076 136 161.565 136C174.87 136 185.957 131.589 194.827 122.4ZM139.206 113.027C133.663 106.778 130.891 97.773 130.891 86.3784C130.891 74.9838 133.663 65.9784 139.206 59.546C144.75 53.2973 152.141 49.9892 161.565 49.9892C170.805 49.9892 178.381 53.2973 183.924 59.546C189.468 65.9784 192.24 74.9838 192.24 86.3784C192.24 97.773 189.468 106.778 183.924 113.027C178.381 119.643 170.805 122.768 161.565 122.768C152.141 122.768 144.75 119.643 139.206 113.027Z" fill="#D5BFAA"/>
<path d="M261.962 36.7568C249.212 36.7568 239.233 42.2703 232.027 53.1135V38.9622H217.983V133.795H232.766V80.1297C232.766 70.3892 235.353 62.8541 240.712 57.7081C245.886 52.5622 251.984 49.9892 259.005 49.9892C273.419 49.9892 280.81 57.1568 280.81 71.1243V133.795H295.593V69.6541C295.593 59.3622 292.637 51.2757 286.723 45.3946C280.81 39.6973 272.495 36.7568 261.962 36.7568Z" fill="#D5BFAA"/>
<path d="M342.764 120.93C335.373 120.93 328.536 121.114 322.438 121.297C322.807 120.746 324.47 118.724 327.427 115.049C330.199 111.557 332.601 108.432 334.818 105.859L378.428 49.9892V38.9622H305.807V51.827H339.623C347.014 51.827 353.667 51.827 359.949 51.4595C359.395 52.1946 357.732 54.2162 354.96 57.7081C352.004 61.3838 349.601 64.3243 347.569 66.8973L303.959 122.768V133.795H381.015V120.93H342.764Z" fill="#D5BFAA"/>
<path d="M466.99 86.3784C466.99 72.227 463.109 60.4649 455.348 50.9081C447.587 41.5351 436.87 36.7568 423.195 36.7568C409.891 36.7568 399.358 41.3514 391.412 50.3568C383.282 59.546 379.216 71.4919 379.216 86.3784C379.216 101.632 383.282 113.762 391.597 122.584C399.728 131.589 410.26 136 423.565 136C434.283 136 443.152 133.243 450.174 127.73C457.196 122.216 462.001 114.497 464.588 104.941H449.25C445.555 116.703 437.054 122.584 423.935 122.584C415.065 122.584 408.228 120.011 403.239 114.865C398.065 109.719 395.293 101.816 394.554 91.5243H466.99V86.3784ZM423.195 50.173C431.141 50.173 437.609 52.9297 442.598 58.0757C447.402 63.2216 450.359 70.0216 451.098 78.2919H394.923C396.032 69.2865 399.173 62.3027 404.162 57.5243C408.967 52.7459 415.434 50.173 423.195 50.173Z" fill="#D5BFAA"/>
<path d="M491.922 133.795V2.94055H477.139V133.795H491.922Z" fill="#D5BFAA"/>
<path d="M521.523 133.795V2.94055H506.741V133.795H521.523Z" fill="#D5BFAA"/>
<path d="M551.495 24.627V6.61622H535.788V24.627H551.495ZM551.125 133.795V38.9622H536.342V133.795H551.125Z" fill="#D5BFAA"/>
<path d="M571.759 12.6811C562.89 21.1351 558.64 31.427 558.64 43.5568C558.64 55.6865 562.89 65.9784 571.759 74.4324C580.444 82.8865 591.162 87.1135 603.912 87.1135C616.478 87.1135 627.195 82.8865 636.065 74.4324C644.565 65.9784 649 55.6865 649 43.5568C649 31.427 644.565 21.1351 636.065 12.6811C627.195 4.22703 616.478 0 603.912 0C591.162 0 580.444 4.22703 571.759 12.6811ZM603.912 78.4757C593.564 78.4757 584.879 75.1676 578.227 68.3676C571.205 61.5676 567.879 53.2973 567.879 43.5568C567.879 33.8162 571.205 25.5459 578.227 18.5622C584.879 11.9459 593.564 8.45405 603.912 8.45405C614.075 8.45405 622.576 11.9459 629.413 18.5622C636.25 25.5459 639.761 33.8162 639.761 43.5568C639.761 53.2973 636.25 61.5676 629.413 68.3676C622.576 75.1676 614.075 78.4757 603.912 78.4757ZM621.467 52.3784C621.097 47.9676 619.249 45.027 615.923 43.7405C620.358 41.9027 622.76 38.227 622.76 32.7135C622.76 28.6703 621.282 25.3622 618.325 23.1568C615.369 20.9514 611.488 19.6649 606.314 19.6649H586.357V66.346H594.488V47.6H607.238C609.456 47.6 610.934 48.1514 611.858 49.0703C612.782 50.173 613.336 51.827 613.706 54.4L614.075 59.1784C614.075 62.4865 614.815 64.8757 615.923 66.346H624.239C622.76 64.3243 622.021 61.9351 622.021 59.1784L621.467 52.3784ZM594.488 40.2487V27.0162H606.314C611.673 27.0162 614.445 29.2216 614.445 33.6324C614.445 38.0432 611.858 40.2487 607.053 40.2487H594.488Z" fill="#D5BFAA"/>
</svg>
