<svg width="480" height="173" viewBox="0 0 480 173" fill="none" xmlns="http://www.w3.org/2000/svg">
<path fill-rule="evenodd" clip-rule="evenodd" d="M61.4855 7.67145C30.2509 44.4048 0.302741 89.9574 0.00243811 124.006C-0.114522 136.817 3.9696 148.001 13.7658 156.472C27.8642 168.673 43.3978 172.975 58.8555 173C81.4446 173.032 103.876 163.905 121.439 156.868C151.017 145.023 477.977 2.83445 477.977 2.83445C481.132 1.25166 480.541 -0.720478 476.593 0.264015C475 0.662878 120.645 96.8299 120.645 96.8299C113.933 98.7309 106.997 99.7252 100.022 99.7865C72.7896 99.9479 48.5567 84.8102 48.7527 52.9107C48.8285 40.4288 52.644 25.3765 61.4855 7.67145Z" fill="#D5BFAA"/>
</svg>
