<svg width="187" height="15" viewBox="0 0 187 15" fill="none" xmlns="http://www.w3.org/2000/svg">
<path d="M15.4612 5.40391L20.564 0H14.7813L10.6468 5.2547C10.2553 5.70607 9.49702 6.03332 8.92017 6.03332H7.95311V0H0V14.4677H7.92701V10.0292H9.1838C9.75934 10.0292 10.0465 10.1809 10.361 10.7338L12.5848 14.4677H22.1601L17.7125 7.2144C17.3457 6.61258 16.3513 6.10855 15.3059 6.10855C15.0449 6.10855 14.7813 6.13488 15.4612 5.40391Z" fill="#0C0C0C"/>
<path d="M24.722 14.4526H32.2066V6.0584H24.722V14.4526Z" fill="#0C0C0C"/>
<path d="M28.5876 5.35125C30.6575 5.21082 32.2679 4.17643 32.1857 3.04048C32.1009 1.90579 30.356 1.09708 28.2875 1.23751C26.2176 1.37793 24.6072 2.41232 24.6907 3.54577C24.7742 4.68172 26.5191 5.48917 28.5876 5.35125Z" fill="#0C0C0C"/>
<path d="M35.1352 6.00699H37.6474V3.19219H44.7105V6.00699H47.6417V8.77163H44.8162V10.4304C44.8162 12.0892 46.8038 11.9876 47.6926 11.2366V13.5975C44.9728 14.7535 40.499 15.0557 38.6941 13.8734C37.7518 13.2465 37.6474 12.7424 37.6474 11.9876V8.82178H35.1352" fill="#0C0C0C"/>
<path d="M64.8817 6.48594C61.0096 4.62529 55.7371 4.95254 53.136 6.31041C48.9624 8.48451 49.0264 12.0328 53.0825 14.0502C56.0124 15.5096 62.9711 15.1059 64.8556 13.4471V11.1112C62.0836 12.4679 60.1547 12.271 58.9958 11.8899C57.1909 11.2981 57.1478 8.85062 59.4657 8.42057C60.956 8.14473 62.8419 8.1698 64.8817 9.20043" fill="#0C0C0C"/>
<path d="M67.394 1.20867V14.4539H74.4309V10.3803C74.5353 7.81623 77.8855 8.29393 77.8855 10.1809V14.4539H84.895V9.22676C84.895 6.76178 80.292 3.99714 74.4844 6.81068L74.5875 1.20867" fill="#0C0C0C"/>
<path d="M107.551 6.03332V14.4526H115.087V9.9289C115.087 8.36916 118.486 7.61688 118.486 9.97905V14.4025H125.133V9.27566C125.133 6.87086 121.558 3.76644 115.087 6.96364V6.03332" fill="#0C0C0C"/>
<path d="M151.95 14.4439H159.432V6.05087H151.95V14.4439Z" fill="#0C0C0C"/>
<path d="M155.817 5.34247C157.885 5.2033 159.494 4.17016 159.412 3.0317C159.33 1.89701 157.584 1.08956 155.514 1.22998C153.445 1.36916 151.836 2.40355 151.92 3.53824C152.001 4.67545 153.745 5.4829 155.817 5.34247Z" fill="#0C0C0C"/>
<path fill-rule="evenodd" clip-rule="evenodd" d="M183.629 3.65735V2.71073H184.287C184.621 2.71073 184.978 2.7822 184.978 3.15959C184.978 3.62852 184.614 3.65735 184.207 3.65735H183.629ZM184.214 6.49597C185.716 6.49597 187 5.37382 187 3.84041C187 2.31954 185.716 1.19739 184.214 1.19739C182.695 1.19739 181.413 2.31954 181.413 3.84041C181.413 5.37382 182.695 6.49597 184.214 6.49597ZM181.966 3.84041C181.966 2.58535 182.952 1.63873 184.214 1.63873C185.461 1.63873 186.447 2.58535 186.447 3.84041C186.447 5.11553 185.461 6.05463 184.214 6.05463C182.952 6.05463 181.966 5.11553 181.966 3.84041ZM183.629 4.0498H184.184L185.024 5.37382H185.563L184.657 4.02974C185.125 3.97331 185.482 3.73384 185.482 3.18843C185.482 2.58535 185.112 2.31954 184.359 2.31954H183.149V5.37382H183.629" fill="#0C0C0C"/>
<path fill-rule="evenodd" clip-rule="evenodd" d="M95.4478 9.07756H98.2485C98.2942 8.22247 97.5385 7.79492 96.7372 7.79492C96.0677 7.79492 95.4478 8.3491 95.4478 9.07756ZM104.989 11.2366C100.228 10.8843 95.1516 11.1852 95.1516 11.1852C96.6159 13.4972 102.583 13.1462 104.569 11.6378L104.36 13.5975C100.384 15.8607 88.2451 15.7604 88.035 10.4818C87.8497 5.82143 95.0472 5.15315 96.6159 5.15315C100.33 5.15315 105.772 6.81193 104.989 11.2366Z" fill="#0C0C0C"/>
<path fill-rule="evenodd" clip-rule="evenodd" d="M133.872 8.67258L136.068 4.75067L137.847 8.67258H133.872ZM126.781 14.4163H130.862L132.616 11.1865H138.999L140.519 14.4163H150.196L142.661 0.0275838H133.033C133.976 0.379903 134.237 0.981731 133.976 1.48325" fill="#0C0C0C"/>
<path fill-rule="evenodd" clip-rule="evenodd" d="M172.843 9.09762C171.583 8.1999 169.165 8.42433 169.165 9.86119C169.165 11.925 172.037 11.5651 172.843 10.937V9.09762ZM179.917 1.23124V14.4025H172.854V13.4972C169.349 16.1114 161.498 14.7034 161.498 10.4818C161.498 5.30235 170.026 4.60022 172.904 6.40946V1.23124" fill="#0C0C0C"/>
</svg>
