<svg width="187" height="41" viewBox="0 0 187 41" fill="none" xmlns="http://www.w3.org/2000/svg">
<path d="M77.769 8.2V32.8H73.6146V13.4958H73.5592L66.1368 32.8H63.3673L55.7787 13.4958H55.7233V32.8H51.9014V8.2H57.8836L64.7521 26.4222H64.8629L72.1191 8.2H77.769ZM81.2032 10.0792C81.2032 9.39583 81.4248 8.82639 81.9233 8.37083C82.4218 7.91528 82.9757 7.6875 83.6404 7.6875C84.3605 7.6875 84.9698 7.91528 85.4129 8.37083C85.856 8.82639 86.133 9.39583 86.133 10.0792C86.133 10.7625 85.9114 11.3319 85.4129 11.7875C84.9144 12.2431 84.3605 12.4708 83.6404 12.4708C82.9203 12.4708 82.3664 12.2431 81.9233 11.7875C81.4801 11.275 81.2032 10.7056 81.2032 10.0792ZM85.6899 15.1472V32.8H81.6463V15.1472H85.6899ZM97.9313 29.7819C98.5406 29.7819 99.2053 29.6681 99.9254 29.3264C100.645 29.0417 101.31 28.6431 101.919 28.1875V32.0597C101.255 32.4583 100.535 32.7431 99.7038 32.9139C98.8729 33.0847 97.9867 33.1986 96.9896 33.1986C94.4417 33.1986 92.3922 32.4014 90.8412 30.75C89.2349 29.0986 88.4594 26.9917 88.4594 24.4861C88.4594 21.6389 89.2903 19.3042 90.8966 17.4819C92.503 15.6597 94.774 14.7486 97.7651 14.7486C98.5406 14.7486 99.3161 14.8625 100.036 15.0333C100.812 15.2042 101.421 15.4889 101.864 15.7167V19.7028C101.255 19.2472 100.59 18.8486 99.9808 18.6208C99.3161 18.3931 98.6514 18.2222 97.9867 18.2222C96.3803 18.2222 95.1063 18.7347 94.1093 19.8167C93.1123 20.8986 92.6691 22.3222 92.6691 24.1444C92.6691 25.9097 93.1676 27.3333 94.1093 28.3014C95.0509 29.2694 96.3249 29.7819 97.9313 29.7819ZM113.385 14.8625C113.718 14.8625 113.995 14.8625 114.272 14.9194C114.549 14.9764 114.77 15.0333 114.936 15.0903V19.3042C114.715 19.1333 114.438 18.9625 113.995 18.8486C113.552 18.7347 113.108 18.6208 112.499 18.6208C111.502 18.6208 110.671 19.0764 110.007 19.9306C109.342 20.7847 108.954 22.0944 108.954 23.9167V32.8H104.911V15.1472H108.954V17.9375H109.009C109.397 16.9694 109.951 16.2292 110.671 15.6597C111.447 15.1472 112.333 14.8625 113.385 14.8625ZM115.158 24.2583C115.158 21.3542 115.989 19.0194 117.54 17.3111C119.146 15.6028 121.362 14.7486 124.187 14.7486C126.845 14.7486 128.95 15.5458 130.446 17.1972C131.941 18.8486 132.717 21.0694 132.717 23.8597C132.717 26.7069 131.886 28.9847 130.335 30.6931C128.729 32.4014 126.568 33.2556 123.799 33.2556C121.14 33.2556 119.035 32.4583 117.484 30.8639C115.933 29.2125 115.158 26.9917 115.158 24.2583ZM119.368 24.0875C119.368 25.9097 119.755 27.3333 120.586 28.3014C121.417 29.2694 122.58 29.7819 124.076 29.7819C125.516 29.7819 126.679 29.3264 127.455 28.3014C128.23 27.3333 128.618 25.9097 128.618 23.9736C128.618 22.0944 128.23 20.6708 127.455 19.6458C126.679 18.6778 125.516 18.1653 124.131 18.1653C122.636 18.1653 121.528 18.6778 120.697 19.7028C119.755 20.7847 119.368 22.2083 119.368 24.0875ZM138.754 19.8167C138.754 20.3861 138.921 20.8986 139.308 21.2403C139.696 21.5819 140.472 21.9806 141.746 22.4931C143.352 23.1764 144.515 23.9167 145.124 24.7139C145.789 25.5681 146.121 26.5361 146.121 27.7319C146.121 29.3833 145.512 30.6931 144.238 31.7181C143.02 32.7431 141.302 33.1986 139.198 33.1986C138.477 33.1986 137.702 33.0847 136.816 32.9139C135.93 32.7431 135.209 32.5153 134.6 32.2306V28.1306C135.32 28.6431 136.151 29.0986 136.982 29.3833C137.813 29.6681 138.588 29.8389 139.308 29.8389C140.195 29.8389 140.915 29.725 141.302 29.4403C141.746 29.1556 141.967 28.7569 141.967 28.1306C141.967 27.5611 141.746 27.1056 141.302 26.65C140.859 26.2514 139.973 25.7958 138.754 25.2833C137.259 24.6569 136.206 23.9167 135.597 23.1194C134.988 22.3222 134.656 21.2972 134.656 20.0444C134.656 18.45 135.265 17.1403 136.483 16.1153C137.702 15.0903 139.308 14.5778 141.247 14.5778C141.856 14.5778 142.521 14.6347 143.241 14.8056C143.961 14.9764 144.626 15.1472 145.124 15.3181V19.3611C144.57 19.0194 143.961 18.6778 143.241 18.3931C142.521 18.1083 141.801 17.9944 141.136 17.9944C140.361 17.9944 139.751 18.1653 139.364 18.45C138.976 18.8486 138.754 19.2472 138.754 19.8167ZM147.839 24.2583C147.839 21.3542 148.669 19.0194 150.22 17.3111C151.827 15.6028 154.042 14.7486 156.867 14.7486C159.526 14.7486 161.631 15.5458 163.126 17.1972C164.622 18.8486 165.398 21.0694 165.398 23.8597C165.398 26.7069 164.567 28.9847 163.016 30.6931C161.409 32.4014 159.249 33.2556 156.48 33.2556C153.821 33.2556 151.716 32.4583 150.165 30.8639C148.669 29.2125 147.839 26.9917 147.839 24.2583ZM152.048 24.0875C152.048 25.9097 152.436 27.3333 153.267 28.3014C154.098 29.2694 155.261 29.7819 156.757 29.7819C158.197 29.7819 159.36 29.3264 160.135 28.3014C160.911 27.3333 161.299 25.9097 161.299 23.9736C161.299 22.0944 160.911 20.6708 160.135 19.6458C159.36 18.6778 158.197 18.1653 156.812 18.1653C155.316 18.1653 154.209 18.6778 153.378 19.7028C152.491 20.7847 152.048 22.2083 152.048 24.0875ZM178.858 18.5639H172.82V32.8H168.721V18.5639H165.841V15.1472H168.721V12.6986C168.721 10.8764 169.33 9.33889 170.493 8.14305C171.657 6.94722 173.152 6.37778 174.98 6.37778C175.479 6.37778 175.922 6.43472 176.31 6.43472C176.697 6.43472 177.03 6.54861 177.307 6.6625V10.25C177.196 10.1931 176.919 10.0792 176.586 9.96528C176.254 9.85139 175.866 9.79444 175.423 9.79444C174.592 9.79444 173.928 10.0792 173.485 10.5917C173.041 11.1042 172.82 11.9583 172.82 12.9833V15.0903H178.858V11.1042L182.901 9.85139V15.0903H187V18.5069H182.901V26.7639C182.901 27.8458 183.123 28.5861 183.455 29.0417C183.843 29.4972 184.452 29.725 185.283 29.725C185.504 29.725 185.781 29.6681 186.114 29.5542C186.446 29.4403 186.723 29.3264 186.945 29.1556V32.5722C186.668 32.7431 186.28 32.8569 185.671 32.9708C185.061 33.0847 184.507 33.1417 183.898 33.1417C182.181 33.1417 180.907 32.6861 180.076 31.775C179.245 30.8639 178.802 29.4403 178.802 27.5611L178.858 18.5639Z" fill="#0C0C0C"/>
<path d="M18.9437 0H0V19.475H18.9437V0Z" fill="#0C0C0C"/>
<path d="M39.8815 0H20.9378V19.475H39.8815V0Z" fill="#0C0C0C"/>
<path d="M18.9437 21.525H0V41H18.9437V21.525Z" fill="#0C0C0C"/>
<path d="M39.8815 21.525H20.9378V41H39.8815V21.525Z" fill="#0C0C0C"/>
</svg>
