<svg width="752" height="160" viewBox="0 0 752 160" fill="none" xmlns="http://www.w3.org/2000/svg">
<path d="M312.739 32V128H296.033V52.6667H295.81L265.962 128H254.825L224.308 52.6667H224.085V128H208.716V32H232.773L260.393 103.111H260.839L290.019 32H312.739ZM326.55 39.3333C326.55 36.6667 327.441 34.4444 329.445 32.6667C331.45 30.8889 333.678 30 336.351 30C339.246 30 341.697 30.8889 343.479 32.6667C345.261 34.4444 346.374 36.6667 346.374 39.3333C346.374 42 345.483 44.2222 343.479 46C341.474 47.7778 339.246 48.6667 336.351 48.6667C333.455 48.6667 331.227 47.7778 329.445 46C327.663 44 326.55 41.7778 326.55 39.3333ZM344.592 59.1111V128H328.332V59.1111H344.592ZM393.82 116.222C396.27 116.222 398.943 115.778 401.839 114.444C404.735 113.333 407.408 111.778 409.858 110V125.111C407.185 126.667 404.289 127.778 400.948 128.444C397.607 129.111 394.043 129.556 390.033 129.556C379.787 129.556 371.545 126.444 365.308 120C358.848 113.556 355.73 105.333 355.73 95.5556C355.73 84.4444 359.071 75.3333 365.531 68.2222C371.991 61.1111 381.123 57.5556 393.152 57.5556C396.27 57.5556 399.389 58 402.284 58.6667C405.403 59.3333 407.853 60.4445 409.635 61.3333V76.8889C407.185 75.1111 404.512 73.5556 402.062 72.6667C399.389 71.7778 396.716 71.1111 394.043 71.1111C387.583 71.1111 382.46 73.1111 378.45 77.3333C374.441 81.5556 372.659 87.1111 372.659 94.2222C372.659 101.111 374.663 106.667 378.45 110.444C382.237 114.222 387.36 116.222 393.82 116.222ZM455.967 58C457.303 58 458.417 58 459.531 58.2222C460.645 58.4444 461.536 58.6667 462.204 58.8889V75.3333C461.313 74.6667 460.199 74 458.417 73.5556C456.635 73.1111 454.853 72.6667 452.403 72.6667C448.393 72.6667 445.052 74.4444 442.379 77.7778C439.706 81.1111 438.147 86.2222 438.147 93.3333V128H421.886V59.1111H438.147V70H438.37C439.929 66.2222 442.156 63.3333 445.052 61.1111C448.171 59.1111 451.735 58 455.967 58ZM463.095 94.6667C463.095 83.3333 466.436 74.2222 472.673 67.5556C479.133 60.8889 488.043 57.5556 499.403 57.5556C510.095 57.5556 518.559 60.6667 524.573 67.1111C530.588 73.5556 533.706 82.2222 533.706 93.1111C533.706 104.222 530.365 113.111 524.128 119.778C517.668 126.444 508.981 129.778 497.844 129.778C487.152 129.778 478.687 126.667 472.45 120.444C466.213 114 463.095 105.333 463.095 94.6667ZM480.024 94C480.024 101.111 481.583 106.667 484.924 110.444C488.265 114.222 492.943 116.222 498.957 116.222C504.749 116.222 509.427 114.444 512.545 110.444C515.663 106.667 517.223 101.111 517.223 93.5556C517.223 86.2222 515.663 80.6667 512.545 76.6667C509.427 72.8889 504.749 70.8889 499.18 70.8889C493.166 70.8889 488.711 72.8889 485.37 76.8889C481.583 81.1111 480.024 86.6667 480.024 94ZM557.986 77.3333C557.986 79.5556 558.654 81.5556 560.213 82.8889C561.772 84.2222 564.891 85.7778 570.014 87.7778C576.474 90.4444 581.152 93.3333 583.602 96.4445C586.275 99.7778 587.611 103.556 587.611 108.222C587.611 114.667 585.161 119.778 580.038 123.778C575.137 127.778 568.232 129.556 559.768 129.556C556.872 129.556 553.754 129.111 550.19 128.444C546.626 127.778 543.73 126.889 541.28 125.778V109.778C544.175 111.778 547.517 113.556 550.858 114.667C554.199 115.778 557.318 116.444 560.213 116.444C563.777 116.444 566.673 116 568.232 114.889C570.014 113.778 570.905 112.222 570.905 109.778C570.905 107.556 570.014 105.778 568.232 104C566.45 102.444 562.886 100.667 557.986 98.6667C551.972 96.2222 547.739 93.3333 545.289 90.2222C542.839 87.1111 541.502 83.1111 541.502 78.2222C541.502 72 543.953 66.8889 548.853 62.8889C553.754 58.8889 560.213 56.8889 568.009 56.8889C570.46 56.8889 573.133 57.1111 576.028 57.7778C578.924 58.4444 581.597 59.1111 583.602 59.7778V75.5556C581.374 74.2222 578.924 72.8889 576.028 71.7778C573.133 70.6667 570.237 70.2222 567.564 70.2222C564.445 70.2222 561.995 70.8889 560.436 72C558.877 73.5556 557.986 75.1111 557.986 77.3333ZM594.517 94.6667C594.517 83.3333 597.858 74.2222 604.095 67.5556C610.554 60.8889 619.464 57.5556 630.825 57.5556C641.517 57.5556 649.981 60.6667 655.995 67.1111C662.009 73.5556 665.128 82.2222 665.128 93.1111C665.128 104.222 661.787 113.111 655.55 119.778C649.09 126.444 640.403 129.778 629.265 129.778C618.573 129.778 610.109 126.667 603.872 120.444C597.858 114 594.517 105.333 594.517 94.6667ZM611.445 94C611.445 101.111 613.005 106.667 616.346 110.444C619.687 114.222 624.365 116.222 630.379 116.222C636.171 116.222 640.848 114.444 643.967 110.444C647.085 106.667 648.645 101.111 648.645 93.5556C648.645 86.2222 647.085 80.6667 643.967 76.6667C640.848 72.8889 636.171 70.8889 630.602 70.8889C624.588 70.8889 620.133 72.8889 616.791 76.8889C613.227 81.1111 611.445 86.6667 611.445 94ZM719.256 72.4444H694.976V128H678.493V72.4444H666.91V59.1111H678.493V49.5556C678.493 42.4444 680.943 36.4444 685.621 31.7778C690.299 27.1111 696.313 24.8889 703.663 24.8889C705.668 24.8889 707.45 25.1111 709.009 25.1111C710.569 25.1111 711.905 25.5556 713.019 26V40C712.573 39.7778 711.46 39.3333 710.123 38.8889C708.787 38.4444 707.227 38.2222 705.445 38.2222C702.104 38.2222 699.431 39.3333 697.649 41.3333C695.867 43.3333 694.976 46.6667 694.976 50.6667V58.8889H719.256V43.3333L735.517 38.4444V58.8889H752V72.2222H735.517V104.444C735.517 108.667 736.408 111.556 737.744 113.333C739.303 115.111 741.754 116 745.095 116C745.986 116 747.099 115.778 748.436 115.333C749.772 114.889 750.886 114.444 751.777 113.778V127.111C750.663 127.778 749.104 128.222 746.654 128.667C744.204 129.111 741.976 129.333 739.526 129.333C732.621 129.333 727.498 127.556 724.156 124C720.815 120.444 719.033 114.889 719.033 107.556L719.256 72.4444Z" fill="#D5BFAA"/>
<path d="M76.1801 0H0V76H76.1801V0Z" fill="#D5BFAA"/>
<path d="M160.379 0H84.199V76H160.379V0Z" fill="#D5BFAA"/>
<path d="M76.1801 84H0V160H76.1801V84Z" fill="#D5BFAA"/>
<path d="M160.379 84H84.199V160H160.379V84Z" fill="#D5BFAA"/>
</svg>
