<svg width="178" height="35" viewBox="0 0 178 35" fill="none" xmlns="http://www.w3.org/2000/svg">
<path d="M0.799805 0.756758V34.4324H12.8949C18.2873 34.4324 22.571 32.9662 25.7964 29.9392C28.9209 26.9595 30.4832 22.8446 30.4832 17.5946C30.4832 12.2973 28.9209 8.18243 25.7964 5.2027C22.6214 2.27027 18.3377 0.756758 12.8949 0.756758H0.799805ZM5.03309 30.8378V4.35135H12.8949C17.1282 4.35135 20.3536 5.53379 22.6214 7.85135C24.8892 10.2162 26.0483 13.4324 26.0483 17.5946C26.0483 21.7568 24.8892 25.0203 22.6214 27.3378C20.3536 29.7027 17.1282 30.8378 12.8949 30.8378H5.03309Z" fill="#E4E1DC"/>
<path d="M53.9344 31.5C56.2526 29.2297 57.4621 26.1081 57.4621 22.2297C57.4621 18.3514 56.2526 15.277 53.9344 12.9595C51.5154 10.6419 48.4916 9.45946 44.8631 9.45946C41.1841 9.45946 38.1604 10.6419 35.7917 12.9595C33.4231 15.277 32.264 18.3514 32.264 22.2297C32.264 26.1081 33.4231 29.2297 35.7917 31.5C38.1604 33.8649 41.1841 35 44.8631 35C48.4916 35 51.5154 33.8649 53.9344 31.5ZM38.7651 29.0878C37.2532 27.4797 36.4973 25.1622 36.4973 22.2297C36.4973 19.2973 37.2532 16.9797 38.7651 15.3243C40.277 13.7162 42.2929 12.8649 44.8631 12.8649C47.3829 12.8649 49.4491 13.7162 50.961 15.3243C52.4729 16.9797 53.2289 19.2973 53.2289 22.2297C53.2289 25.1622 52.4729 27.4797 50.961 29.0878C49.4491 30.7905 47.3829 31.5946 44.8631 31.5946C42.2929 31.5946 40.277 30.7905 38.7651 29.0878Z" fill="#E4E1DC"/>
<path d="M72.244 9.45946C68.7667 9.45946 66.0453 10.8784 64.0798 13.6689V10.027H60.2497V34.4324H64.2814V20.6216C64.2814 18.1149 64.9869 16.1757 66.4484 14.8514C67.8595 13.527 69.5226 12.8649 71.4377 12.8649C75.3686 12.8649 77.3844 14.7095 77.3844 18.3041V34.4324H81.4161V17.9257C81.4161 15.277 80.6098 13.1959 78.9971 11.6824C77.3844 10.2162 75.1166 9.45946 72.244 9.45946Z" fill="#E4E1DC"/>
<path d="M94.281 31.1216C92.2651 31.1216 90.4004 31.1689 88.7374 31.2162C88.8382 31.0743 89.2917 30.5541 90.0981 29.6081C90.854 28.7095 91.5092 27.9054 92.1139 27.2432L104.007 12.8649V10.027H84.2017V13.3378H93.4242C95.4401 13.3378 97.2543 13.3378 98.9678 13.2432C98.8166 13.4324 98.3631 13.9527 97.6071 14.8514C96.8008 15.7973 96.1456 16.5541 95.5913 17.2162L83.6977 31.5946V34.4324H104.713V31.1216H94.281Z" fill="#E4E1DC"/>
<path d="M128.161 22.2297C128.161 18.5878 127.102 15.5608 124.986 13.1014C122.869 10.6892 119.946 9.45946 116.217 9.45946C112.588 9.45946 109.716 10.6419 107.549 12.9595C105.331 15.3243 104.222 18.3987 104.222 22.2297C104.222 26.1554 105.331 29.277 107.599 31.5473C109.816 33.8649 112.689 35 116.318 35C119.241 35 121.66 34.2905 123.575 32.8716C125.49 31.4527 126.8 29.4662 127.506 27.0068H123.323C122.315 30.0338 119.996 31.5473 116.418 31.5473C113.999 31.5473 112.135 30.8851 110.774 29.5608C109.363 28.2365 108.607 26.2027 108.405 23.5541H128.161V22.2297ZM116.217 12.9122C118.384 12.9122 120.148 13.6216 121.508 14.9459C122.819 16.2703 123.625 18.0203 123.827 20.1487H108.506C108.808 17.8311 109.665 16.0338 111.026 14.8041C112.336 13.5743 114.1 12.9122 116.217 12.9122Z" fill="#E4E1DC"/>
<path d="M134.96 34.4324V0.756758H130.929V34.4324H134.96Z" fill="#E4E1DC"/>
<path d="M143.033 34.4324V0.756758H139.002V34.4324H143.033Z" fill="#E4E1DC"/>
<path d="M151.208 6.33784V1.7027H146.924V6.33784H151.208ZM151.107 34.4324V10.027H147.075V34.4324H151.107Z" fill="#E4E1DC"/>
<path d="M156.734 3.26351C154.315 5.43919 153.156 8.08784 153.156 11.2095C153.156 14.3311 154.315 16.9797 156.734 19.1554C159.103 21.3311 162.026 22.4189 165.503 22.4189C168.93 22.4189 171.853 21.3311 174.272 19.1554C176.59 16.9797 177.8 14.3311 177.8 11.2095C177.8 8.08784 176.59 5.43919 174.272 3.26351C171.853 1.08784 168.93 0 165.503 0C162.026 0 159.103 1.08784 156.734 3.26351ZM165.503 20.1959C162.681 20.1959 160.312 19.3446 158.498 17.5946C156.583 15.8446 155.676 13.7162 155.676 11.2095C155.676 8.7027 156.583 6.57432 158.498 4.77703C160.312 3.07432 162.681 2.17568 165.503 2.17568C168.275 2.17568 170.593 3.07432 172.458 4.77703C174.322 6.57432 175.28 8.7027 175.28 11.2095C175.28 13.7162 174.322 15.8446 172.458 17.5946C170.593 19.3446 168.275 20.1959 165.503 20.1959ZM170.291 13.4797C170.19 12.3446 169.686 11.5878 168.779 11.2568C169.988 10.7838 170.644 9.83784 170.644 8.41892C170.644 7.37838 170.24 6.52703 169.434 5.95946C168.628 5.39189 167.569 5.06081 166.158 5.06081H160.715V17.0743H162.933V12.25H166.41C167.015 12.25 167.418 12.3919 167.67 12.6284C167.922 12.9122 168.073 13.3378 168.174 14L168.275 15.2297C168.275 16.0811 168.476 16.6959 168.779 17.0743H171.047C170.644 16.5541 170.442 15.9392 170.442 15.2297L170.291 13.4797ZM162.933 10.3581V6.9527H166.158C167.62 6.9527 168.376 7.52027 168.376 8.65541C168.376 9.79054 167.67 10.3581 166.36 10.3581H162.933Z" fill="#E4E1DC"/>
</svg>
