<svg width="212" height="88" viewBox="0 0 212 88" fill="none" xmlns="http://www.w3.org/2000/svg">
<path fill-rule="evenodd" clip-rule="evenodd" d="M104.522 0.170824C104.454 0.302221 104.135 1.115 103.813 1.97683C103.441 2.97488 103.109 3.65799 102.899 3.858C102.652 4.09416 102.048 4.31498 100.466 4.74781C99.3082 5.06448 98.3138 5.36876 98.2559 5.42399C98.1981 5.47935 98.4488 5.61025 98.813 5.7149C99.1774 5.81967 100.144 6.08172 100.961 6.29721C101.8 6.51852 102.608 6.81153 102.818 6.96992C103.115 7.1947 103.323 7.61242 103.858 9.06262C104.226 10.0592 104.595 10.8746 104.678 10.8746C104.761 10.8746 105.126 10.0804 105.489 9.1098C105.931 7.92772 106.259 7.2399 106.484 7.02677C106.731 6.79258 107.24 6.59938 108.409 6.29535C109.283 6.0681 110.27 5.80308 110.602 5.70635C110.934 5.60976 111.157 5.48405 111.097 5.42709C111.038 5.37012 110.042 5.06448 108.884 4.74781C107.309 4.31671 106.698 4.09367 106.453 3.8601C106.242 3.65886 105.918 2.97983 105.538 1.94747C105.214 1.0672 104.881 0.253551 104.798 0.139368C104.657 -0.0525882 104.636 -0.0501116 104.522 0.170824ZM90.5581 5.36665C90.1476 5.45693 89.4234 5.67688 88.9486 5.85558C88.474 6.03416 87.7233 6.37882 87.2807 6.62143C86.8381 6.86404 86.1975 7.26343 85.857 7.50901C85.5165 7.75447 84.5296 8.64155 83.6638 9.48009C82.4742 10.6325 81.8996 11.0948 81.3116 11.373C80.7304 11.6481 80.3538 11.7413 79.8236 11.7413C79.214 11.7415 79.0565 11.6903 78.7094 11.3801C78.3622 11.0699 78.305 10.937 78.305 10.4411C78.305 9.94153 78.3613 9.81311 78.7223 9.4905C79.1107 9.14337 79.1255 9.10337 78.9345 8.9124C78.7943 8.77221 78.5182 8.70731 78.0611 8.70731C77.4878 8.70731 77.3372 8.7602 77.0021 9.07884C76.7873 9.28318 76.5272 9.61211 76.4239 9.80977C76.2932 10.0603 76.2506 10.4207 76.2834 10.9999C76.3214 11.6748 76.3951 11.9156 76.6754 12.2833C76.8652 12.5322 77.2937 12.8744 77.6277 13.0437C78.097 13.2816 78.4255 13.3514 79.0747 13.3513C79.7447 13.3513 80.0682 13.2785 80.6752 12.9912C81.0937 12.7931 81.6751 12.417 81.9671 12.1554C82.3269 11.833 82.4649 11.7594 82.3952 11.9272C82.3388 12.0635 82.159 12.6208 81.996 13.1657C81.8328 13.7106 81.6666 14.658 81.6266 15.271C81.5725 16.1007 81.6065 16.5894 81.7592 17.1835C81.872 17.6224 82.1043 18.1651 82.2754 18.3894C82.4463 18.6136 82.6876 18.8514 82.8114 18.9178L83.0366 19.0383L82.8702 18.3311C82.7788 17.9422 82.703 17.1452 82.702 16.5602C82.7008 15.8942 82.793 15.1327 82.9487 14.5235C83.0855 13.9883 83.417 13.1018 83.6851 12.5531C83.9533 12.0045 84.3955 11.2186 84.6679 10.8066C84.9401 10.3945 85.3998 9.78834 85.6892 9.45941C85.9787 9.13049 86.5451 8.58694 86.948 8.25157C87.3509 7.91621 87.6987 7.65997 87.721 7.68214C87.7431 7.70443 87.5974 8.05565 87.397 8.46272C87.1966 8.86967 86.9736 9.52604 86.9015 9.92122C86.8076 10.4369 86.8097 10.8279 86.9091 11.3068C86.9852 11.6737 87.1708 12.1584 87.3213 12.384C87.472 12.6096 87.7891 12.8916 88.026 13.0106C88.2803 13.1385 88.7358 13.2271 89.1378 13.227C89.6024 13.2267 89.9488 13.1473 90.2285 12.9767C90.4539 12.8392 90.7185 12.5348 90.8166 12.3C90.9146 12.0653 90.9948 11.7643 90.9948 11.6311C90.9948 11.4024 90.9739 11.3994 90.616 11.578C90.4076 11.6819 90.0315 11.7921 89.7803 11.8227C89.4863 11.8585 89.1721 11.7987 88.8987 11.655C88.651 11.5249 88.368 11.2253 88.2199 10.9365C88.0492 10.6035 87.9688 10.2178 87.9749 9.75998C87.9802 9.35613 88.0892 8.84106 88.2426 8.49468C88.3848 8.1733 88.7649 7.62852 89.087 7.28399C89.4396 6.90688 89.9728 6.51492 90.4267 6.29919C90.8413 6.10215 91.5148 5.85645 91.9234 5.75316C92.3319 5.64988 92.8333 5.54461 93.0376 5.51935L93.409 5.47328L93.0605 5.32554C92.8688 5.24429 92.3953 5.18337 92.0082 5.19018C91.621 5.19711 90.9686 5.27649 90.5581 5.36665ZM116.251 5.33272L115.941 5.47204L116.313 5.51873C116.517 5.54437 117.018 5.64988 117.427 5.75316C117.835 5.85645 118.509 6.10215 118.923 6.29919C119.377 6.51492 119.911 6.90688 120.263 7.28399C120.585 7.62852 120.965 8.1733 121.108 8.49468C121.27 8.86088 121.367 9.33842 121.367 9.77459C121.368 10.2254 121.281 10.6395 121.122 10.9511C120.981 11.2269 120.695 11.527 120.451 11.655C120.178 11.7987 119.864 11.8585 119.57 11.8227C119.319 11.7921 118.943 11.6819 118.734 11.578C118.376 11.3994 118.355 11.4024 118.355 11.6311C118.355 11.7643 118.436 12.0653 118.534 12.3C118.632 12.5348 118.896 12.8392 119.122 12.9767C119.396 13.1439 119.748 13.2268 120.185 13.2271C120.545 13.2273 121.023 13.1508 121.248 13.0568C121.473 12.9629 121.778 12.7312 121.927 12.542C122.076 12.3526 122.287 11.8907 122.396 11.5153C122.56 10.9526 122.571 10.6904 122.46 10.021C122.386 9.57459 122.16 8.87487 121.957 8.46594C121.754 8.05714 121.607 7.70443 121.629 7.68214C121.651 7.65997 121.999 7.91621 122.402 8.25157C122.805 8.58694 123.369 9.12776 123.656 9.45322C123.942 9.77881 124.436 10.4393 124.753 10.9209C125.07 11.4025 125.519 12.205 125.749 12.7042C125.98 13.2034 126.277 14.0359 126.409 14.5541C126.558 15.134 126.649 15.9056 126.648 16.5602C126.647 17.1452 126.571 17.9422 126.48 18.3311C126.328 18.9756 126.331 19.0288 126.514 18.9309C126.625 18.8718 126.81 18.7188 126.925 18.5907C127.041 18.4628 127.263 18.0814 127.419 17.7433C127.668 17.2037 127.701 16.9471 127.689 15.6425C127.677 14.4331 127.617 13.972 127.366 13.1657C127.196 12.6208 127.011 12.0635 126.955 11.9272C126.885 11.7594 127.023 11.833 127.383 12.1554C127.675 12.417 128.256 12.7931 128.675 12.9912C129.275 13.2753 129.605 13.3507 130.24 13.3486C130.78 13.3468 131.228 13.2631 131.6 13.0942C131.905 12.9557 132.259 12.7479 132.387 12.6325C132.515 12.5171 132.725 12.2158 132.853 11.9631C133.002 11.6726 133.088 11.2462 133.088 10.8035C133.088 10.3235 133.007 9.96172 132.832 9.65298C132.691 9.40529 132.427 9.09123 132.244 8.955C132.011 8.7815 131.719 8.70731 131.266 8.70731C130.83 8.70731 130.554 8.77394 130.416 8.9124C130.225 9.10337 130.239 9.14337 130.628 9.4905C130.989 9.81311 131.045 9.94153 131.045 10.4411C131.045 10.937 130.988 11.0699 130.641 11.3801C130.294 11.6903 130.136 11.7415 129.527 11.7413C128.998 11.7413 128.62 11.6481 128.044 11.3756C127.459 11.0986 126.874 10.6255 125.63 9.42238C124.727 8.54917 123.588 7.56907 123.098 7.24448C122.608 6.92001 121.779 6.45647 121.256 6.21448C120.732 5.97249 119.775 5.64022 119.128 5.47613C118.481 5.31204 117.639 5.18138 117.256 5.18559C116.873 5.18993 116.421 5.25618 116.251 5.33272ZM95.6298 6.5091C95.5141 7.03692 95.372 7.5609 95.314 7.67347C95.2559 7.78592 94.677 8.08847 94.0274 8.34569C93.3778 8.60279 92.8894 8.85258 92.942 8.90051C92.9945 8.94856 93.5111 9.0542 94.0899 9.13532C94.6687 9.21643 95.2675 9.36356 95.4207 9.46226C95.5737 9.56084 95.8927 10.0264 96.1294 10.4966C96.3662 10.9668 96.6073 11.3808 96.6654 11.4167C96.7236 11.4527 96.8699 11.0528 96.9909 10.5282C97.1117 10.0035 97.2865 9.45371 97.3792 9.30659C97.482 9.14336 97.9617 8.88255 98.6081 8.63846C99.1913 8.41839 99.6942 8.19659 99.7256 8.14581C99.757 8.09491 99.6021 8.02135 99.3814 7.98221C99.1608 7.94295 98.6737 7.8736 98.2992 7.8279C97.9247 7.78221 97.479 7.67347 97.3088 7.58629C97.1253 7.49241 96.7975 7.04559 96.5041 6.48966C96.2317 5.9736 95.9708 5.55093 95.9244 5.55031C95.878 5.54982 95.7454 5.98128 95.6298 6.5091ZM113.254 5.82054C113.151 5.97794 112.924 6.38873 112.75 6.73363C112.575 7.07841 112.349 7.42975 112.247 7.51421C112.145 7.59867 111.497 7.75608 110.806 7.86394C110.115 7.97169 109.595 8.09949 109.65 8.14792C109.706 8.19634 110.206 8.41603 110.762 8.6361C111.318 8.8563 111.857 9.12974 111.961 9.2438C112.064 9.35786 112.242 9.86909 112.356 10.3797C112.47 10.8903 112.6 11.3479 112.645 11.3967C112.689 11.4454 112.966 11.0413 113.259 10.4986C113.552 9.9559 113.892 9.45817 114.014 9.39266C114.137 9.32715 114.746 9.20578 115.368 9.12293C115.989 9.04008 116.498 8.93073 116.498 8.87983C116.498 8.82893 116.039 8.61307 115.477 8.40006C114.915 8.18718 114.338 7.88203 114.193 7.72202C114.04 7.55236 113.868 7.09984 113.781 6.63642C113.699 6.19937 113.589 5.77273 113.536 5.68815C113.468 5.57731 113.389 5.61421 113.254 5.82054ZM101.704 12.5686C101.363 12.5903 100.249 12.6947 99.2277 12.8004C98.2064 12.9063 96.4236 13.1556 95.266 13.3545C94.1085 13.5535 92.4812 13.8836 91.6499 14.088C90.8187 14.2925 89.8012 14.5969 89.3891 14.7645C88.977 14.932 88.3199 15.2639 87.9292 15.5022C87.5385 15.7404 86.9166 16.2316 86.5472 16.5939C86.1779 16.9561 85.6327 17.6277 85.3355 18.0862C85.0385 18.5448 84.6226 19.325 84.4111 19.82C84.1998 20.3151 83.6131 21.9183 83.1073 23.3827C82.6017 24.8471 82.0201 26.6862 81.8147 27.4695C81.5426 28.5081 81.423 29.2971 81.373 30.3832C81.3217 31.4991 81.3555 32.124 81.5077 32.8754C81.6195 33.427 81.8738 34.2734 82.0728 34.7563C82.2719 35.2393 82.6969 36.0404 83.0173 36.5367C83.3377 37.0329 84.0521 37.9049 84.6046 38.4744C85.1573 39.044 86.0551 39.8588 86.5998 40.2853C87.1446 40.7117 88.2309 41.4789 89.014 41.9901C89.797 42.5014 91.1063 43.282 91.9234 43.7248C92.7405 44.1675 94.7175 45.1842 96.3166 45.9842C97.9159 46.7841 100.274 47.9333 101.557 48.538C102.84 49.1429 104.097 49.6707 104.35 49.7112C104.603 49.7516 105.055 49.7186 105.354 49.6379C105.654 49.5571 107.617 48.6646 109.716 47.6547C111.816 46.6446 114.493 45.3075 115.666 44.6831C116.839 44.0586 118.495 43.1328 119.346 42.6255C120.197 42.1183 121.395 41.3446 122.008 40.9063C122.62 40.4679 123.576 39.6903 124.132 39.1784C124.688 38.6663 125.428 37.8703 125.777 37.4096C126.125 36.9489 126.66 36.0704 126.965 35.4574C127.27 34.8444 127.63 33.902 127.766 33.3632C127.942 32.6619 128.011 31.9759 128.01 30.9483C128.009 29.9926 127.925 29.1197 127.76 28.3364C127.623 27.6893 127.007 25.6447 126.39 23.7929C125.712 21.756 124.998 19.8756 124.584 19.0332C123.994 17.8342 123.758 17.4995 122.884 16.6257C122.078 15.8192 121.655 15.5073 120.824 15.1059C120.25 14.8282 119.222 14.4622 118.541 14.2926C117.86 14.1231 116.576 13.8442 115.688 13.6729C114.799 13.5016 113.1 13.2225 111.912 13.0525C110.723 12.8824 109.002 12.6852 108.086 12.6139C107.17 12.5427 105.499 12.4946 104.372 12.5068C103.245 12.5191 102.044 12.5469 101.704 12.5686ZM73.6853 14.9718C73.3233 15.0343 72.7214 15.2353 72.3476 15.4184C71.974 15.6014 71.4707 15.9697 71.2295 16.2368C70.9882 16.504 70.7037 16.9254 70.5973 17.1732C70.4908 17.4211 70.3988 17.9862 70.3926 18.429C70.3838 19.0763 70.4502 19.3735 70.7317 19.947C70.9242 20.3393 71.2585 20.7949 71.4745 20.9595C71.6905 21.124 72.1233 21.3231 72.4362 21.4018C72.8557 21.5072 73.1381 21.5091 73.5105 21.4088C73.8108 21.3279 74.1478 21.1156 74.3413 20.8857L74.6669 20.4985L73.8861 20.1139C73.2044 19.7781 73.0763 19.658 72.8767 19.1676C72.6799 18.6839 72.6686 18.5298 72.7958 18.0576C72.8852 17.7256 73.1225 17.33 73.3972 17.0552C73.7375 16.7146 74.0212 16.5658 74.5312 16.4599C75.0111 16.3602 75.4058 16.3555 75.8709 16.4437C76.2337 16.5125 76.7723 16.6759 77.068 16.8068C77.3637 16.9375 77.8575 17.2767 78.1652 17.5605C78.4729 17.8443 78.9001 18.3498 79.1146 18.6841C79.329 19.0184 79.6376 19.686 79.8006 20.1676C79.9635 20.6492 80.1587 21.553 80.2345 22.176C80.3381 23.0288 80.3355 23.5997 80.2238 24.4871C80.1422 25.1353 79.9632 26.0297 79.8261 26.4747C79.6888 26.9197 79.4101 27.6181 79.2068 28.0268C79.0034 28.4355 78.6337 28.9836 78.3852 29.2448C78.1369 29.506 77.7108 29.8352 77.4384 29.9765C77.1264 30.1382 76.6145 30.2547 76.0551 30.2913C75.3257 30.3388 75.071 30.3027 74.6287 30.0885C74.3325 29.9451 73.9941 29.6648 73.8763 29.4655C73.7587 29.2662 73.6624 28.9306 73.6624 28.7198C73.6624 28.5089 73.6023 28.3364 73.5291 28.3364C73.4558 28.3364 73.2329 28.4993 73.0338 28.6984C72.7408 28.9915 72.672 29.1668 72.672 29.6192C72.672 29.9264 72.7314 30.3349 72.8041 30.5266C72.8766 30.7183 73.0577 31.006 73.2064 31.1659C73.355 31.3257 73.6995 31.5757 73.9719 31.721C74.3579 31.9271 74.6861 31.9859 75.4601 31.9877C76.3299 31.9895 76.5528 31.9406 77.2553 31.5937C77.6964 31.3759 78.3188 30.9301 78.638 30.603C78.9575 30.2759 79.4148 29.681 79.6543 29.281C79.8939 28.881 80.2304 28.1286 80.402 27.6091C80.5737 27.0896 80.8069 26.2466 80.9205 25.7357C81.058 25.1165 81.1292 24.2082 81.1342 23.0112C81.1396 21.6655 81.0856 20.9982 80.9185 20.3485C80.7958 19.8718 80.5055 19.0915 80.2734 18.6147C80.0412 18.138 79.6168 17.4742 79.3302 17.1398C79.0435 16.8053 78.4813 16.2905 78.0809 15.9956C77.6804 15.7007 77.0099 15.354 76.591 15.2252C76.1719 15.0962 75.4947 14.961 75.0861 14.9245C74.6776 14.8879 74.0472 14.9092 73.6853 14.9718ZM133.75 14.9681C133.399 15.0295 132.814 15.1917 132.45 15.3287C132.086 15.4655 131.469 15.8285 131.08 16.1352C130.69 16.4419 130.148 16.9756 129.875 17.3211C129.602 17.6666 129.217 18.2941 129.019 18.7156C128.82 19.1369 128.557 19.8718 128.433 20.3485C128.264 21.0018 128.21 21.6581 128.216 23.0112C128.221 24.2082 128.292 25.1165 128.43 25.7357C128.543 26.2466 128.776 27.0896 128.948 27.6091C129.12 28.1286 129.456 28.881 129.696 29.281C129.935 29.681 130.393 30.2759 130.712 30.603C131.031 30.9301 131.654 31.3759 132.095 31.5937C132.797 31.9406 133.02 31.9895 133.89 31.9877C134.664 31.9859 134.992 31.9271 135.378 31.721C135.651 31.5757 135.995 31.3257 136.144 31.1659C136.292 31.006 136.474 30.7183 136.546 30.5266C136.619 30.3349 136.678 29.9264 136.678 29.6192C136.678 29.1668 136.609 28.9915 136.316 28.6984C136.117 28.4993 135.894 28.3364 135.821 28.3364C135.748 28.3364 135.688 28.5089 135.688 28.7198C135.688 28.9306 135.591 29.2662 135.474 29.4655C135.356 29.6648 135.018 29.9451 134.721 30.0885C134.279 30.3027 134.024 30.3388 133.295 30.2913C132.736 30.2547 132.224 30.1382 131.912 29.9765C131.639 29.8352 131.216 29.506 130.971 29.2448C130.727 28.9836 130.409 28.5732 130.266 28.3328C130.123 28.0924 129.841 27.3958 129.638 26.7848C129.435 26.1737 129.204 25.1416 129.124 24.4912C129.015 23.6062 129.013 23.0234 129.116 22.176C129.191 21.553 129.387 20.6492 129.55 20.1676C129.713 19.686 130.021 19.0184 130.236 18.6841C130.45 18.3498 130.877 17.8443 131.185 17.5605C131.493 17.2767 131.986 16.9375 132.282 16.8068C132.578 16.6759 133.117 16.5125 133.479 16.4437C133.937 16.3568 134.338 16.3599 134.791 16.4541C135.149 16.5285 135.611 16.7313 135.817 16.9047C136.023 17.0781 136.265 17.3667 136.355 17.5459C136.445 17.7251 136.555 18.0591 136.598 18.288C136.652 18.5714 136.603 18.8725 136.445 19.2309C136.251 19.6678 136.083 19.822 135.454 20.1362L134.697 20.5147L135.016 20.8937C135.203 21.1161 135.543 21.3289 135.84 21.4088C136.211 21.5087 136.494 21.5073 136.905 21.4037C137.213 21.3262 137.622 21.1508 137.814 21.0142C138.006 20.8776 138.301 20.5308 138.469 20.2437C138.637 19.9563 138.839 19.4434 138.917 19.1037C139.026 18.6331 139.025 18.3163 138.912 17.7737C138.82 17.3322 138.613 16.8639 138.368 16.5414C138.149 16.2552 137.75 15.87 137.479 15.6855C137.209 15.5008 136.709 15.265 136.369 15.1614C136.028 15.0577 135.443 14.9466 135.069 14.9146C134.694 14.8825 134.101 14.9065 133.75 14.9681ZM95.2041 20.5446C95.2041 23.4348 95.1591 25.2451 95.0878 25.2197C95.0238 25.197 94.2988 24.603 93.4767 23.8999C92.5383 23.0971 92.0151 22.5671 92.0708 22.4757C92.1196 22.3955 92.4088 22.0235 92.7133 21.6489C93.018 21.2743 93.5109 20.4538 93.8086 19.8256C94.1064 19.1974 94.4866 18.1454 94.6533 17.4877C94.8201 16.83 94.9565 16.1876 94.9565 16.0601C94.9565 15.9326 95.0122 15.8283 95.0803 15.8283C95.1607 15.8283 95.2041 17.4829 95.2041 20.5446ZM100.995 22.8881L100.961 25.2418L97.8331 22.6227L98.3765 21.7182C98.6753 21.2208 99.2734 19.9847 99.7054 18.9713C100.137 17.9578 100.559 16.9057 100.643 16.6333C100.726 16.3608 100.832 16.0543 100.878 15.9521C100.923 15.85 100.976 16.8392 100.995 18.1503C101.013 19.4615 101.013 21.5935 100.995 22.8881ZM106.965 20.5343C106.965 23.1226 106.929 25.2403 106.885 25.2403C106.841 25.2403 106.13 24.6731 105.306 23.98C104.483 23.2867 103.783 22.6993 103.752 22.6746C103.721 22.6499 103.792 22.4786 103.91 22.2941C104.029 22.1095 104.395 21.4291 104.725 20.782C105.055 20.1349 105.638 18.8208 106.021 17.8618C106.404 16.9027 106.718 16.0529 106.718 15.9732C106.718 15.8935 106.774 15.8283 106.842 15.8283C106.922 15.8283 106.965 17.4795 106.965 20.5343ZM112.784 20.5343C112.784 23.1226 112.756 25.2403 112.721 25.2403C112.686 25.2403 111.962 24.6513 111.111 23.9313C110.261 23.2114 109.565 22.6012 109.565 22.5752C109.565 22.5494 109.736 22.2753 109.944 21.9663C110.153 21.6572 110.564 20.8881 110.858 20.2572C111.151 19.6263 111.649 18.4638 111.964 17.6739C112.279 16.8839 112.537 16.1456 112.537 16.033C112.537 15.9204 112.592 15.8283 112.66 15.8283C112.741 15.8283 112.784 17.4795 112.784 20.5343ZM119.151 25.9834C121.972 28.4014 124.285 30.4188 124.289 30.4665C124.294 30.5142 123.679 30.7532 122.923 30.9977C122.167 31.2421 120.761 31.6358 119.797 31.8727C118.834 32.1095 117.405 32.4087 116.622 32.5374C115.839 32.6662 114.975 32.8031 114.703 32.8416L114.208 32.9117L114.207 31.1504C114.207 29.4927 114.184 29.3254 113.821 28.3078C113.608 27.713 113.497 27.2647 113.574 27.3114C113.65 27.3582 114.643 28.193 115.779 29.1668C116.916 30.1404 117.9 30.9371 117.966 30.9371C118.032 30.9371 118.122 30.7252 118.166 30.4663C118.211 30.1983 118.165 29.6093 118.058 29.0994C117.956 28.6065 117.616 27.6646 117.304 27.0058C116.993 26.3472 116.381 25.2765 115.946 24.6265C115.511 23.9764 114.775 22.9795 114.31 22.4109C113.845 21.8425 113.382 21.2573 113.279 21.1106C113.139 20.9091 113.207 20.9347 113.558 21.2154C113.813 21.4198 116.33 23.5654 119.151 25.9834ZM101.023 33.5491L100.559 33.4645C100.303 33.4181 99.1583 33.199 98.0141 32.9777C96.87 32.7564 95.9092 32.5507 95.879 32.5204C95.8488 32.4902 96.097 31.634 96.4305 30.6177C96.7642 29.6013 97.0994 28.3609 97.1757 27.8611C97.252 27.3613 97.3494 26.1823 97.3922 25.2411L97.4701 23.5298L101.006 26.5407L101.023 33.5491ZM105.464 25.3663L106.965 26.6488V30.0241C106.965 31.8804 106.918 33.4286 106.86 33.4643C106.803 33.5 105.629 33.3138 104.252 33.0505C102.875 32.7871 101.731 32.5522 101.709 32.5284C101.687 32.5046 101.917 31.7451 102.22 30.8404C102.523 29.9358 102.852 28.8213 102.952 28.3635C103.052 27.9059 103.168 26.628 103.211 25.5238L103.289 23.5162L103.626 23.8C103.812 23.9561 104.639 24.6609 105.464 25.3663ZM72.7958 23.7988C72.4894 23.8823 71.9686 24.0861 71.6387 24.2518C71.3088 24.4175 70.7006 24.9146 70.2875 25.3564C69.7787 25.9004 69.3807 26.4918 69.0544 27.1881C68.7895 27.7537 68.4932 28.5918 68.3961 29.0505C68.2989 29.5092 68.2184 30.5622 68.2172 31.3906C68.216 32.219 68.2942 33.3107 68.391 33.8165C68.4877 34.3222 68.7137 35.177 68.8934 35.716C69.0729 36.2548 69.4475 37.0859 69.7259 37.5627C70.0044 38.0395 70.5268 38.7983 70.887 39.2491C71.2471 39.6997 71.8916 40.3316 72.3193 40.6531C72.7469 40.9747 73.6557 41.5091 74.339 41.8407C75.0222 42.1725 76.0044 42.5805 76.5215 42.7473C77.0386 42.9142 78.0414 43.1709 78.75 43.3178C79.4585 43.4647 80.8182 43.6383 81.7715 43.7037C82.7248 43.769 84.1306 43.8739 84.8955 43.9368C85.7908 44.0103 86.4818 44.1377 86.835 44.2939C87.1367 44.4275 87.477 44.6791 87.591 44.8531C87.705 45.0272 87.8287 45.3965 87.8658 45.6739C87.9121 46.0192 87.862 46.3371 87.7067 46.6814C87.582 46.9582 87.291 47.313 87.06 47.4699L86.6402 47.7554L87.0337 47.8418C87.2503 47.8894 87.6689 47.8921 87.964 47.8477C88.2592 47.8035 88.6844 47.6434 88.9091 47.4919C89.1338 47.3405 89.4379 47.0381 89.5847 46.82C89.7317 46.6019 89.8887 46.2279 89.9335 45.9889C89.9783 45.7498 89.9554 45.333 89.8826 45.0626C89.8098 44.7923 89.6053 44.3986 89.4279 44.1878C89.2506 43.977 88.8446 43.6724 88.5258 43.5108C88.2069 43.3491 87.5972 43.1536 87.1708 43.0762C86.6422 42.9803 85.5375 42.9632 83.6995 43.0226C81.9264 43.0799 80.9772 43.0669 80.9264 42.9847C80.8801 42.9099 81.1083 42.8294 81.496 42.7839C81.8518 42.7421 82.4482 42.5521 82.8215 42.3617C83.3028 42.116 83.581 41.8723 83.7788 41.5228C83.953 41.2152 84.0585 40.8198 84.0599 40.4697C84.061 40.1487 83.9756 39.7857 83.8599 39.6206C83.7489 39.462 83.4722 39.2545 83.2449 39.1595C83.0177 39.0646 82.7728 38.9869 82.7008 38.9869C82.6238 38.9869 82.6533 39.1483 82.7723 39.3786C82.9026 39.6306 82.9523 39.9376 82.9118 40.2397C82.8773 40.4979 82.7299 40.8764 82.5843 41.0808C82.4383 41.2859 81.9602 41.6297 81.5178 41.8476C80.9593 42.1226 80.4016 42.2814 79.6802 42.3708C78.8281 42.4764 78.4567 42.4622 77.5846 42.2908C77.0016 42.1762 76.3681 42.0168 76.1767 41.9367L75.8289 41.791L76.5829 41.71C76.9975 41.6654 77.5929 41.5049 77.9059 41.3533C78.2188 41.2018 78.6798 40.851 78.9301 40.5738C79.1804 40.2967 79.4935 39.8251 79.6257 39.5259C79.7581 39.2267 79.9183 38.6631 79.9817 38.2732C80.0578 37.8051 80.0515 37.3035 79.9631 36.7954C79.8855 36.3502 79.6784 35.7884 79.4711 35.4615C79.2741 35.1509 78.8517 34.731 78.5324 34.5284C78.213 34.3258 77.7662 34.1252 77.5395 34.0827C77.3127 34.0401 76.881 34.0422 76.5801 34.0874C76.2791 34.1325 75.8476 34.2925 75.6213 34.4429C75.395 34.5933 75.0808 34.9667 74.9228 35.2726C74.6957 35.7129 74.6496 35.9549 74.7022 36.4328C74.7387 36.765 74.8617 37.1788 74.9754 37.3524L75.1822 37.6681L75.4146 37.2152C75.5423 36.966 75.8104 36.6776 76.0103 36.5742C76.2103 36.4708 76.5768 36.3862 76.8251 36.3862C77.0769 36.3862 77.429 36.4949 77.6219 36.6323C77.8119 36.7676 78.0617 37.1144 78.1771 37.4027C78.3267 37.7768 78.3628 38.0871 78.3032 38.4851C78.2572 38.792 78.1158 39.2464 77.9892 39.4948C77.8624 39.7432 77.5914 40.0874 77.3868 40.2595C77.1822 40.4318 76.7616 40.6694 76.452 40.7877C76.0494 40.9415 75.6847 40.9841 75.1704 40.9374C74.7489 40.8992 74.1814 40.7352 73.7982 40.541C73.4389 40.3588 72.8931 39.9778 72.5856 39.694C72.2779 39.4104 71.8618 38.9393 71.6609 38.6473C71.4601 38.3553 71.1352 37.7927 70.939 37.3971C70.7427 37.0016 70.4616 36.2361 70.3141 35.6961C70.1272 35.0117 70.0265 34.2034 69.9817 33.0268C69.942 31.9812 69.9734 31.018 70.0645 30.4946C70.1455 30.03 70.3832 29.2047 70.5931 28.6606C70.8916 27.8861 71.1251 27.5174 71.6684 26.962C72.1755 26.4437 72.5095 26.2136 72.9083 26.1079C73.2085 26.0284 73.6488 25.9997 73.8865 26.0443C74.1242 26.0889 74.4821 26.289 74.6819 26.4889C75.021 26.828 75.0425 26.906 75.0038 27.6568L74.9623 28.4612L75.3594 28.5354C75.6229 28.5847 75.9135 28.5326 76.2242 28.3801C76.4816 28.2539 76.8184 27.9613 76.9725 27.7298C77.1842 27.4118 77.2527 27.1308 77.2527 26.5793C77.2527 26.0983 77.1697 25.687 77.0093 25.3726C76.8755 25.1102 76.5298 24.6931 76.241 24.4459C75.9523 24.1986 75.4388 23.914 75.1 23.8133C74.7613 23.7127 74.2295 23.6341 73.9184 23.6387C73.6074 23.6434 73.1022 23.7153 72.7958 23.7988ZM93.4622 25.1265L95.2041 26.6226V30.0802C95.2041 31.9819 95.1723 33.5378 95.1334 33.5378C95.0946 33.5378 93.4929 33.2522 91.5741 32.9031C89.6554 32.554 88.0655 32.2507 88.041 32.2292C88.0166 32.2075 88.4076 31.6433 88.9097 30.9753C89.412 30.3072 90.0263 29.3426 90.2748 28.8318C90.5233 28.3209 90.8195 27.6243 90.9332 27.2838C91.0467 26.9432 91.2185 26.2556 91.3149 25.7558C91.4112 25.2559 91.49 24.5733 91.49 24.2387C91.49 23.9041 91.5419 23.6304 91.6052 23.6304C91.6686 23.6304 92.5042 24.3036 93.4622 25.1265ZM111.042 25.1265L112.784 26.6226V30.0802C112.784 31.9819 112.742 33.5372 112.691 33.5366C112.64 33.5358 111.497 33.3206 110.15 33.0584C108.803 32.7961 107.667 32.5467 107.624 32.5041C107.581 32.4615 107.777 31.7432 108.059 30.9079C108.341 30.0726 108.66 29.0268 108.767 28.5841C108.882 28.1116 108.992 26.9223 109.033 25.7048C109.072 24.5639 109.148 23.6304 109.202 23.6304C109.256 23.6304 110.084 24.3036 111.042 25.1265ZM134.198 23.8126C133.89 23.9121 133.4 24.1965 133.111 24.4445C132.821 24.6925 132.475 25.1102 132.341 25.3726C132.18 25.687 132.097 26.0983 132.097 26.5793C132.097 27.1308 132.166 27.4118 132.378 27.7298C132.532 27.9613 132.869 28.2539 133.126 28.3801C133.437 28.5326 133.727 28.5847 133.991 28.5354L134.388 28.4612L134.346 27.6568C134.308 26.906 134.329 26.828 134.668 26.4889C134.868 26.289 135.226 26.0889 135.464 26.0443C135.701 25.9997 136.142 26.0284 136.442 26.1079C136.841 26.2136 137.175 26.4437 137.682 26.962C138.226 27.5188 138.456 27.8828 138.751 28.6541C138.958 29.1945 139.196 30.0331 139.281 30.5173C139.38 31.0835 139.412 31.9899 139.369 33.0561C139.324 34.1928 139.219 35.0231 139.036 35.6961C138.888 36.2361 138.607 37.0016 138.411 37.3971C138.215 37.7927 137.89 38.3553 137.689 38.6473C137.488 38.9393 137.063 39.4189 136.744 39.7129C136.425 40.007 135.848 40.3924 135.462 40.5694C135.075 40.7463 134.465 40.9155 134.106 40.9454C133.671 40.9815 133.266 40.9284 132.894 40.7861C132.587 40.6687 132.168 40.4318 131.963 40.2595C131.759 40.0874 131.484 39.7357 131.353 39.4781C131.221 39.2205 131.077 38.7808 131.032 38.5011C130.976 38.151 131.017 37.8197 131.163 37.4384C131.279 37.1336 131.517 36.7722 131.691 36.6353C131.885 36.4821 132.194 36.3862 132.492 36.3862C132.758 36.3862 133.14 36.4708 133.34 36.5742C133.54 36.6776 133.808 36.966 133.936 37.2152L134.168 37.6681L134.364 37.3678C134.473 37.2026 134.599 36.8297 134.645 36.5391C134.705 36.1682 134.667 35.8466 134.519 35.4591C134.403 35.1554 134.143 34.7683 133.942 34.5988C133.74 34.4291 133.368 34.2328 133.115 34.1625C132.862 34.0921 132.457 34.0343 132.215 34.0339C131.973 34.0336 131.483 34.1785 131.127 34.3562C130.728 34.5548 130.314 34.8953 130.05 35.2409C129.814 35.5499 129.557 36.0315 129.477 36.3112C129.398 36.5908 129.337 37.2098 129.341 37.6866C129.347 38.252 129.441 38.7966 129.613 39.2528C129.759 39.6374 130.099 40.204 130.37 40.5118C130.641 40.8197 131.121 41.1969 131.438 41.3502C131.754 41.5035 132.353 41.6654 132.767 41.71C133.475 41.786 133.501 41.7996 133.185 41.9324C133 42.0102 132.39 42.1667 131.83 42.2803C131.136 42.4208 130.532 42.463 129.938 42.4124C129.457 42.3714 128.786 42.2441 128.445 42.1293C128.105 42.0145 127.597 41.7646 127.317 41.574C127.037 41.3833 126.716 41.0351 126.605 40.8005C126.494 40.5658 126.403 40.2261 126.403 40.0456C126.403 39.8653 126.488 39.5532 126.591 39.3522C126.705 39.1319 126.728 38.9869 126.649 38.9869C126.577 38.9869 126.332 39.0646 126.105 39.1595C125.878 39.2545 125.601 39.462 125.49 39.6206C125.375 39.7857 125.289 40.1487 125.29 40.4697C125.292 40.8198 125.397 41.2152 125.571 41.5228C125.769 41.8723 126.047 42.116 126.529 42.3617C126.902 42.5521 127.498 42.7421 127.854 42.7839C128.21 42.8257 128.47 42.9104 128.432 42.972C128.392 43.0359 127.02 43.0688 125.247 43.0481C122.435 43.0154 122.06 43.0352 121.396 43.2528C120.915 43.4104 120.481 43.667 120.139 43.9959C119.8 44.3225 119.568 44.6824 119.476 45.0261C119.399 45.3165 119.372 45.7498 119.417 45.9889C119.462 46.2279 119.618 46.6019 119.765 46.82C119.912 47.0381 120.216 47.3405 120.441 47.4919C120.666 47.6434 121.091 47.8035 121.386 47.8477C121.681 47.8921 122.103 47.8887 122.323 47.8404L122.723 47.7525L122.329 47.5028C122.112 47.3655 121.826 47.0395 121.693 46.7784C121.559 46.5172 121.45 46.1323 121.45 45.9231C121.45 45.7138 121.531 45.3506 121.629 45.1159C121.727 44.8811 121.988 44.5787 122.21 44.4437C122.432 44.3087 122.895 44.1379 123.239 44.0641C123.583 43.9903 124.893 43.8762 126.149 43.8107C127.406 43.7452 128.938 43.6103 129.554 43.5111C130.17 43.4119 131.214 43.1904 131.874 43.0187C132.533 42.8472 133.578 42.4889 134.196 42.2225C134.814 41.9563 135.722 41.4955 136.215 41.1986C136.708 40.9016 137.447 40.3244 137.856 39.9157C138.265 39.507 138.839 38.8104 139.13 38.3677C139.421 37.925 139.823 37.2229 140.023 36.8075C140.223 36.392 140.533 35.5282 140.712 34.8879C140.975 33.9479 141.049 33.3658 141.098 31.8659C141.142 30.4842 141.109 29.7812 140.97 29.122C140.866 28.6344 140.583 27.805 140.34 27.2787C140.097 26.7525 139.661 26.0313 139.371 25.6763C139.082 25.3212 138.622 24.8594 138.35 24.6501C138.077 24.4407 137.548 24.1485 137.173 24.0007C136.793 23.8506 136.11 23.7096 135.626 23.6817C135.073 23.6497 134.556 23.6971 134.198 23.8126ZM126.151 30.9062C126.149 30.9573 126.071 31.0998 125.977 31.2231C125.884 31.3464 124.44 31.9989 122.769 32.6733C121.098 33.3477 119.352 34.091 118.888 34.3253C118.425 34.5595 117.924 34.8824 117.774 35.0428C117.625 35.2031 117.355 35.6581 117.174 36.0539C116.978 36.4814 116.736 36.8146 116.578 36.8748C116.432 36.9304 115.755 37.0361 115.074 37.1097C114.393 37.1834 112.444 37.3086 110.741 37.388C108.741 37.4812 105.237 37.5076 100.837 37.4625C97.0921 37.4241 93.248 37.3332 92.2948 37.2604C91.3415 37.1877 90.1715 37.0702 89.6949 36.9995C89.2183 36.9286 88.7533 36.7961 88.6614 36.7048C88.5298 36.5739 88.5253 36.4814 88.6405 36.2662C88.7208 36.1162 88.768 35.9779 88.7454 35.9588C88.7229 35.9398 88.5035 35.8304 88.2578 35.716C88.0122 35.6015 87.6275 35.3293 87.4031 35.1111C87.1785 34.8929 86.8868 34.4716 86.7547 34.1749C86.6227 33.8781 86.5617 33.5924 86.6191 33.5399C86.6766 33.4875 87.2146 33.5184 87.8147 33.6087C88.4149 33.6988 89.6684 33.8366 90.6003 33.9149C91.5323 33.9932 94.7058 34.0936 97.6526 34.1381C100.599 34.1825 104.889 34.1824 107.185 34.1377C109.482 34.093 112.085 33.995 112.97 33.92C113.855 33.8451 115.164 33.6952 115.879 33.5871C116.594 33.479 117.764 33.2605 118.479 33.1018C119.194 32.943 120.42 32.6161 121.203 32.3752C121.986 32.1343 123.379 31.6901 124.298 31.388C125.217 31.0859 126.011 30.833 126.062 30.826C126.113 30.819 126.153 30.855 126.151 30.9062ZM120.384 39.4838C120.315 39.5527 119.83 39.6912 119.306 39.7914C118.783 39.8917 117.505 40.057 116.467 40.1587C115.429 40.2605 113.493 40.4054 112.165 40.4807C110.837 40.556 107.467 40.6175 104.675 40.6175C101.883 40.6175 98.5128 40.556 97.185 40.4807C95.8572 40.4054 93.9215 40.2605 92.8834 40.1587C91.8454 40.057 90.5675 39.8917 90.0437 39.7914C89.5198 39.6912 89.0349 39.5527 88.9659 39.4838C88.8814 39.3992 93.9909 39.3584 104.675 39.3584C115.359 39.3584 120.469 39.3992 120.384 39.4838ZM71.1863 41.9154C71.1863 41.9605 71.389 42.3648 71.6366 42.8141C71.8843 43.2634 72.3637 44.0942 72.7019 44.6604C73.0402 45.2266 73.2972 45.7087 73.273 45.7319C73.2489 45.7549 72.5884 45.9158 71.8053 46.0892C71.0223 46.2626 70.0242 46.4435 69.5873 46.4912L68.793 46.578L69.4016 46.8887C69.7363 47.0597 70.818 47.5593 71.8053 47.9991C72.7927 48.4387 74.6398 49.2111 75.9102 49.7155C77.1806 50.2198 79.2141 50.9829 80.429 51.4113L82.6381 52.1902V54.0338L83.6718 54.3805C84.2401 54.571 85.6608 54.9724 86.8287 55.2722C87.9966 55.5721 89.7878 55.9832 90.8091 56.186C91.8305 56.3888 93.474 56.6699 94.4613 56.8109C95.4486 56.9518 97.1478 57.1526 98.2373 57.2568C99.3268 57.3611 101.5 57.4801 103.066 57.5212C104.754 57.5657 106.896 57.537 108.327 57.4509C109.655 57.3709 111.494 57.2235 112.413 57.1232C113.332 57.0229 114.808 56.8247 115.694 56.6829C116.579 56.5411 118.111 56.2624 119.098 56.0635C120.085 55.8645 121.645 55.5048 122.565 55.2641C123.484 55.0234 124.773 54.6615 125.43 54.4597C126.205 54.2217 126.653 54.0185 126.706 53.8806C126.751 53.7637 126.752 53.3311 126.707 52.9192L126.627 52.1704L127.536 51.8813C128.036 51.7224 129.643 51.1449 131.107 50.5982C132.571 50.0514 134.716 49.2001 135.873 48.7063C137.031 48.2127 138.563 47.5375 139.278 47.206C140.263 46.7489 140.502 46.5943 140.268 46.5666C140.098 46.5463 139.459 46.4467 138.849 46.3452C138.238 46.2436 137.361 46.0746 136.899 45.9695C136.437 45.8644 136.059 45.7315 136.059 45.6743C136.059 45.6171 136.331 45.1311 136.664 44.5945C136.997 44.0579 137.469 43.2221 137.713 42.737L138.157 41.8552L135.777 43.0093C134.468 43.6441 132.422 44.5523 131.231 45.0275C130.039 45.5027 128.591 46.0467 128.012 46.2364C127.433 46.4262 126.92 46.615 126.871 46.656C126.823 46.6971 126.87 46.9806 126.976 47.2861C127.114 47.6839 127.155 48.1583 127.12 48.9563C127.082 49.8121 126.998 50.2289 126.758 50.752L126.446 51.4331L126.159 50.5662C126.002 50.0894 125.763 49.4764 125.629 49.2039C125.494 48.9315 125.274 48.5884 125.14 48.4417L124.896 48.1748L124.071 48.4139C123.617 48.5456 122.382 48.8708 121.327 49.1368C120.271 49.4028 118.544 49.7902 117.489 49.9978C116.433 50.2052 114.79 50.4856 113.837 50.6207C112.883 50.7558 111.546 50.9288 110.865 51.005C110.184 51.0812 107.872 51.1733 105.727 51.2096C102.69 51.261 101.308 51.2305 99.4753 51.0714C98.1816 50.9592 96.2192 50.7322 95.1144 50.5671C94.0096 50.402 92.2547 50.0928 91.2146 49.8799C90.1745 49.6671 88.5992 49.3043 87.7141 49.0737C86.8289 48.8431 85.7323 48.5461 85.2774 48.4139C84.6372 48.2279 84.4075 48.206 84.2616 48.3172C84.1579 48.3962 83.909 48.7953 83.7083 49.2039C83.5076 49.6126 83.2474 50.2779 83.13 50.6824C82.9318 51.3654 82.9039 51.4007 82.7409 51.1777C82.6443 51.0457 82.4733 50.6312 82.3609 50.2566C82.2434 49.8648 82.1607 49.181 82.1664 48.6466C82.1719 48.1358 82.2626 47.4841 82.3682 47.1984L82.5604 46.6792L82.104 46.5332C81.8531 46.4529 80.7626 46.0544 79.6807 45.6477C78.5989 45.2408 77.0317 44.6105 76.1981 44.2469C75.3644 43.8832 73.8958 43.1914 72.9343 42.7096C71.973 42.2279 71.1863 41.8705 71.1863 41.9154ZM116.293 42.3378C116.221 42.4099 115.862 42.5463 115.494 42.641C115.127 42.7356 114.186 42.8985 113.403 43.0028C112.62 43.107 111.172 43.2513 110.184 43.3234C109.197 43.3956 106.718 43.4545 104.675 43.4545C102.632 43.4545 100.153 43.3956 99.1658 43.3234C98.1785 43.2513 96.73 43.107 95.947 43.0028C95.1639 42.8985 94.2229 42.7356 93.8557 42.641C93.4885 42.5463 93.1292 42.4099 93.0571 42.3378C92.965 42.2457 96.4144 42.2068 104.675 42.2068C112.936 42.2068 116.385 42.2457 116.293 42.3378ZM110.574 45.3059C110.414 45.4392 109.997 45.6348 109.646 45.7404C109.295 45.8461 108.479 46.0134 107.832 46.1123C107.173 46.213 105.784 46.2921 104.675 46.2921C103.566 46.2921 102.177 46.213 101.518 46.1123C100.871 46.0134 100.055 45.8461 99.7043 45.7404C99.3536 45.6348 98.9358 45.4392 98.7757 45.3059L98.4849 45.0635H110.865L110.574 45.3059ZM123.158 51.0616C123.016 51.4706 122.873 52.2639 122.84 52.8263C122.808 53.3883 122.746 53.8488 122.704 53.8498C122.661 53.8507 122.501 53.8851 122.348 53.9261C122.084 53.9968 122.07 53.9653 122.071 53.3362C122.072 52.9706 122.154 52.3372 122.253 51.9285C122.351 51.5198 122.434 51.1463 122.436 51.0985C122.439 51.0507 122.176 51.0918 121.853 51.1899C121.319 51.352 121.25 51.3493 121.11 51.1604C121.025 51.046 120.955 50.9134 120.955 50.8657C120.955 50.8181 121.415 50.6582 121.977 50.5105C122.538 50.3627 123.054 50.2243 123.122 50.2029C123.19 50.1813 123.284 50.1985 123.331 50.2411C123.377 50.2837 123.3 50.6529 123.158 51.0616ZM87.3345 50.4608C87.7475 50.573 88.1274 50.7015 88.1788 50.746C88.2301 50.7907 88.199 50.9273 88.1095 51.0496C87.9722 51.2376 87.8773 51.2528 87.4979 51.148L87.0489 51.0239L86.8013 51.7344L87.2365 51.8162C87.476 51.8611 87.7013 51.9744 87.7372 52.0679C87.7731 52.1616 87.7717 52.3181 87.7342 52.4158C87.6795 52.5586 87.5763 52.5686 87.2087 52.4672C86.8542 52.3692 86.7277 52.378 86.6465 52.5062C86.5888 52.5971 86.5409 52.7693 86.5398 52.8888C86.5384 53.0421 86.7016 53.1497 87.0952 53.2551C87.5723 53.3826 87.6414 53.4406 87.575 53.6571C87.5324 53.7962 87.4804 53.9294 87.4594 53.9532C87.4385 53.977 87.0276 53.895 86.5463 53.771C86.0325 53.6386 85.6713 53.4797 85.6713 53.3862C85.6713 53.2986 85.8476 52.5586 86.0631 51.7417C86.2787 50.925 86.4839 50.2566 86.5193 50.2566C86.5546 50.2566 86.9215 50.3485 87.3345 50.4608ZM119.145 51.3402C119.179 51.4594 119.274 51.9033 119.354 52.3268C119.481 52.9984 119.534 53.0932 119.763 53.0698C119.952 53.0506 120.037 53.1218 120.066 53.3217C120.094 53.5159 120.043 53.6004 119.898 53.6004C119.733 53.6004 119.701 53.6905 119.741 54.0375C119.785 54.4164 119.752 54.4849 119.494 54.5497C119.305 54.5971 119.155 54.5616 119.087 54.453C119.027 54.3587 118.977 54.1777 118.976 54.051C118.975 53.8524 118.91 53.8322 118.51 53.9046C118.255 53.951 117.925 54.0176 117.778 54.0529C117.588 54.0986 117.496 54.0518 117.46 53.8897C117.433 53.7646 117.657 53.1607 117.959 52.5477C118.26 51.9347 118.564 51.3635 118.632 51.2783C118.701 51.1932 118.83 51.1235 118.919 51.1235C119.009 51.1235 119.11 51.2211 119.145 51.3402ZM91.2486 51.4363C91.4494 51.5402 91.613 51.6934 91.612 51.7769C91.6109 51.8603 91.5612 52.0055 91.5017 52.0998C91.4107 52.2433 91.3464 52.2383 91.1045 52.0688C90.9458 51.9576 90.7152 51.8666 90.592 51.8666C90.4688 51.8666 90.334 51.9555 90.2923 52.0642C90.2416 52.1961 90.3846 52.4158 90.7217 52.7241C90.9997 52.9782 91.2656 53.3399 91.3128 53.5279C91.3747 53.7745 91.3302 53.9611 91.1531 54.1984C91.0181 54.3792 90.7398 54.5754 90.5345 54.6342C90.2529 54.7151 90.0209 54.679 89.5877 54.4873C89.2721 54.3478 89.014 54.1579 89.014 54.0655C89.014 53.9731 89.073 53.8385 89.1453 53.7662C89.2379 53.6736 89.4055 53.7004 89.7131 53.8573C89.953 53.9797 90.2282 54.0495 90.3246 54.0126C90.4208 53.9756 90.4996 53.8512 90.4996 53.7361C90.4996 53.6209 90.2768 53.3091 90.0044 53.0431C89.629 52.6764 89.5092 52.4627 89.5092 52.1601C89.5092 51.8761 89.6035 51.6865 89.8354 51.5041C90.0148 51.3629 90.3239 51.2474 90.5225 51.2474C90.721 51.2474 91.0477 51.3324 91.2486 51.4363ZM93.8423 51.8699C94.2849 51.9388 94.8034 52.0271 94.9945 52.0661C95.2636 52.1211 95.3335 52.1975 95.304 52.4043C95.272 52.6298 95.1957 52.6661 94.8164 52.637L94.3667 52.6026L94.2832 53.1943C94.2372 53.5199 94.1407 54.1388 94.0685 54.5699L93.9373 55.3537L93.6115 55.272C93.4323 55.227 93.2741 55.1785 93.2597 55.1641C93.2455 55.1499 93.3147 54.6389 93.4137 54.0287C93.5127 53.4184 93.594 52.8242 93.5942 52.7081C93.5946 52.5648 93.4557 52.4709 93.1614 52.4157C92.8654 52.3602 92.7281 52.2668 92.7281 52.1211C92.7281 52.0038 92.7652 51.8707 92.8107 51.8253C92.856 51.7799 92.9257 51.7431 92.9654 51.7437C93.0051 51.7442 93.3997 51.8009 93.8423 51.8699ZM115.391 52.118C115.522 52.1881 115.718 52.4168 115.826 52.6261C115.934 52.8355 116.028 53.2936 116.035 53.6442C116.043 54.0327 115.963 54.4424 115.831 54.6938C115.701 54.9417 115.441 55.1789 115.178 55.289C114.937 55.3895 114.564 55.4548 114.35 55.434C114.056 55.4054 113.96 55.3357 113.96 55.1484C113.96 54.9519 114.056 54.8928 114.421 54.8624C114.74 54.8361 114.96 54.7257 115.133 54.5052C115.271 54.3298 115.384 54.1393 115.384 54.0821C115.384 54.0249 115.241 54.0323 115.066 54.0988C114.892 54.1652 114.611 54.2196 114.442 54.2196C114.273 54.2196 113.998 54.0827 113.831 53.9155C113.612 53.6966 113.527 53.4764 113.527 53.1275C113.527 52.7696 113.612 52.5584 113.853 52.3169C114.095 52.0749 114.306 51.9904 114.666 51.9904C114.934 51.9904 115.26 52.0478 115.391 52.118ZM105.027 52.7133C105.146 53.0428 105.324 53.4281 105.423 53.5695C105.545 53.7437 105.903 53.8975 106.532 54.0458C107.043 54.1663 107.461 54.3122 107.461 54.3699C107.461 54.4278 107.391 54.4981 107.306 54.5263C107.221 54.5546 106.757 54.6914 106.276 54.8306L105.401 55.0836L105.1 55.8591C104.934 56.2855 104.743 56.6281 104.675 56.6201C104.607 56.6122 104.415 56.2778 104.249 55.8771C104.082 55.4763 103.932 55.1278 103.914 55.1027C103.896 55.0776 103.452 54.9375 102.927 54.7915C102.401 54.6454 101.951 54.4674 101.928 54.3961C101.904 54.3245 102.303 54.1673 102.816 54.0464C103.447 53.8976 103.805 53.7438 103.928 53.5695C104.027 53.4281 104.205 53.0428 104.323 52.7133C104.441 52.3839 104.6 52.1143 104.675 52.1143C104.75 52.1143 104.909 52.3839 105.027 52.7133ZM98.7286 52.731C98.953 52.8698 99.2061 53.1509 99.291 53.3558C99.3785 53.5673 99.4177 53.9724 99.3815 54.293C99.3373 54.6855 99.212 54.9682 98.9704 55.2205C98.7792 55.4201 98.429 55.637 98.1921 55.7024C97.9553 55.7677 97.4333 55.7869 97.0322 55.7451L96.3029 55.6688L96.3674 55.2228C96.4029 54.9775 96.4643 54.4146 96.5041 53.9719C96.5438 53.5292 96.605 52.9683 96.64 52.7255L96.7038 52.284L97.5122 52.3814C97.9568 52.435 98.5042 52.5923 98.7286 52.731ZM111.587 52.8883C111.625 53.1097 111.69 53.7366 111.731 54.2815C111.772 54.8264 111.832 55.3977 111.864 55.5509C111.914 55.7902 111.871 55.8295 111.556 55.8295C111.218 55.8295 111.185 55.7892 111.125 55.3032C111.089 55.0138 111.025 54.4522 110.983 54.0554C110.925 53.4999 110.867 53.3503 110.731 53.4052C110.635 53.4445 110.476 53.5087 110.38 53.5481C110.277 53.5896 110.147 53.5149 110.07 53.3695C109.952 53.1499 110 53.0811 110.462 52.8038C110.752 52.6302 111.108 52.4876 111.254 52.4869C111.456 52.486 111.535 52.5805 111.587 52.8883ZM114.499 52.5759C114.387 52.6018 114.27 52.7195 114.239 52.8376C114.208 52.9556 114.229 53.1756 114.284 53.3263C114.34 53.477 114.488 53.6004 114.614 53.6004C114.739 53.6004 114.943 53.5264 115.066 53.4362C115.223 53.3214 115.265 53.1908 115.205 53.0026C115.158 52.8545 115.026 52.6873 114.911 52.6312C114.797 52.5751 114.611 52.5502 114.499 52.5759ZM118.45 52.9014C118.332 53.1496 118.276 53.3487 118.326 53.344C118.376 53.3392 118.503 53.2974 118.607 53.2511C118.739 53.1924 118.776 53.0582 118.73 52.8085L118.665 52.4502L118.45 52.9014ZM97.2652 53.6313C97.2222 53.989 97.1866 54.4626 97.1861 54.684L97.185 55.0865H97.6712C98.049 55.0865 98.2147 55.0138 98.414 54.7602C98.5551 54.5807 98.6706 54.3047 98.6706 54.1468C98.6706 53.9889 98.6072 53.7205 98.5297 53.5505C98.4522 53.3803 98.2211 53.1826 98.0161 53.1112C97.8111 53.0396 97.5757 52.9812 97.4933 52.9812C97.4047 52.9812 97.3113 53.2478 97.2652 53.6313Z" fill="#E4E1DC"/>
<path d="M11.1765 69.5658H0.799805V87.5372H3.64379V79.4385H10.8947V77.3817H3.64379V71.674H11.1765V69.5658Z" fill="#E4E1DC"/>
<path d="M23.965 74.5536C23.965 76.0447 23.1195 77.6645 20.378 77.6645H18.7638V71.5197H20.378C22.8889 71.5197 23.9394 72.8053 23.965 74.4764V74.5536ZM27.6801 83.8864C26.3222 81.6239 25.2461 79.7984 23.5294 78.8214C25.4254 78.2301 26.8346 76.6618 26.8346 74.5793C26.8346 71.4683 24.5543 69.5401 20.9417 69.5658H15.9455V87.5372H18.7638V79.6699H19.7375C21.2235 79.6699 22.1715 80.1841 24.4774 83.8349L26.809 87.5372H29.9092L27.6801 83.8864Z" fill="#E4E1DC"/>
<path d="M37.6867 80.0555L39.6852 75.1449C40.0695 74.245 40.3257 73.4223 40.4282 72.9852C40.5307 73.3966 40.8381 74.245 41.2481 75.1706L43.4259 80.0555H37.6867ZM41.6836 69.5658H39.6852L32.0243 87.5372H34.484L36.7899 82.1124H44.3483L46.7567 87.5372H49.6519L41.6836 69.5658Z" fill="#E4E1DC"/>
<path d="M63.2034 82.7294C63.2034 79.9784 61.5124 78.6415 58.4891 76.8932C56.8749 75.9676 55.4401 75.1449 55.4658 73.628V73.5766C55.4658 72.2139 56.5419 71.4169 58.3354 71.4169C59.5396 71.4169 61 71.6483 62.4092 72.9081V70.2599C61.1537 69.4115 59.6933 69.1801 58.3354 69.1801C55.0558 69.1801 52.7755 71.057 52.7755 73.9622C52.7755 76.4304 54.364 77.8445 56.67 79.13C59.1296 80.5183 60.5388 81.3411 60.5132 83.1151V83.2179C60.4876 84.5548 59.4627 85.6347 57.4642 85.6347C55.6964 85.6347 54.2359 85.0176 52.8011 83.6807V86.5088C54.0053 87.3315 55.4914 87.8457 57.5411 87.8457C58.9759 87.8457 60.2826 87.4858 61.2818 86.7402C62.5117 85.7889 63.1522 84.5548 63.2034 82.9608C63.2034 82.8837 63.2034 82.8065 63.2034 82.7294Z" fill="#E4E1DC"/>
<path d="M78.8253 85.4033H70.857V79.4385H78.3385V77.3817H70.857V71.674H78.5947V69.5658H68.0131V87.5372H78.8253V85.4033Z" fill="#E4E1DC"/>
<path d="M91.6036 74.5536C91.6036 76.0447 90.7581 77.6645 88.0166 77.6645H86.4025V71.5197H88.0166C90.5275 71.5197 91.578 72.8053 91.6036 74.4764V74.5536ZM95.3187 83.8864C93.9608 81.6239 92.8847 79.7984 91.168 78.8214C93.064 78.2301 94.4732 76.6618 94.4732 74.5793C94.4732 71.4683 92.1929 69.5401 88.5803 69.5658H83.5841V87.5372H86.4025V79.6699H87.3761C88.8621 79.6699 89.8101 80.1841 92.116 83.8349L94.4476 87.5372H97.5478L95.3187 83.8864Z" fill="#E4E1DC"/>
<path d="M120.885 69.5658L116.221 75.8391L111.584 69.5658H108.228L114.735 78.2815V87.5372H117.579V78.2815L124.113 69.5658H120.885Z" fill="#E4E1DC"/>
<path d="M129.712 80.0555L131.71 75.1449C132.094 74.245 132.351 73.4223 132.453 72.9852C132.556 73.3966 132.863 74.245 133.273 75.1706L135.451 80.0555H129.712ZM133.709 69.5658H131.71L124.049 87.5372H126.509L128.815 82.1124H136.373L138.782 87.5372H141.677L133.709 69.5658Z" fill="#E4E1DC"/>
<path d="M160.006 83.7835C158.341 85.1462 156.47 85.7889 154.139 85.7889C149.988 85.7889 147.17 82.6009 147.17 78.5901C147.17 74.5536 149.988 71.3912 154.139 71.3912C156.47 71.3912 158.341 72.0082 160.006 73.3709V70.5942C158.751 69.7714 156.88 69.1801 154.164 69.1801C148.374 69.1801 144.172 73.1652 144.172 78.5901C144.172 83.9892 148.374 88 154.164 88C156.88 88 158.751 87.383 160.006 86.5602V83.7835Z" fill="#E4E1DC"/>
<path d="M179.763 69.5658H176.919V77.3817H167.26V69.5658H164.442V87.5372H167.26V79.4385H176.919V87.5372H179.763V69.5658Z" fill="#E4E1DC"/>
<path d="M198.151 69.5401H183.752V71.674H189.542V87.5372H192.386V71.674H198.151V69.5401Z" fill="#E4E1DC"/>
<path d="M211.8 82.7294C211.8 79.9784 210.109 78.6415 207.085 76.8932C205.471 75.9676 204.037 75.1449 204.062 73.628V73.5766C204.062 72.2139 205.138 71.4169 206.932 71.4169C208.136 71.4169 209.596 71.6483 211.006 72.9081V70.2599C209.75 69.4115 208.29 69.1801 206.932 69.1801C203.652 69.1801 201.372 71.057 201.372 73.9622C201.372 76.4304 202.96 77.8445 205.266 79.13C207.726 80.5183 209.135 81.3411 209.11 83.1151V83.2179C209.084 84.5548 208.059 85.6347 206.061 85.6347C204.293 85.6347 202.832 85.0176 201.398 83.6807V86.5088C202.602 87.3315 204.088 87.8457 206.137 87.8457C207.572 87.8457 208.879 87.4858 209.878 86.7402C211.108 85.7889 211.749 84.5548 211.8 82.9608C211.8 82.8837 211.8 82.8065 211.8 82.7294Z" fill="#E4E1DC"/>
</svg>
