<svg width="202" height="43" viewBox="0 0 202 43" fill="none" xmlns="http://www.w3.org/2000/svg">
<path d="M84.391 8.6V34.4H79.9257V14.1542H79.8662L71.8881 34.4H68.9112L60.7545 14.1542H60.6949V34.4H56.5868V8.6H63.0169L70.3996 27.7111H70.5187L78.3182 8.6H84.391ZM88.0824 10.5708C88.0824 9.85417 88.3205 9.25694 88.8564 8.77917C89.3922 8.30139 89.9876 8.0625 90.7021 8.0625C91.476 8.0625 92.131 8.30139 92.6073 8.77917C93.0836 9.25694 93.3813 9.85417 93.3813 10.5708C93.3813 11.2875 93.1431 11.8847 92.6073 12.3625C92.0714 12.8403 91.476 13.0792 90.7021 13.0792C89.9281 13.0792 89.3327 12.8403 88.8564 12.3625C88.3801 11.825 88.0824 11.2278 88.0824 10.5708ZM92.905 15.8861V34.4H88.5587V15.8861H92.905ZM106.063 31.2347C106.718 31.2347 107.432 31.1153 108.206 30.7569C108.98 30.4583 109.695 30.0403 110.35 29.5625V33.6236C109.635 34.0417 108.861 34.3403 107.968 34.5194C107.075 34.6986 106.122 34.8181 105.051 34.8181C102.312 34.8181 100.109 33.9819 98.442 32.25C96.7154 30.5181 95.8818 28.3083 95.8818 25.6806C95.8818 22.6944 96.7749 20.2458 98.5015 18.3347C100.228 16.4236 102.669 15.4681 105.884 15.4681C106.718 15.4681 107.551 15.5875 108.325 15.7667C109.159 15.9458 109.814 16.2444 110.29 16.4833V20.6639C109.635 20.1861 108.921 19.7681 108.266 19.5292C107.551 19.2903 106.837 19.1111 106.122 19.1111C104.396 19.1111 103.026 19.6486 101.955 20.7833C100.883 21.9181 100.407 23.4111 100.407 25.3222C100.407 27.1736 100.943 28.6667 101.955 29.6819C102.967 30.6972 104.336 31.2347 106.063 31.2347ZM122.674 15.5875C123.031 15.5875 123.329 15.5875 123.627 15.6472C123.924 15.7069 124.162 15.7667 124.341 15.8264V20.2458C124.103 20.0667 123.805 19.8875 123.329 19.7681C122.853 19.6486 122.376 19.5292 121.721 19.5292C120.65 19.5292 119.757 20.0069 119.042 20.9028C118.328 21.7986 117.911 23.1722 117.911 25.0833V34.4H113.565V15.8861H117.911V18.8125H117.97C118.387 17.7972 118.983 17.0208 119.757 16.4236C120.59 15.8861 121.543 15.5875 122.674 15.5875ZM124.579 25.4417C124.579 22.3958 125.472 19.9472 127.139 18.1556C128.866 16.3639 131.247 15.4681 134.284 15.4681C137.142 15.4681 139.404 16.3042 141.012 18.0361C142.619 19.7681 143.453 22.0972 143.453 25.0236C143.453 28.0097 142.56 30.3986 140.893 32.1903C139.166 33.9819 136.844 34.8778 133.867 34.8778C131.009 34.8778 128.747 34.0417 127.08 32.3694C125.413 30.6375 124.579 28.3083 124.579 25.4417ZM129.104 25.2625C129.104 27.1736 129.521 28.6667 130.414 29.6819C131.307 30.6972 132.557 31.2347 134.165 31.2347C135.713 31.2347 136.963 30.7569 137.797 29.6819C138.63 28.6667 139.047 27.1736 139.047 25.1431C139.047 23.1722 138.63 21.6792 137.797 20.6042C136.963 19.5889 135.713 19.0514 134.224 19.0514C132.617 19.0514 131.426 19.5889 130.533 20.6639C129.521 21.7986 129.104 23.2917 129.104 25.2625ZM149.942 20.7833C149.942 21.3806 150.121 21.9181 150.538 22.2764C150.954 22.6347 151.788 23.0528 153.157 23.5903C154.884 24.3069 156.134 25.0833 156.789 25.9194C157.504 26.8153 157.861 27.8306 157.861 29.0847C157.861 30.8167 157.206 32.1903 155.837 33.2653C154.527 34.3403 152.681 34.8181 150.419 34.8181C149.645 34.8181 148.811 34.6986 147.858 34.5194C146.906 34.3403 146.132 34.1014 145.477 33.8028V29.5028C146.251 30.0403 147.144 30.5181 148.037 30.8167C148.93 31.1153 149.764 31.2944 150.538 31.2944C151.49 31.2944 152.264 31.175 152.681 30.8764C153.157 30.5778 153.395 30.1597 153.395 29.5028C153.395 28.9056 153.157 28.4278 152.681 27.95C152.205 27.5319 151.252 27.0542 149.942 26.5167C148.335 25.8597 147.204 25.0833 146.549 24.2472C145.894 23.4111 145.536 22.3361 145.536 21.0222C145.536 19.35 146.191 17.9764 147.501 16.9014C148.811 15.8264 150.538 15.2889 152.621 15.2889C153.276 15.2889 153.991 15.3486 154.765 15.5278C155.539 15.7069 156.253 15.8861 156.789 16.0653V20.3056C156.194 19.9472 155.539 19.5889 154.765 19.2903C153.991 18.9917 153.217 18.8722 152.502 18.8722C151.669 18.8722 151.014 19.0514 150.597 19.35C150.18 19.7681 149.942 20.1861 149.942 20.7833ZM159.706 25.4417C159.706 22.3958 160.6 19.9472 162.267 18.1556C163.993 16.3639 166.375 15.4681 169.411 15.4681C172.269 15.4681 174.531 16.3042 176.139 18.0361C177.746 19.7681 178.58 22.0972 178.58 25.0236C178.58 28.0097 177.687 30.3986 176.02 32.1903C174.293 33.9819 171.971 34.8778 168.994 34.8778C166.137 34.8778 163.874 34.0417 162.207 32.3694C160.6 30.6375 159.706 28.3083 159.706 25.4417ZM164.231 25.2625C164.231 27.1736 164.648 28.6667 165.541 29.6819C166.434 30.6972 167.685 31.2347 169.292 31.2347C170.84 31.2347 172.09 30.7569 172.924 29.6819C173.757 28.6667 174.174 27.1736 174.174 25.1431C174.174 23.1722 173.757 21.6792 172.924 20.6042C172.09 19.5889 170.84 19.0514 169.352 19.0514C167.744 19.0514 166.553 19.5889 165.66 20.6639C164.708 21.7986 164.231 23.2917 164.231 25.2625ZM193.048 19.4694H186.558V34.4H182.152V19.4694H179.056V15.8861H182.152V13.3181C182.152 11.4069 182.807 9.79444 184.057 8.54028C185.308 7.28611 186.915 6.68889 188.88 6.68889C189.416 6.68889 189.892 6.74861 190.309 6.74861C190.726 6.74861 191.083 6.86806 191.381 6.9875V10.75C191.262 10.6903 190.964 10.5708 190.607 10.4514C190.249 10.3319 189.833 10.2722 189.356 10.2722C188.463 10.2722 187.749 10.5708 187.273 11.1083C186.796 11.6458 186.558 12.5417 186.558 13.6167V15.8264H193.048V11.6458L197.394 10.3319V15.8264H201.8V19.4097H197.394V28.0694C197.394 29.2042 197.632 29.9806 197.989 30.4583C198.406 30.9361 199.061 31.175 199.954 31.175C200.192 31.175 200.49 31.1153 200.847 30.9958C201.204 30.8764 201.502 30.7569 201.74 30.5778V34.1611C201.443 34.3403 201.026 34.4597 200.371 34.5792C199.716 34.6986 199.121 34.7583 198.466 34.7583C196.62 34.7583 195.251 34.2806 194.358 33.325C193.464 32.3694 192.988 30.8764 192.988 28.9056L193.048 19.4694Z" fill="#E4E1DC"/>
<path d="M21.1618 0H0.799805V20.425H21.1618V0Z" fill="#E4E1DC"/>
<path d="M43.6671 0H23.3051V20.425H43.6671V0Z" fill="#E4E1DC"/>
<path d="M21.1618 22.575H0.799805V43H21.1618V22.575Z" fill="#E4E1DC"/>
<path d="M43.6671 22.575H23.3051V43H43.6671V22.575Z" fill="#E4E1DC"/>
</svg>
