<svg width="133" height="47" viewBox="0 0 133 47" fill="none" xmlns="http://www.w3.org/2000/svg">
<path fill-rule="evenodd" clip-rule="evenodd" d="M17.7083 2.08415C9.11879 12.0637 0.883058 24.4393 0.800475 33.6896C0.768311 37.17 1.89144 40.2085 4.5854 42.5099C8.46247 45.8243 12.7342 46.9931 16.9851 47C23.1971 47.0086 29.3656 44.5292 34.1954 42.6174C42.3295 39.3992 132.244 0.770053 132.244 0.770053C133.111 0.340047 132.949 -0.195737 131.863 0.0717267C131.425 0.180088 33.9772 26.3064 33.9772 26.3064C32.1314 26.8228 30.2241 27.093 28.3059 27.1096C20.8169 27.1535 14.1529 23.0409 14.2068 14.3746C14.2277 10.9836 15.2769 6.8942 17.7083 2.08415Z" fill="#E4E1DC"/>
</svg>
