<svg width="650" height="136" viewBox="0 0 650 136" fill="none" xmlns="http://www.w3.org/2000/svg">
<path d="M0.799805 2.94055V133.795H45.1485C64.9207 133.795 80.6275 128.097 92.4538 116.335C103.911 104.757 109.639 88.7676 109.639 68.3676C109.639 47.7838 103.911 31.7946 92.4538 20.2162C80.8123 8.82163 65.1054 2.94055 45.1485 2.94055H0.799805ZM16.3218 119.827V16.9081H45.1485C60.6706 16.9081 72.4969 21.5027 80.8123 30.5081C89.1277 39.6973 93.3778 52.1946 93.3778 68.3676C93.3778 84.5406 89.1277 97.2216 80.8123 106.227C72.4969 115.416 60.6706 119.827 45.1485 119.827H16.3218Z" fill="white"/>
<path d="M195.627 122.4C204.127 113.578 208.562 101.449 208.562 86.3784C208.562 71.3081 204.127 59.3622 195.627 50.3568C186.757 41.3514 175.67 36.7568 162.365 36.7568C148.876 36.7568 137.789 41.3514 129.104 50.3568C120.419 59.3622 116.169 71.3081 116.169 86.3784C116.169 101.449 120.419 113.578 129.104 122.4C137.789 131.589 148.876 136 162.365 136C175.67 136 186.757 131.589 195.627 122.4ZM140.006 113.027C134.462 106.778 131.691 97.773 131.691 86.3784C131.691 74.9838 134.462 65.9784 140.006 59.546C145.55 53.2973 152.941 49.9892 162.365 49.9892C171.604 49.9892 179.181 53.2973 184.724 59.546C190.268 65.9784 193.04 74.9838 193.04 86.3784C193.04 97.773 190.268 106.778 184.724 113.027C179.181 119.643 171.604 122.768 162.365 122.768C152.941 122.768 145.55 119.643 140.006 113.027Z" fill="white"/>
<path d="M262.762 36.7568C250.012 36.7568 240.033 42.2703 232.826 53.1135V38.9622H218.783V133.795H233.566V80.1297C233.566 70.3892 236.153 62.8541 241.511 57.7081C246.685 52.5622 252.783 49.9892 259.805 49.9892C274.219 49.9892 281.61 57.1568 281.61 71.1243V133.795H296.393V69.6541C296.393 59.3622 293.436 51.2757 287.523 45.3946C281.61 39.6973 273.295 36.7568 262.762 36.7568Z" fill="white"/>
<path d="M343.564 120.93C336.173 120.93 329.336 121.114 323.238 121.297C323.607 120.746 325.27 118.724 328.227 115.049C330.999 111.557 333.401 108.432 335.618 105.859L379.228 49.9892V38.9622H306.607V51.827H340.423C347.814 51.827 354.466 51.827 360.749 51.4595C360.195 52.1946 358.532 54.2162 355.76 57.7081C352.803 61.3838 350.401 64.3243 348.368 66.8973L304.759 122.768V133.795H381.815V120.93H343.564Z" fill="white"/>
<path d="M467.79 86.3784C467.79 72.227 463.909 60.4649 456.148 50.9081C448.387 41.5351 437.669 36.7568 423.995 36.7568C410.691 36.7568 400.158 41.3514 392.212 50.3568C384.081 59.546 380.016 71.4919 380.016 86.3784C380.016 101.632 384.081 113.762 392.397 122.584C400.527 131.589 411.06 136 424.365 136C435.082 136 443.952 133.243 450.974 127.73C457.996 122.216 462.8 114.497 465.387 104.941H450.05C446.354 116.703 437.854 122.584 424.734 122.584C415.865 122.584 409.028 120.011 404.038 114.865C398.864 109.719 396.092 101.816 395.353 91.5243H467.79V86.3784ZM423.995 50.173C431.941 50.173 438.409 52.9297 443.398 58.0757C448.202 63.2216 451.159 70.0216 451.898 78.2919H395.723C396.832 69.2865 399.973 62.3027 404.962 57.5243C409.767 52.7459 416.234 50.173 423.995 50.173Z" fill="white"/>
<path d="M492.721 133.795V2.94055H477.938V133.795H492.721Z" fill="white"/>
<path d="M522.323 133.795V2.94055H507.54V133.795H522.323Z" fill="white"/>
<path d="M552.295 24.627V6.61622H536.588V24.627H552.295ZM551.925 133.795V38.9622H537.142V133.795H551.925Z" fill="white"/>
<path d="M572.559 12.6811C563.689 21.1351 559.439 31.427 559.439 43.5568C559.439 55.6865 563.689 65.9784 572.559 74.4324C581.244 82.8865 591.962 87.1135 604.712 87.1135C617.277 87.1135 627.995 82.8865 636.865 74.4324C645.365 65.9784 649.8 55.6865 649.8 43.5568C649.8 31.427 645.365 21.1351 636.865 12.6811C627.995 4.22703 617.277 0 604.712 0C591.962 0 581.244 4.22703 572.559 12.6811ZM604.712 78.4757C594.364 78.4757 585.679 75.1676 579.027 68.3676C572.005 61.5676 568.679 53.2973 568.679 43.5568C568.679 33.8162 572.005 25.5459 579.027 18.5622C585.679 11.9459 594.364 8.45405 604.712 8.45405C614.875 8.45405 623.375 11.9459 630.213 18.5622C637.05 25.5459 640.56 33.8162 640.56 43.5568C640.56 53.2973 637.05 61.5676 630.213 68.3676C623.375 75.1676 614.875 78.4757 604.712 78.4757ZM622.267 52.3784C621.897 47.9676 620.049 45.027 616.723 43.7405C621.158 41.9027 623.56 38.227 623.56 32.7135C623.56 28.6703 622.082 25.3622 619.125 23.1568C616.169 20.9514 612.288 19.6649 607.114 19.6649H587.157V66.346H595.288V47.6H608.038C610.255 47.6 611.734 48.1514 612.658 49.0703C613.582 50.173 614.136 51.827 614.506 54.4L614.875 59.1784C614.875 62.4865 615.614 64.8757 616.723 66.346H625.039C623.56 64.3243 622.821 61.9351 622.821 59.1784L622.267 52.3784ZM595.288 40.2487V27.0162H607.114C612.473 27.0162 615.245 29.2216 615.245 33.6324C615.245 38.0432 612.658 40.2487 607.853 40.2487H595.288Z" fill="white"/>
</svg>
