<svg width="231" height="19" viewBox="0 0 231 19" fill="none" xmlns="http://www.w3.org/2000/svg">
<path d="M19.8163 6.84495L26.0925 0H18.98L13.8948 6.65596C13.4132 7.22769 12.4806 7.6422 11.7711 7.6422H10.5817V0H0.799805V18.3257H10.5496V12.7037H12.0954C12.8033 12.7037 13.1564 12.8958 13.5432 13.5962L16.2785 18.3257H28.0556L22.5852 9.13825C22.1341 8.37593 20.911 7.73749 19.6252 7.73749C19.3042 7.73749 18.98 7.77084 19.8163 6.84495Z" fill="#E4E1DC"/>
<path d="M31.2065 18.3067H40.4122V7.67397H31.2065V18.3067Z" fill="#E4E1DC"/>
<path d="M35.9611 6.77825C38.5069 6.60037 40.4876 5.29015 40.3865 3.85128C40.2822 2.414 38.1361 1.38964 35.5919 1.56751C33.0461 1.74538 31.0653 3.05561 31.168 4.4913C31.2707 5.93017 33.4169 6.95294 35.9611 6.77825Z" fill="#E4E1DC"/>
<path d="M44.0142 7.60885H47.1041V4.04344H55.7913V7.60885H59.3965V11.1107H55.9213V13.2119C55.9213 15.313 58.366 15.1844 59.4591 14.233V17.2235C56.114 18.6878 50.6114 19.0706 48.3915 17.5729C47.2326 16.7789 47.1041 16.1404 47.1041 15.1844V11.1743H44.0142" fill="#E4E1DC"/>
<path d="M80.6008 8.21553C75.8383 5.85871 69.3534 6.27321 66.1543 7.99319C61.021 10.747 61.0996 15.2415 66.0885 17.7969C69.6921 19.6455 78.2509 19.1341 80.5687 17.033V14.0742C77.1594 15.7926 74.7869 15.5433 73.3615 15.0605C71.1416 14.3109 71.0886 11.2108 73.9394 10.6661C75.7725 10.3167 78.092 10.3484 80.6008 11.6539" fill="#E4E1DC"/>
<path d="M83.6908 1.53098V18.3083H92.3459V13.1483C92.4743 9.90056 96.5947 10.5056 96.5947 12.8958V18.3083H105.216V11.6872C105.216 8.56492 99.5547 5.06304 92.4117 8.62686L92.5385 1.53098" fill="#E4E1DC"/>
<path d="M133.082 7.6422V18.3067H142.35V12.5766C142.35 10.6009 146.532 9.64804 146.532 12.6401V18.2431H154.707V11.7492C154.707 8.70309 150.31 4.77082 142.35 8.82062V7.6422" fill="#E4E1DC"/>
<path d="M187.69 18.2955H196.892V7.66444H187.69V18.2955Z" fill="#E4E1DC"/>
<path d="M192.446 6.76713C194.99 6.59084 196.969 5.2822 196.868 3.84016C196.767 2.40288 194.619 1.38011 192.073 1.55798C189.529 1.73427 187.55 3.04449 187.653 4.48177C187.752 5.92223 189.898 6.945 192.446 6.76713Z" fill="#E4E1DC"/>
<path fill-rule="evenodd" clip-rule="evenodd" d="M226.654 4.63265V3.43359H227.463C227.874 3.43359 228.313 3.52412 228.313 4.00215C228.313 4.59612 227.866 4.63265 227.365 4.63265H226.654ZM227.373 8.22823C229.22 8.22823 230.8 6.80683 230.8 4.86452C230.8 2.93809 229.22 1.51669 227.373 1.51669C225.504 1.51669 223.928 2.93809 223.928 4.86452C223.928 6.80683 225.504 8.22823 227.373 8.22823ZM224.609 4.86452C224.609 3.27478 225.821 2.07572 227.373 2.07572C228.907 2.07572 230.119 3.27478 230.119 4.86452C230.119 6.47967 228.907 7.6692 227.373 7.6692C225.821 7.6692 224.609 6.47967 224.609 4.86452ZM226.654 5.12974H227.336L228.37 6.80683H229.033L227.919 5.10433C228.493 5.03286 228.933 4.72953 228.933 4.03868C228.933 3.27478 228.477 2.93809 227.551 2.93809H226.063V6.80683H226.654" fill="#E4E1DC"/>
<path fill-rule="evenodd" clip-rule="evenodd" d="M118.196 11.4982H121.64C121.696 10.4151 120.767 9.87356 119.781 9.87356C118.958 9.87356 118.196 10.5755 118.196 11.4982ZM129.931 14.233C124.075 13.7868 117.831 14.1679 117.831 14.1679C119.632 17.0965 126.971 16.6518 129.414 14.7413L129.157 17.2235C124.266 20.0902 109.337 19.9631 109.078 13.277C108.85 7.37381 117.703 6.52732 119.632 6.52732C124.2 6.52732 130.894 8.62845 129.931 14.233Z" fill="#E4E1DC"/>
<path fill-rule="evenodd" clip-rule="evenodd" d="M165.455 10.9853L168.156 6.01752L170.344 10.9853H165.455ZM156.734 18.2606H161.753L163.911 14.1695H171.762L173.63 18.2606H185.532L176.266 0.0349395H164.423C165.583 0.481211 165.904 1.24353 165.583 1.87879" fill="#E4E1DC"/>
<path fill-rule="evenodd" clip-rule="evenodd" d="M213.387 11.5237C211.838 10.3865 208.864 10.6708 208.864 12.4908C208.864 15.1049 212.397 14.6491 213.387 13.8535V11.5237ZM222.089 1.55957V18.2431H213.401V17.0965C209.09 20.4078 199.433 18.6243 199.433 13.277C199.433 6.71631 209.923 5.82694 213.462 8.11865V1.55957" fill="#E4E1DC"/>
</svg>
