<svg width="781" height="324" viewBox="0 0 781 324" fill="none" xmlns="http://www.w3.org/2000/svg">
<path fill-rule="evenodd" clip-rule="evenodd" d="M383.921 0.628943C383.669 1.11272 382.489 4.10524 381.297 7.27831C379.917 10.953 378.688 13.4681 377.913 14.2044C376.998 15.074 374.763 15.887 368.906 17.4806C364.621 18.6465 360.941 19.7668 360.726 19.9702C360.512 20.174 361.44 20.6559 362.788 21.0412C364.137 21.427 367.714 22.3918 370.739 23.1852C373.842 24 376.837 25.0788 377.612 25.662C378.713 26.4896 379.481 28.0275 381.462 33.3669C382.823 37.0361 384.189 40.0382 384.498 40.0382C384.806 40.0382 386.156 37.1141 387.499 33.5406C389.133 29.1884 390.349 26.656 391.183 25.8713C392.098 25.009 393.98 24.2977 398.308 23.1783C401.544 22.3416 405.196 21.3659 406.424 21.0098C407.653 20.6541 408.478 20.1913 408.257 19.9815C408.037 19.7718 404.351 18.6465 400.067 17.4806C394.234 15.8934 391.973 15.0721 391.068 14.2122C390.288 13.4712 389.085 10.9712 387.68 7.17024C386.481 3.92922 385.248 0.93353 384.939 0.513129C384.42 -0.19362 384.343 -0.184502 383.921 0.628943ZM332.233 19.759C330.714 20.0914 328.033 20.9012 326.276 21.5592C324.519 22.2167 321.741 23.4857 320.102 24.3789C318.464 25.2721 316.093 26.7426 314.833 27.6468C313.572 28.5505 309.919 31.8166 306.715 34.904C302.311 39.1468 300.185 40.8489 298.008 41.8734C295.857 42.8861 294.463 43.2295 292.5 43.2295C290.244 43.2299 289.661 43.0416 288.376 41.8994C287.091 40.7572 286.879 40.268 286.879 38.4423C286.879 36.6029 287.088 36.1301 288.424 34.9423C289.862 33.6642 289.916 33.5169 289.21 32.8138C288.69 32.2977 287.669 32.0587 285.977 32.0587C283.855 32.0587 283.297 32.2534 282.057 33.4266C281.262 34.179 280.299 35.39 279.917 36.1178C279.433 37.0402 279.275 38.3671 279.397 40.4996C279.537 42.9846 279.81 43.871 280.848 45.2248C281.55 46.1413 283.136 47.4011 284.372 48.0244C286.11 48.9004 287.325 49.1575 289.728 49.1571C292.208 49.1571 293.406 48.8889 295.653 47.8311C297.201 47.102 299.353 45.7172 300.434 44.7538C301.766 43.5669 302.277 43.2961 302.019 43.9139C301.81 44.4155 301.145 46.4673 300.541 48.4736C299.937 50.4798 299.322 53.968 299.174 56.225C298.974 59.28 299.1 61.0792 299.665 63.2665C300.082 64.8824 300.942 66.8805 301.575 67.7062C302.208 68.532 303.101 69.4075 303.56 69.6519L304.393 70.0955L303.777 67.4919C303.439 66.0597 303.158 63.1256 303.155 60.9716C303.15 58.5194 303.491 55.7157 304.068 53.4728C304.574 51.5025 305.801 48.2383 306.794 46.2183C307.786 44.1984 309.423 41.3048 310.431 39.7878C311.439 38.2708 313.14 36.0389 314.212 34.8278C315.283 33.6168 317.379 31.6156 318.871 30.3808C320.362 29.146 321.649 28.2026 321.732 28.2842C321.814 28.3663 321.275 29.6594 320.533 31.1582C319.791 32.6565 318.966 35.0731 318.699 36.5281C318.351 38.4268 318.359 39.8663 318.727 41.6295C319.009 42.9805 319.696 44.7652 320.253 45.5955C320.81 46.4263 321.984 47.4645 322.861 47.9027C323.802 48.3737 325.488 48.6997 326.976 48.6993C328.696 48.6983 329.978 48.4061 331.013 47.7778C331.848 47.2716 332.827 46.1509 333.19 45.2864C333.553 44.4223 333.85 43.3138 333.85 42.8237C333.85 41.9815 333.772 41.9706 332.448 42.6281C331.676 43.0106 330.284 43.4164 329.354 43.5291C328.266 43.6608 327.103 43.4406 326.091 42.9117C325.174 42.4325 324.127 41.3295 323.579 40.2662C322.947 39.0401 322.649 37.6202 322.672 35.9345C322.692 34.4476 323.095 32.5512 323.663 31.2758C324.189 30.0926 325.596 28.0868 326.788 26.8183C328.093 25.4299 330.067 23.9868 331.747 23.1925C333.282 22.467 335.774 21.5624 337.287 21.1821C338.799 20.8018 340.655 20.4143 341.411 20.3212L342.786 20.1516L341.496 19.6077C340.786 19.3085 339.034 19.0842 337.601 19.1093C336.168 19.1348 333.753 19.4271 332.233 19.759ZM427.332 19.6341L426.187 20.1471L427.561 20.319C428.318 20.4133 430.173 20.8018 431.686 21.1821C433.198 21.5624 435.691 22.467 437.225 23.1925C438.905 23.9868 440.879 25.4299 442.184 26.8183C443.377 28.0868 444.784 30.0926 445.311 31.2758C445.912 32.6241 446.27 34.3824 446.271 35.9883C446.273 37.648 445.953 39.1728 445.364 40.32C444.842 41.3354 443.783 42.4402 442.881 42.9117C441.869 43.4406 440.706 43.6608 439.618 43.5291C438.688 43.4164 437.296 43.0106 436.525 42.6281C435.2 41.9706 435.123 41.9815 435.123 42.8237C435.123 43.3138 435.42 44.4223 435.782 45.2864C436.145 46.1509 437.125 47.2716 437.959 47.7778C438.974 48.3933 440.278 48.6988 441.896 48.6997C443.228 48.7006 444.997 48.4188 445.829 48.0728C446.661 47.7271 447.792 46.874 448.343 46.1773C448.894 45.4801 449.675 43.7794 450.079 42.3973C450.684 40.3254 450.725 39.3601 450.315 36.8956C450.041 35.2519 449.204 32.6757 448.454 31.1701C447.704 29.6649 447.158 28.3663 447.24 28.2842C447.323 28.2026 448.61 29.146 450.102 30.3808C451.593 31.6156 453.681 33.6068 454.741 34.805C455.801 36.0038 457.629 38.4354 458.803 40.2087C459.978 41.982 461.637 44.9366 462.49 46.7746C463.343 48.6126 464.443 51.6776 464.933 53.5854C465.482 55.7207 465.822 58.5614 465.818 60.9716C465.814 63.1256 465.534 66.0597 465.195 67.4919C464.634 69.8648 464.645 70.0604 465.322 69.7002C465.73 69.4827 466.415 68.9191 466.844 68.4477C467.272 67.9766 468.095 66.5723 468.672 65.3275C469.592 63.3408 469.714 62.3961 469.669 57.5929C469.627 53.1399 469.405 51.4424 468.476 48.4736C467.847 46.4673 467.162 44.4155 466.953 43.9139C466.695 43.2961 467.206 43.5669 468.538 44.7538C469.619 45.7172 471.771 47.102 473.32 47.8311C475.542 48.8771 476.764 49.1548 479.114 49.147C481.113 49.1406 482.769 48.8324 484.147 48.2105C485.276 47.7007 486.587 46.9356 487.059 46.5106C487.532 46.0857 488.309 44.9763 488.786 44.0461C489.335 42.9764 489.654 41.4065 489.654 39.7764C489.654 38.0091 489.356 36.6772 488.706 35.5405C488.185 34.6286 487.206 33.4722 486.53 32.9707C485.669 32.3319 484.585 32.0587 482.911 32.0587C481.298 32.0587 480.275 32.3041 479.763 32.8138C479.056 33.5169 479.111 33.6642 480.548 34.9423C481.884 36.1301 482.093 36.6029 482.093 38.4423C482.093 40.268 481.881 40.7572 480.596 41.8994C479.311 43.0416 478.728 43.2299 476.472 43.2295C474.514 43.2295 473.116 42.8861 470.985 41.883C468.818 40.863 466.654 39.1212 462.049 34.6915C458.707 31.4765 454.49 27.8679 452.677 26.6729C450.864 25.4782 447.796 23.7715 445.858 22.8806C443.92 21.9896 440.376 20.7663 437.983 20.1621C435.589 19.558 432.471 19.0769 431.054 19.0924C429.637 19.1084 427.962 19.3523 427.332 19.6341ZM351.006 23.9653C350.578 25.9087 350.052 27.8379 349.837 28.2523C349.622 28.6664 347.479 29.7803 345.075 30.7273C342.67 31.6739 340.862 32.5936 341.057 32.7701C341.251 32.947 343.164 33.3359 345.306 33.6346C347.448 33.9332 349.665 34.4749 350.232 34.8383C350.798 35.2013 351.979 36.9153 352.855 38.6466C353.731 40.3779 354.624 41.9022 354.839 42.0344C355.054 42.1666 355.596 40.6943 356.044 38.7628C356.491 36.8309 357.138 34.8069 357.481 34.2652C357.862 33.6642 359.637 32.7039 362.03 31.8052C364.189 30.995 366.05 30.1783 366.166 29.9914C366.282 29.804 365.709 29.5331 364.892 29.3891C364.075 29.2445 362.273 28.9892 360.886 28.8209C359.5 28.6527 357.851 28.2523 357.22 27.9313C356.541 27.5857 355.328 25.9406 354.242 23.8937C353.234 21.9937 352.268 20.4375 352.096 20.4352C351.924 20.4334 351.434 22.022 351.006 23.9653ZM416.241 21.4302C415.86 22.0097 415.02 23.5221 414.373 24.792C413.727 26.0614 412.89 27.355 412.513 27.666C412.136 27.9769 409.736 28.5565 407.179 28.9536C404.621 29.3503 402.697 29.8209 402.901 29.9991C403.107 30.1774 404.958 30.9863 407.016 31.7966C409.075 32.6073 411.071 33.6141 411.453 34.034C411.835 34.4539 412.493 36.3362 412.915 38.2161C413.337 40.0961 413.819 41.7809 413.985 41.9605C414.151 42.1397 415.174 40.6519 416.259 38.6539C417.343 36.6558 418.601 34.8233 419.055 34.5821C419.508 34.3409 421.762 33.894 424.064 33.589C426.365 33.2839 428.249 32.8813 428.249 32.6939C428.249 32.5065 426.548 31.7118 424.468 30.9275C422.389 30.1437 420.251 29.0202 419.717 28.4311C419.151 27.8064 418.515 26.1403 418.192 24.4341C417.887 22.825 417.479 21.2542 417.285 20.9427C417.032 20.5346 416.741 20.6705 416.241 21.4302ZM373.488 46.2753C372.228 46.3551 368.104 46.7395 364.323 47.1289C360.543 47.5188 353.944 48.4366 349.659 49.1689C345.375 49.9016 339.352 51.1168 336.274 51.8696C333.198 52.6224 329.432 53.7432 327.906 54.3601C326.381 54.977 323.949 56.199 322.503 57.0763C321.056 57.9531 318.755 59.7619 317.387 61.0956C316.02 62.4293 314.002 64.9021 312.902 66.59C311.803 68.2785 310.263 71.1511 309.481 72.9736C308.698 74.7965 306.527 80.699 304.655 86.0908C302.783 91.4827 300.631 98.2538 299.87 101.138C298.863 104.961 298.42 107.866 298.235 111.865C298.046 115.974 298.171 118.275 298.734 121.041C299.148 123.072 300.089 126.189 300.826 127.966C301.563 129.745 303.136 132.694 304.322 134.521C305.508 136.348 308.152 139.559 310.197 141.656C312.243 143.753 315.566 146.753 317.582 148.323C319.598 149.893 323.619 152.718 326.518 154.6C329.416 156.483 334.262 159.357 337.287 160.987C340.311 162.617 347.629 166.36 353.548 169.305C359.468 172.25 368.197 176.482 372.946 178.708C377.695 180.935 382.347 182.878 383.282 183.028C384.218 183.176 385.891 183.055 387.001 182.758C388.11 182.46 395.376 179.174 403.146 175.456C410.916 171.737 420.826 166.814 425.167 164.515C429.509 162.216 435.638 158.807 438.789 156.939C441.939 155.072 446.373 152.223 448.641 150.61C450.909 148.996 454.448 146.133 456.504 144.248C458.561 142.362 461.3 139.432 462.592 137.735C463.883 136.039 465.863 132.805 466.991 130.548C468.119 128.291 469.452 124.821 469.954 122.837C470.607 120.255 470.864 117.729 470.859 113.946C470.854 110.427 470.545 107.214 469.933 104.33C469.428 101.947 467.146 94.4191 464.863 87.601C462.352 80.1017 459.71 73.1783 458.177 70.0768C455.993 65.6621 455.12 64.4301 451.886 61.2128C448.902 58.2436 447.337 57.095 444.262 55.6172C442.134 54.5949 438.33 53.2471 435.81 52.6229C433.29 51.9986 428.537 50.9718 425.249 50.3412C421.96 49.7106 415.671 48.6828 411.272 48.0568C406.873 47.4308 400.501 46.7044 397.111 46.4422C393.721 46.1801 387.535 46.0027 383.364 46.0478C379.193 46.093 374.748 46.1955 373.488 46.2753ZM269.78 55.1234C268.44 55.3537 266.212 56.0937 264.829 56.7676C263.446 57.4415 261.583 58.7976 260.69 59.7811C259.797 60.7646 258.744 62.3163 258.35 63.2286C257.956 64.1415 257.615 66.2221 257.592 67.8522C257.56 70.2355 257.805 71.3298 258.848 73.4414C259.56 74.8855 260.797 76.5629 261.597 77.1689C262.396 77.7749 263.998 78.5077 265.157 78.7977C266.709 79.1857 267.754 79.1925 269.133 78.8232C270.245 78.5254 271.492 77.7439 272.208 76.8972L273.413 75.4718L270.523 74.0556C268 72.8195 267.526 72.3772 266.787 70.5715C266.059 68.7905 266.017 68.2233 266.487 66.4847C266.818 65.2623 267.697 63.8059 268.714 62.7941C269.973 61.5402 271.023 60.9921 272.911 60.6023C274.687 60.2352 276.148 60.2179 277.87 60.5425C279.213 60.7961 281.206 61.3975 282.301 61.8794C283.395 62.3609 285.223 63.6098 286.362 64.6545C287.501 65.6995 289.082 67.5608 289.876 68.7914C290.67 70.0221 291.812 72.4802 292.415 74.2535C293.018 76.0267 293.741 79.3544 294.021 81.6479C294.405 84.7877 294.395 86.8897 293.982 90.1572C293.68 92.5437 293.017 95.8367 292.51 97.475C292.001 99.1133 290.97 101.685 290.217 103.19C289.464 104.694 288.096 106.712 287.176 107.674C286.257 108.636 284.68 109.848 283.672 110.368C282.517 110.963 280.622 111.392 278.552 111.527C275.852 111.702 274.909 111.569 273.272 110.781C272.176 110.253 270.923 109.22 270.487 108.487C270.052 107.753 269.695 106.517 269.695 105.741C269.695 104.965 269.473 104.33 269.202 104.33C268.93 104.33 268.106 104.929 267.369 105.662C266.284 106.742 266.029 107.387 266.029 109.052C266.029 110.184 266.249 111.687 266.518 112.393C266.787 113.099 267.457 114.158 268.007 114.747C268.557 115.336 269.833 116.256 270.841 116.791C272.27 117.55 273.484 117.766 276.349 117.773C279.569 117.78 280.394 117.6 282.994 116.322C284.627 115.52 286.93 113.879 288.112 112.675C289.294 111.47 290.987 109.28 291.874 107.807C292.761 106.334 294.006 103.564 294.641 101.652C295.277 99.7389 296.14 96.6351 296.56 94.7542C297.07 92.4744 297.333 89.1303 297.351 84.7229C297.371 79.7684 297.172 77.3116 296.553 74.9196C296.099 73.1642 295.024 70.2916 294.165 68.5361C293.306 66.7806 291.735 64.3366 290.674 63.1055C289.613 61.874 287.532 59.9785 286.05 58.8929C284.568 57.8072 282.086 56.5305 280.535 56.0563C278.984 55.5816 276.477 55.0837 274.965 54.9492C273.453 54.8147 271.119 54.8931 269.78 55.1234ZM492.104 55.1097C490.805 55.3359 488.64 55.9332 487.293 56.4375C485.945 56.9413 483.663 58.2778 482.222 59.4067C480.78 60.5362 478.774 62.5009 477.763 63.7731C476.753 65.0452 475.326 67.3556 474.592 68.9073C473.858 70.4585 472.884 73.1642 472.426 74.9196C471.799 77.3249 471.6 79.741 471.621 84.7229C471.639 89.1303 471.903 92.4744 472.412 94.7542C472.832 96.6351 473.696 99.7389 474.331 101.652C474.966 103.564 476.212 106.334 477.098 107.807C477.985 109.28 479.678 111.47 480.86 112.675C482.042 113.879 484.346 115.52 485.978 116.322C488.579 117.6 489.404 117.78 492.623 117.773C495.488 117.766 496.703 117.55 498.132 116.791C499.14 116.256 500.415 115.336 500.965 114.747C501.515 114.158 502.186 113.099 502.454 112.393C502.723 111.687 502.943 110.184 502.943 109.052C502.943 107.387 502.688 106.742 501.604 105.662C500.867 104.929 500.042 104.33 499.771 104.33C499.499 104.33 499.277 104.965 499.277 105.741C499.277 106.517 498.921 107.753 498.485 108.487C498.05 109.22 496.797 110.253 495.701 110.781C494.063 111.569 493.121 111.702 490.421 111.527C488.35 111.392 486.455 110.963 485.301 110.368C484.293 109.848 482.726 108.636 481.82 107.674C480.914 106.712 479.74 105.201 479.211 104.316C478.681 103.431 477.634 100.866 476.884 98.6167C476.133 96.367 475.277 92.5669 474.981 90.1722C474.578 86.9139 474.57 84.7681 474.951 81.6479C475.232 79.3544 475.954 76.0267 476.557 74.2535C477.16 72.4802 478.303 70.0221 479.096 68.7914C479.89 67.5608 481.472 65.6995 482.61 64.6545C483.75 63.6098 485.577 62.3609 486.672 61.8794C487.766 61.3975 489.76 60.7961 491.103 60.5425C492.798 60.2229 494.281 60.2343 495.957 60.5809C497.284 60.8549 498.994 61.6018 499.757 62.2401C500.519 62.8785 501.415 63.9409 501.749 64.6007C502.082 65.2604 502.486 66.4902 502.648 67.3333C502.847 68.3765 502.666 69.485 502.079 70.8045C501.364 72.4132 500.739 72.9809 498.413 74.1376L495.609 75.5315L496.789 76.9268C497.482 77.7457 498.742 78.5291 499.839 78.8232C501.212 79.1911 502.26 79.1861 503.783 78.8045C504.924 78.5191 506.438 77.8734 507.148 77.3705C507.858 76.8675 508.948 75.5908 509.571 74.5334C510.194 73.4756 510.941 71.587 511.231 70.3363C511.633 68.6036 511.628 67.4372 511.211 65.4396C510.872 63.8141 510.107 62.0896 509.196 60.9023C508.389 59.8486 506.909 58.4305 505.909 57.7511C504.908 57.0713 503.058 56.2031 501.798 55.8215C500.537 55.4398 498.372 55.0308 496.986 54.9127C495.6 54.7946 493.403 54.8831 492.104 55.1097ZM349.43 75.6414C349.43 86.2828 349.263 92.9477 349 92.8542C348.763 92.7708 346.079 90.5839 343.036 87.995C339.563 85.0394 337.626 83.0878 337.832 82.7513C338.013 82.4563 339.083 81.0866 340.211 79.7073C341.339 78.328 343.163 75.3072 344.265 72.9941C345.367 70.6814 346.774 66.808 347.392 64.3863C348.009 61.9652 348.514 59.5996 348.514 59.1304C348.514 58.6608 348.72 58.2769 348.972 58.2769C349.269 58.2769 349.43 64.369 349.43 75.6414ZM370.863 84.2697L370.739 92.9358L359.161 83.2926L361.172 79.9626C362.279 78.131 364.492 73.58 366.091 69.8488C367.69 66.1172 369.251 62.2438 369.56 61.2406C369.869 60.2375 370.26 59.109 370.43 58.7328C370.6 58.3566 370.795 61.9989 370.863 66.8262C370.932 71.6536 370.932 79.5035 370.863 84.2697ZM392.964 75.6036C392.964 85.1333 392.83 92.9303 392.665 92.9303C392.501 92.9303 389.872 90.842 386.823 88.29C383.774 85.7375 381.184 83.5748 381.069 83.4836C380.954 83.3929 381.218 82.7623 381.656 82.0829C382.094 81.4031 383.451 78.898 384.672 76.5155C385.893 74.1331 388.052 69.2948 389.47 65.7638C390.887 62.2328 392.047 59.104 392.047 58.8103C392.047 58.5172 392.253 58.2769 392.506 58.2769C392.803 58.2769 392.964 64.3563 392.964 75.6036ZM414.501 75.6036C414.501 85.1333 414.396 92.9303 414.266 92.9303C414.137 92.9303 411.456 90.7618 408.309 88.1108C405.162 85.4602 402.587 83.2137 402.587 83.1179C402.587 83.0226 403.218 82.0136 403.99 80.8759C404.762 79.7378 406.283 76.9063 407.37 74.5832C408.457 72.2605 410.3 67.9803 411.466 65.0721C412.631 62.1635 413.585 59.445 413.585 59.0306C413.585 58.6161 413.791 58.2769 414.043 58.2769C414.341 58.2769 414.501 64.3563 414.501 75.6036ZM438.069 95.6661C448.511 104.569 457.069 111.997 457.087 112.172C457.104 112.348 454.829 113.228 452.031 114.128C449.233 115.028 444.026 116.477 440.46 117.35C436.895 118.221 431.606 119.323 428.707 119.797C425.809 120.271 422.612 120.775 421.604 120.917L419.771 121.175L419.769 114.69C419.767 108.587 419.683 107.971 418.337 104.224C417.551 102.034 417.14 100.384 417.423 100.555C417.706 100.728 421.38 103.802 425.587 107.387C429.794 110.972 433.436 113.905 433.681 113.905C433.926 113.905 434.258 113.125 434.42 112.171C434.587 111.185 434.416 109.016 434.023 107.139C433.643 105.324 432.387 101.856 431.233 99.4306C430.078 97.0058 427.816 93.0635 426.205 90.6701C424.594 88.2768 421.869 84.6062 420.149 82.5129C418.429 80.42 416.712 78.2655 416.334 77.7252C415.815 76.9834 416.067 77.0777 417.365 78.1114C418.309 78.8638 427.626 86.7634 438.069 95.6661ZM370.968 123.522L369.249 123.21C368.305 123.039 364.066 122.233 359.831 121.418C355.596 120.603 352.04 119.846 351.928 119.734C351.816 119.623 352.735 116.471 353.97 112.729C355.205 108.987 356.446 104.42 356.728 102.58C357.01 100.739 357.371 96.3984 357.529 92.9331L357.818 86.6325L370.904 97.718L370.968 123.522ZM387.408 93.3941L392.964 98.1161V110.543C392.964 117.378 392.789 123.078 392.575 123.209C392.361 123.341 388.017 122.655 382.921 121.686C377.825 120.716 373.59 119.851 373.508 119.764C373.428 119.676 374.279 116.88 375.399 113.549C376.52 110.218 377.739 106.115 378.108 104.429C378.477 102.745 378.908 98.0395 379.067 93.9741L379.356 86.5824L380.603 87.6274C381.29 88.202 384.352 90.7969 387.408 93.3941ZM266.487 87.6229C265.353 87.9302 263.426 88.6807 262.205 89.2908C260.983 89.9009 258.733 91.7312 257.203 93.3576C255.32 95.3607 253.847 97.5379 252.639 100.102C251.659 102.184 250.562 105.27 250.202 106.959C249.843 108.648 249.545 112.525 249.54 115.575C249.536 118.625 249.825 122.644 250.183 124.506C250.541 126.368 251.378 129.515 252.043 131.5C252.707 133.484 254.094 136.544 255.125 138.299C256.155 140.055 258.089 142.848 259.422 144.508C260.755 146.167 263.141 148.494 264.724 149.677C266.306 150.861 269.67 152.829 272.199 154.05C274.729 155.272 278.364 156.773 280.278 157.388C282.192 158.002 285.904 158.948 288.526 159.488C291.149 160.029 296.182 160.668 299.71 160.909C303.239 161.149 308.442 161.536 311.274 161.767C314.587 162.038 317.145 162.507 318.453 163.082C319.569 163.574 320.829 164.5 321.251 165.141C321.673 165.782 322.131 167.142 322.268 168.163C322.439 169.434 322.254 170.605 321.679 171.872C321.217 172.891 320.14 174.198 319.285 174.776L317.731 175.827L319.188 176.145C319.99 176.32 321.539 176.33 322.631 176.167C323.724 176.004 325.298 175.414 326.13 174.857C326.961 174.299 328.087 173.186 328.63 172.383C329.174 171.58 329.755 170.203 329.921 169.323C330.087 168.443 330.002 166.908 329.733 165.912C329.463 164.917 328.706 163.468 328.05 162.691C327.394 161.915 325.891 160.794 324.711 160.199C323.531 159.604 321.274 158.884 319.696 158.599C317.739 158.246 313.65 158.183 306.847 158.401C300.284 158.612 296.77 158.565 296.582 158.262C296.411 157.986 297.256 157.69 298.691 157.523C300.008 157.369 302.215 156.669 303.597 155.968C305.378 155.064 306.408 154.166 307.14 152.88C307.785 151.747 308.176 150.291 308.181 149.002C308.185 147.82 307.869 146.484 307.441 145.876C307.03 145.292 306.005 144.528 305.164 144.178C304.323 143.829 303.417 143.543 303.15 143.543C302.865 143.543 302.974 144.137 303.415 144.985C303.897 145.913 304.081 147.043 303.931 148.155C303.803 149.106 303.258 150.499 302.719 151.252C302.179 152.007 300.409 153.273 298.771 154.075C296.704 155.088 294.64 155.672 291.97 156.002C288.816 156.39 287.441 156.338 284.213 155.707C282.055 155.285 279.71 154.698 279.002 154.403L277.715 153.867L280.505 153.568C282.04 153.404 284.244 152.813 285.402 152.255C286.561 151.698 288.267 150.406 289.193 149.385C290.12 148.365 291.279 146.629 291.768 145.527C292.258 144.425 292.851 142.35 293.086 140.915C293.367 139.191 293.344 137.345 293.017 135.474C292.729 133.835 291.963 131.766 291.196 130.563C290.467 129.419 288.903 127.873 287.721 127.127C286.539 126.381 284.885 125.643 284.046 125.486C283.207 125.33 281.609 125.337 280.495 125.504C279.381 125.67 277.784 126.259 276.946 126.812C276.108 127.366 274.945 128.741 274.361 129.867C273.52 131.488 273.349 132.379 273.544 134.139C273.679 135.362 274.134 136.886 274.555 137.525L275.321 138.687L276.181 137.02C276.654 136.102 277.646 135.04 278.386 134.66C279.126 134.279 280.483 133.967 281.402 133.967C282.334 133.967 283.637 134.368 284.351 134.873C285.054 135.372 285.979 136.648 286.406 137.71C286.96 139.087 287.093 140.23 286.873 141.695C286.703 142.825 286.179 144.498 285.71 145.413C285.241 146.327 284.238 147.594 283.481 148.228C282.724 148.862 281.166 149.737 280.021 150.173C278.531 150.739 277.181 150.896 275.277 150.724C273.717 150.583 271.616 149.98 270.198 149.265C268.868 148.594 266.848 147.191 265.709 146.146C264.571 145.102 263.03 143.368 262.287 142.292C261.543 141.217 260.341 139.146 259.615 137.689C258.888 136.233 257.848 133.415 257.302 131.427C256.61 128.907 256.237 125.931 256.071 121.599C255.924 117.749 256.041 114.203 256.378 112.276C256.678 110.565 257.558 107.526 258.334 105.523C259.439 102.672 260.303 101.314 262.315 99.2692C264.192 97.361 265.428 96.5138 266.904 96.1244C268.015 95.8317 269.645 95.7263 270.525 95.8905C271.404 96.0546 272.729 96.7915 273.469 97.5274C274.724 98.7758 274.804 99.0631 274.66 101.827L274.507 104.789L275.976 105.062C276.952 105.244 278.027 105.052 279.178 104.49C280.13 104.026 281.377 102.948 281.947 102.096C282.731 100.925 282.984 99.8907 282.984 97.8603C282.984 96.0893 282.677 94.575 282.083 93.4173C281.588 92.4511 280.309 90.9154 279.24 90.0053C278.171 89.0948 276.271 88.0469 275.016 87.6762C273.763 87.306 271.794 87.0165 270.643 87.0333C269.492 87.0507 267.622 87.3156 266.487 87.6229ZM342.983 92.5113L349.43 98.0194V110.75C349.43 117.751 349.312 123.48 349.169 123.48C349.025 123.48 343.096 122.429 335.994 121.143C328.892 119.858 323.007 118.741 322.916 118.662C322.826 118.582 324.273 116.505 326.132 114.045C327.991 111.586 330.265 108.034 331.185 106.153C332.104 104.273 333.201 101.708 333.622 100.454C334.042 99.1999 334.678 96.6684 335.034 94.8281C335.391 92.9878 335.683 90.4745 335.683 89.2425C335.683 88.0105 335.875 87.0028 336.109 87.0028C336.344 87.0028 339.437 89.4814 342.983 92.5113ZM408.054 92.5113L414.501 98.0194V110.75C414.501 117.751 414.347 123.478 414.158 123.476C413.968 123.473 409.736 122.68 404.751 121.715C399.766 120.749 395.559 119.831 395.401 119.674C395.244 119.517 395.969 116.873 397.012 113.797C398.056 110.722 399.235 106.872 399.632 105.241C400.057 103.502 400.463 99.1228 400.618 94.6402C400.762 90.4399 401.044 87.0028 401.244 87.0028C401.443 87.0028 404.508 89.4814 408.054 92.5113ZM493.764 87.6735C492.623 88.0401 490.811 89.087 489.739 90.0003C488.667 90.9131 487.384 92.4511 486.889 93.4173C486.295 94.575 485.988 96.0893 485.988 97.8603C485.988 99.8907 486.241 100.925 487.025 102.096C487.596 102.948 488.842 104.026 489.795 104.49C490.945 105.052 492.02 105.244 492.996 105.062L494.466 104.789L494.312 101.827C494.169 99.0631 494.248 98.7758 495.504 97.5274C496.243 96.7915 497.568 96.0546 498.448 95.8905C499.328 95.7263 500.957 95.8317 502.068 96.1244C503.544 96.5138 504.781 97.361 506.658 99.2692C508.674 101.319 509.525 102.659 510.617 105.499C511.381 107.489 512.263 110.576 512.577 112.359C512.944 114.444 513.061 117.781 512.904 121.706C512.736 125.892 512.348 128.949 511.669 131.427C511.124 133.415 510.084 136.233 509.358 137.689C508.631 139.146 507.429 141.217 506.686 142.292C505.942 143.368 504.368 145.133 503.187 146.216C502.007 147.298 499.871 148.717 498.441 149.369C497.011 150.021 494.752 150.643 493.423 150.753C491.811 150.887 490.315 150.691 488.937 150.167C487.799 149.735 486.249 148.862 485.492 148.228C484.734 147.594 483.717 146.299 483.231 145.351C482.744 144.403 482.211 142.784 482.045 141.754C481.838 140.465 481.988 139.245 482.527 137.841C482.958 136.719 483.838 135.389 484.482 134.884C485.203 134.32 486.344 133.967 487.448 133.967C488.434 133.967 489.846 134.279 490.587 134.66C491.327 135.04 492.319 136.102 492.792 137.02L493.652 138.687L494.379 137.581C494.779 136.973 495.247 135.6 495.419 134.53C495.638 133.165 495.499 131.981 494.95 130.554C494.522 129.436 493.561 128.011 492.815 127.386C492.069 126.762 490.691 126.039 489.754 125.78C488.817 125.521 487.317 125.308 486.422 125.307C485.526 125.305 483.714 125.839 482.395 126.493C480.92 127.225 479.387 128.478 478.41 129.751C477.537 130.888 476.583 132.661 476.289 133.691C475.996 134.721 475.77 137 475.787 138.755C475.807 140.837 476.157 142.842 476.794 144.522C477.331 145.938 478.591 148.024 479.593 149.157C480.595 150.291 482.375 151.679 483.547 152.244C484.718 152.808 486.932 153.404 488.467 153.568C491.087 153.848 491.182 153.899 490.012 154.387C489.327 154.674 487.07 155.25 484.996 155.668C482.43 156.186 480.194 156.341 477.993 156.155C476.215 156.004 473.73 155.535 472.47 155.112C471.21 154.69 469.33 153.77 468.293 153.068C467.256 152.366 466.07 151.084 465.658 150.22C465.246 149.356 464.909 148.105 464.909 147.441C464.909 146.777 465.223 145.628 465.608 144.888C466.03 144.077 466.115 143.543 465.822 143.543C465.556 143.543 464.649 143.829 463.808 144.178C462.967 144.528 461.943 145.292 461.532 145.876C461.104 146.484 460.788 147.82 460.792 149.002C460.797 150.291 461.187 151.747 461.832 152.88C462.564 154.166 463.594 155.064 465.376 155.968C466.757 156.669 468.965 157.369 470.282 157.523C471.598 157.676 472.56 157.988 472.419 158.215C472.273 158.451 467.194 158.571 460.63 158.495C450.222 158.375 448.834 158.448 446.378 159.249C444.598 159.829 442.991 160.774 441.726 161.985C440.469 163.188 439.612 164.513 439.272 165.778C438.985 166.847 438.885 168.443 439.051 169.323C439.217 170.203 439.798 171.58 440.342 172.383C440.885 173.186 442.011 174.299 442.843 174.857C443.674 175.414 445.248 176.004 446.341 176.167C447.433 176.33 448.994 176.318 449.808 176.14L451.29 175.816L449.83 174.897C449.028 174.391 447.968 173.191 447.475 172.229C446.982 171.268 446.579 169.851 446.579 169.08C446.579 168.31 446.876 166.973 447.239 166.108C447.602 165.244 448.57 164.131 449.391 163.634C450.213 163.137 451.926 162.508 453.2 162.236C454.473 161.964 459.32 161.544 463.971 161.303C468.621 161.062 474.292 160.565 476.572 160.2C478.853 159.835 482.717 159.019 485.159 158.387C487.601 157.756 491.47 156.437 493.756 155.456C496.042 154.475 499.405 152.779 501.229 151.686C503.054 150.592 505.787 148.467 507.303 146.962C508.818 145.458 510.94 142.893 512.017 141.263C513.095 139.633 514.583 137.048 515.324 135.519C516.065 133.989 517.213 130.808 517.876 128.451C518.848 124.99 519.123 122.847 519.302 117.325C519.466 112.237 519.345 109.649 518.828 107.222C518.445 105.427 517.396 102.373 516.497 100.435C515.597 98.4977 513.984 95.8426 512.911 94.5354C511.84 93.2281 510.138 91.5278 509.13 90.7572C508.121 89.9862 506.162 88.9105 504.776 88.3661C503.369 87.8135 500.839 87.2946 499.048 87.1915C497.002 87.0739 495.088 87.2485 493.764 87.6735ZM463.978 113.791C463.97 113.979 463.68 114.504 463.335 114.958C462.989 115.412 457.645 117.814 451.46 120.297C445.274 122.78 438.81 125.517 437.095 126.38C435.38 127.242 433.525 128.431 432.972 129.021C432.42 129.612 431.419 131.287 430.749 132.744C430.025 134.318 429.13 135.545 428.545 135.766C428.003 135.971 425.498 136.36 422.978 136.631C420.458 136.902 413.241 137.363 406.94 137.656C399.537 137.999 386.567 138.096 370.281 137.93C356.419 137.789 342.19 137.454 338.661 137.186C335.133 136.918 330.802 136.486 329.038 136.225C327.274 135.965 325.553 135.477 325.213 135.141C324.726 134.659 324.709 134.318 325.135 133.526C325.433 132.973 325.607 132.464 325.524 132.394C325.441 132.324 324.629 131.921 323.719 131.5C322.81 131.078 321.386 130.076 320.555 129.273C319.724 128.469 318.644 126.918 318.155 125.826C317.667 124.733 317.441 123.681 317.654 123.488C317.866 123.295 319.858 123.409 322.079 123.741C324.3 124.073 328.94 124.58 332.389 124.869C335.839 125.157 347.586 125.527 358.493 125.69C369.4 125.854 385.279 125.853 393.778 125.689C402.278 125.524 411.912 125.164 415.189 124.887C418.465 124.611 423.311 124.06 425.958 123.662C428.604 123.264 432.934 122.459 435.581 121.875C438.227 121.29 442.764 120.086 445.662 119.2C448.561 118.313 453.716 116.677 457.118 115.565C460.521 114.452 463.459 113.521 463.648 113.496C463.838 113.47 463.986 113.603 463.978 113.791ZM442.632 145.372C442.377 145.626 440.582 146.136 438.643 146.505C436.704 146.874 431.974 147.483 428.132 147.857C424.29 148.232 417.125 148.765 412.21 149.043C407.295 149.32 394.82 149.546 384.486 149.546C374.153 149.546 361.677 149.32 356.762 149.043C351.848 148.765 344.683 148.232 340.84 147.857C336.998 147.483 332.268 146.874 330.329 146.505C328.39 146.136 326.595 145.626 326.34 145.372C326.027 145.061 344.939 144.911 384.486 144.911C424.033 144.911 442.945 145.061 442.632 145.372ZM260.53 154.325C260.53 154.491 261.28 155.98 262.197 157.634C263.114 159.288 264.888 162.347 266.14 164.431C267.392 166.516 268.343 168.291 268.254 168.376C268.165 168.461 265.72 169.054 262.821 169.692C259.923 170.33 256.229 170.996 254.611 171.172L251.671 171.492L253.924 172.636C255.163 173.265 259.167 175.105 262.821 176.724C266.476 178.343 273.313 181.186 278.015 183.044C282.718 184.9 290.244 187.71 294.741 189.287L302.918 192.155V198.943L306.744 200.219C308.848 200.921 314.106 202.398 318.429 203.502C322.752 204.606 329.382 206.12 333.162 206.866C336.943 207.613 343.026 208.648 346.681 209.167C350.335 209.686 356.625 210.425 360.657 210.809C364.69 211.193 372.732 211.631 378.529 211.783C384.778 211.946 392.706 211.841 398.004 211.524C402.919 211.229 409.724 210.687 413.127 210.317C416.529 209.948 421.994 209.218 425.27 208.696C428.547 208.174 434.218 207.148 437.872 206.416C441.527 205.683 447.3 204.359 450.703 203.472C454.105 202.586 458.879 201.254 461.31 200.511C464.179 199.634 465.837 198.886 466.033 198.379C466.199 197.948 466.2 196.356 466.037 194.839L465.741 192.082L469.105 191.018C470.956 190.433 476.903 188.306 482.322 186.293C487.741 184.28 495.68 181.146 499.965 179.328C504.249 177.51 509.92 175.024 512.565 173.804C516.213 172.121 517.098 171.552 516.231 171.45C515.602 171.375 513.238 171.008 510.978 170.634C508.718 170.261 505.47 169.638 503.76 169.251C502.051 168.864 500.652 168.375 500.652 168.164C500.652 167.954 501.66 166.165 502.891 164.189C504.123 162.213 505.87 159.136 506.773 157.35L508.417 154.103L499.608 158.352C494.763 160.69 487.191 164.033 482.78 165.783C478.37 167.532 473.008 169.536 470.866 170.234C468.724 170.933 466.824 171.628 466.644 171.779C466.464 171.93 466.638 172.974 467.031 174.099C467.543 175.563 467.694 177.31 467.564 180.248C467.424 183.399 467.114 184.934 466.225 186.86L465.068 189.367L464.009 186.176C463.426 184.42 462.542 182.163 462.044 181.16C461.546 180.157 460.733 178.894 460.235 178.353L459.332 177.371L456.278 178.251C454.598 178.736 450.027 179.933 446.12 180.913C442.214 181.892 435.821 183.319 431.915 184.083C428.008 184.846 421.925 185.879 418.397 186.376C414.868 186.874 409.919 187.511 407.399 187.791C404.878 188.072 396.32 188.411 388.381 188.544C377.138 188.734 372.022 188.621 365.24 188.035C360.451 187.622 353.187 186.787 349.098 186.179C345.009 185.571 338.513 184.432 334.663 183.649C330.813 182.865 324.983 181.529 321.706 180.68C318.43 179.831 314.371 178.738 312.687 178.251C310.317 177.566 309.467 177.486 308.927 177.895C308.544 178.186 307.622 179.655 306.879 181.16C306.136 182.665 305.173 185.114 304.739 186.603C304.005 189.118 303.902 189.248 303.298 188.427C302.941 187.941 302.308 186.415 301.892 185.036C301.457 183.593 301.151 181.076 301.172 179.108C301.192 177.227 301.528 174.828 301.919 173.776L302.63 171.864L300.941 171.327C300.012 171.031 295.976 169.564 291.971 168.066C287.967 166.569 282.166 164.248 279.081 162.909C275.995 161.57 270.559 159.023 267 157.249C263.442 155.475 260.53 154.159 260.53 154.325ZM427.489 155.88C427.222 156.146 425.893 156.648 424.533 156.996C423.174 157.345 419.691 157.944 416.793 158.328C413.894 158.712 408.533 159.243 404.878 159.509C401.224 159.775 392.047 159.992 384.486 159.992C376.925 159.992 367.749 159.775 364.094 159.509C360.44 159.243 355.078 158.712 352.18 158.328C349.281 157.944 345.798 157.345 344.439 156.996C343.08 156.648 341.75 156.146 341.483 155.88C341.142 155.541 353.91 155.398 384.486 155.398C415.062 155.398 427.83 155.541 427.489 155.88ZM406.322 166.808C405.73 167.299 404.183 168.019 402.885 168.408C401.587 168.797 398.566 169.413 396.172 169.777C393.733 170.148 388.593 170.439 384.486 170.439C380.38 170.439 375.239 170.148 372.801 169.777C370.407 169.413 367.385 168.797 366.087 168.408C364.789 168.019 363.243 167.299 362.65 166.808L361.574 165.916H407.399L406.322 166.808ZM452.898 187.999C452.372 189.506 451.844 192.426 451.724 194.497C451.603 196.566 451.376 198.261 451.219 198.265C451.061 198.268 450.468 198.395 449.901 198.546C448.925 198.806 448.87 198.691 448.877 196.374C448.881 195.028 449.183 192.696 449.548 191.191C449.913 189.687 450.22 188.311 450.228 188.135C450.237 187.959 449.265 188.111 448.068 188.472C446.092 189.069 445.839 189.059 445.319 188.363C445.004 187.942 444.746 187.454 444.746 187.278C444.746 187.103 446.447 186.514 448.526 185.97C450.606 185.426 452.513 184.917 452.765 184.838C453.017 184.758 453.365 184.822 453.538 184.979C453.711 185.136 453.423 186.495 452.898 187.999ZM320.301 185.788C321.83 186.201 323.236 186.674 323.427 186.838C323.616 187.002 323.501 187.505 323.17 187.955C322.662 188.647 322.311 188.703 320.906 188.318L319.244 187.861L318.328 190.477L319.939 190.778C320.825 190.943 321.659 191.36 321.792 191.705C321.925 192.049 321.92 192.626 321.781 192.985C321.578 193.511 321.196 193.548 319.836 193.175C318.524 192.814 318.055 192.846 317.755 193.318C317.541 193.653 317.364 194.287 317.36 194.727C317.355 195.291 317.959 195.688 319.415 196.076C321.182 196.545 321.437 196.759 321.192 197.556C321.034 198.068 320.842 198.558 320.764 198.646C320.686 198.733 319.165 198.432 317.384 197.975C315.482 197.488 314.145 196.903 314.145 196.558C314.145 196.236 314.798 193.511 315.596 190.504C316.393 187.497 317.153 185.036 317.284 185.036C317.415 185.036 318.773 185.374 320.301 185.788ZM438.044 189.025C438.173 189.464 438.521 191.099 438.819 192.658C439.291 195.13 439.484 195.48 440.333 195.393C441.031 195.323 441.348 195.585 441.454 196.321C441.557 197.036 441.369 197.347 440.832 197.347C440.222 197.347 440.102 197.679 440.252 198.956C440.415 200.351 440.293 200.603 439.336 200.842C438.638 201.016 438.084 200.886 437.83 200.486C437.609 200.139 437.425 199.473 437.421 199.006C437.415 198.275 437.176 198.2 435.695 198.467C434.75 198.638 433.532 198.883 432.987 199.013C432.281 199.181 431.944 199.009 431.81 198.412C431.707 197.951 432.537 195.728 433.654 193.471C434.772 191.214 435.893 189.111 436.148 188.797C436.402 188.484 436.879 188.227 437.21 188.227C437.54 188.227 437.916 188.587 438.044 189.025ZM334.789 189.379C335.533 189.762 336.138 190.326 336.134 190.633C336.13 190.94 335.946 191.475 335.726 191.822C335.389 192.35 335.151 192.332 334.256 191.708C333.668 191.298 332.815 190.963 332.359 190.963C331.903 190.963 331.404 191.291 331.249 191.691C331.062 192.177 331.591 192.985 332.839 194.12C333.868 195.056 334.852 196.388 335.027 197.08C335.256 197.988 335.091 198.675 334.435 199.549C333.936 200.214 332.906 200.937 332.146 201.153C331.104 201.451 330.245 201.318 328.641 200.612C327.473 200.099 326.518 199.4 326.518 199.059C326.518 198.719 326.736 198.224 327.004 197.957C327.347 197.616 327.967 197.715 329.106 198.293C329.994 198.743 331.012 199.001 331.369 198.865C331.725 198.728 332.017 198.27 332.017 197.847C332.017 197.422 331.192 196.274 330.184 195.295C328.794 193.945 328.351 193.158 328.351 192.044C328.351 190.998 328.7 190.3 329.558 189.629C330.222 189.109 331.367 188.683 332.102 188.683C332.836 188.683 334.045 188.997 334.789 189.379ZM344.39 190.976C346.028 191.229 347.947 191.554 348.654 191.698C349.65 191.9 349.909 192.182 349.8 192.943C349.681 193.773 349.399 193.907 347.995 193.8L346.331 193.673L346.021 195.852C345.851 197.05 345.494 199.329 345.227 200.917L344.741 203.802L343.535 203.501C342.872 203.336 342.286 203.157 342.233 203.104C342.18 203.052 342.436 201.171 342.803 198.924C343.17 196.677 343.47 194.489 343.471 194.062C343.473 193.534 342.958 193.188 341.869 192.985C340.773 192.781 340.265 192.437 340.265 191.9C340.265 191.468 340.403 190.978 340.571 190.811C340.739 190.644 340.997 190.509 341.144 190.511C341.291 190.513 342.751 190.722 344.39 190.976ZM424.15 191.889C424.635 192.147 425.36 192.989 425.76 193.76C426.161 194.531 426.509 196.217 426.535 197.508C426.563 198.939 426.268 200.447 425.781 201.373C425.299 202.285 424.334 203.159 423.36 203.564C422.469 203.934 421.091 204.174 420.298 204.098C419.207 203.993 418.855 203.736 418.855 203.046C418.855 202.323 419.208 202.105 420.561 201.994C421.741 201.896 422.554 201.49 423.196 200.678C423.707 200.032 424.125 199.331 424.125 199.121C424.125 198.91 423.596 198.937 422.949 199.182C422.303 199.426 421.262 199.627 420.637 199.627C420.012 199.627 418.995 199.123 418.376 198.507C417.565 197.701 417.251 196.89 417.251 195.606C417.251 194.288 417.566 193.51 418.459 192.621C419.354 191.73 420.133 191.419 421.468 191.419C422.458 191.419 423.665 191.63 424.15 191.889ZM385.789 194.081C386.228 195.294 386.887 196.713 387.253 197.233C387.704 197.874 389.03 198.441 391.358 198.987C393.249 199.431 394.797 199.968 394.797 200.18C394.797 200.393 394.539 200.652 394.224 200.756C393.909 200.86 392.193 201.364 390.411 201.876L387.172 202.808L386.058 205.663C385.446 207.233 384.738 208.494 384.486 208.465C384.234 208.436 383.524 207.205 382.908 205.729C382.291 204.254 381.734 202.971 381.669 202.878C381.604 202.786 379.96 202.27 378.014 201.732C376.069 201.194 374.405 200.539 374.317 200.276C374.229 200.013 375.707 199.434 377.605 198.989C379.941 198.441 381.267 197.875 381.719 197.233C382.086 196.713 382.744 195.294 383.183 194.081C383.621 192.868 384.208 191.875 384.486 191.875C384.765 191.875 385.351 192.868 385.789 194.081ZM362.476 194.146C363.306 194.657 364.243 195.692 364.557 196.446C364.881 197.225 365.026 198.717 364.892 199.897C364.729 201.342 364.265 202.383 363.371 203.312C362.663 204.047 361.367 204.845 360.49 205.086C359.613 205.327 357.681 205.397 356.197 205.243L353.497 204.962L353.736 203.32C353.867 202.417 354.095 200.345 354.242 198.715C354.389 197.085 354.615 195.02 354.745 194.126L354.981 192.5L357.973 192.859C359.619 193.056 361.645 193.635 362.476 194.146ZM410.072 194.725C410.211 195.54 410.451 197.848 410.604 199.855C410.756 201.861 410.978 203.964 411.096 204.528C411.281 205.409 411.12 205.554 409.956 205.554C408.705 205.554 408.582 205.406 408.36 203.616C408.227 202.551 407.992 200.483 407.836 199.022C407.618 196.977 407.404 196.426 406.903 196.628C406.545 196.773 405.96 197.009 405.601 197.154C405.221 197.307 404.741 197.032 404.453 196.497C404.019 195.688 404.195 195.435 405.907 194.414C406.98 193.775 408.298 193.25 408.837 193.247C409.586 193.244 409.877 193.592 410.072 194.725ZM420.85 193.575C420.434 193.67 420.001 194.104 419.887 194.538C419.773 194.973 419.848 195.783 420.054 196.338C420.26 196.893 420.809 197.347 421.273 197.347C421.737 197.347 422.491 197.075 422.947 196.742C423.528 196.32 423.683 195.839 423.462 195.146C423.288 194.6 422.799 193.985 422.375 193.778C421.951 193.572 421.265 193.48 420.85 193.575ZM435.474 194.773C435.037 195.687 434.831 196.42 435.015 196.403C435.2 196.385 435.667 196.231 436.053 196.061C436.542 195.845 436.681 195.351 436.511 194.431L436.268 193.112L435.474 194.773ZM357.059 197.461C356.9 198.778 356.768 200.521 356.766 201.337L356.762 202.818H358.562C359.96 202.818 360.573 202.551 361.311 201.617C361.834 200.956 362.261 199.94 362.261 199.359C362.261 198.777 362.027 197.789 361.74 197.163C361.453 196.537 360.597 195.809 359.838 195.546C359.08 195.282 358.208 195.067 357.903 195.067C357.576 195.067 357.23 196.049 357.059 197.461Z" fill="#D5BFAA"/>
<path d="M38.4085 256.128H0V322.296H10.5268V292.478H37.3653V284.905H10.5268V263.891H38.4085V256.128Z" fill="#D5BFAA"/>
<path d="M85.7441 274.493C85.7441 279.983 82.6146 285.947 72.4671 285.947H66.4925V263.323H72.4671C81.761 263.323 85.6493 268.056 85.7441 274.209V274.493ZM99.4953 308.854C94.469 300.524 90.4859 293.803 84.1319 290.206C91.1498 288.029 96.3657 282.255 96.3657 274.587C96.3657 263.133 87.9254 256.034 74.5535 256.128H56.0605V322.296H66.4925V293.33H70.0962C75.5967 293.33 79.1056 295.223 87.6409 308.665L96.2709 322.296H107.746L99.4953 308.854Z" fill="#D5BFAA"/>
<path d="M136.534 294.75L143.931 276.67C145.354 273.357 146.302 270.328 146.681 268.718C147.061 270.233 148.199 273.357 149.716 276.764L157.777 294.75H136.534ZM151.328 256.128H143.931L115.575 322.296H124.679L133.215 302.323H161.191L170.106 322.296H180.822L151.328 256.128Z" fill="#D5BFAA"/>
<path d="M230.982 304.595C230.982 294.466 224.723 289.544 213.532 283.107C207.558 279.699 202.247 276.67 202.342 271.085V270.896C202.342 265.879 206.325 262.944 212.963 262.944C217.421 262.944 222.826 263.796 228.042 268.434V258.684C223.395 255.561 217.99 254.709 212.963 254.709C200.824 254.709 192.384 261.619 192.384 272.315C192.384 281.403 198.264 286.609 206.799 291.342C215.903 296.454 221.119 299.483 221.024 306.015V306.393C220.93 311.316 217.136 315.291 209.739 315.291C203.195 315.291 197.79 313.019 192.479 308.097V318.51C196.936 321.539 202.437 323.432 210.023 323.432C215.334 323.432 220.171 322.107 223.869 319.362C228.422 315.859 230.792 311.316 230.982 305.447C230.982 305.163 230.982 304.879 230.982 304.595Z" fill="#D5BFAA"/>
<path d="M288.805 314.439H259.311V292.478H287.003V284.905H259.311V263.891H287.952V256.128H248.785V322.296H288.805V314.439Z" fill="#D5BFAA"/>
<path d="M336.103 274.493C336.103 279.983 332.974 285.947 322.826 285.947H316.852V263.323H322.826C332.12 263.323 336.008 268.056 336.103 274.209V274.493ZM349.854 308.854C344.828 300.524 340.845 293.803 334.491 290.206C341.509 288.029 346.725 282.255 346.725 274.587C346.725 263.133 338.284 256.034 324.913 256.128H306.42V322.296H316.852V293.33H320.455C325.956 293.33 329.465 295.223 338 308.665L346.63 322.296H358.105L349.854 308.854Z" fill="#D5BFAA"/>
<path d="M444.484 256.128L427.224 279.226L410.059 256.128H397.635L421.724 288.218V322.296H432.25V288.218L456.433 256.128H444.484Z" fill="#D5BFAA"/>
<path d="M477.157 294.75L484.555 276.67C485.977 273.357 486.925 270.328 487.305 268.718C487.684 270.233 488.822 273.357 490.339 276.764L498.401 294.75H477.157ZM491.952 256.128H484.555L456.199 322.296H465.303L473.838 302.323H501.815L510.729 322.296H521.446L491.952 256.128Z" fill="#D5BFAA"/>
<path d="M589.289 308.476C583.125 313.493 576.202 315.859 567.572 315.859C552.209 315.859 541.777 304.121 541.777 289.354C541.777 274.493 552.209 262.849 567.572 262.849C576.202 262.849 583.125 265.121 589.289 270.138V259.915C584.643 256.886 577.72 254.709 567.667 254.709C546.234 254.709 530.681 269.381 530.681 289.354C530.681 309.233 546.234 324 567.667 324C577.72 324 584.643 321.728 589.289 318.699V308.476Z" fill="#D5BFAA"/>
<path d="M662.42 256.128H651.893V284.905H616.14V256.128H605.708V322.296H616.14V292.478H651.893V322.296H662.42V256.128Z" fill="#D5BFAA"/>
<path d="M730.481 256.034H677.183V263.891H698.616V322.296H709.143V263.891H730.481V256.034Z" fill="#D5BFAA"/>
<path d="M781 304.595C781 294.466 774.741 289.544 763.55 283.107C757.576 279.699 752.265 276.67 752.36 271.085V270.896C752.36 265.879 756.343 262.944 762.981 262.944C767.438 262.944 772.844 263.796 778.06 268.434V258.684C773.413 255.561 768.007 254.709 762.981 254.709C750.842 254.709 742.402 261.619 742.402 272.315C742.402 281.403 748.282 286.609 756.817 291.342C765.921 296.454 771.137 299.483 771.042 306.015V306.393C770.947 311.316 767.154 315.291 759.757 315.291C753.213 315.291 747.807 313.019 742.497 308.097V318.51C746.954 321.539 752.454 323.432 760.041 323.432C765.352 323.432 770.189 322.107 773.887 319.362C778.439 315.859 780.81 311.316 781 305.447C781 305.163 781 304.879 781 304.595Z" fill="#D5BFAA"/>
</svg>
