<svg width="1429" height="154" viewBox="0 0 1429 154" fill="none" xmlns="http://www.w3.org/2000/svg">
<path d="M0.200195 4.04002V150H68.4652C116.435 150 140.625 125.81 140.625 77.02C140.625 28.435 116.64 4.04002 69.0802 4.04002H0.200195ZM46.5302 111.46V42.58H66.2102C75.6402 42.58 82.4052 45.245 86.5052 50.37C90.6052 55.7 92.6552 64.515 92.6552 77.02C92.6552 89.73 90.6052 98.545 86.5052 103.67C82.4052 109 75.6402 111.46 66.2102 111.46H46.5302Z" fill="black"/>
<path d="M221.629 153.485C244.589 153.485 263.244 146.515 277.594 132.575C291.739 118.84 298.914 100.39 298.914 77.02C298.914 54.06 291.739 35.405 277.594 21.465C263.039 7.73002 244.384 0.76001 221.629 0.76001C198.669 0.76001 180.014 7.73002 165.869 21.465C151.519 35.405 144.344 54.06 144.344 77.02C144.344 100.39 151.314 118.84 165.664 132.575C179.604 146.515 198.259 153.485 221.629 153.485ZM200.309 104.9C194.979 98.955 192.314 89.73 192.314 77.02C192.314 64.925 194.774 55.7 199.899 49.55C205.024 43.4 212.199 40.12 221.629 40.12C230.854 40.12 238.029 43.4 243.154 49.55C248.279 55.7 250.944 64.925 250.944 77.02C250.944 89.73 248.279 98.955 243.154 104.9C237.824 111.05 230.649 114.125 221.629 114.125C212.609 114.125 205.434 111.05 200.309 104.9Z" fill="black"/>
<path d="M398.747 27.82C398.747 52.83 398.952 71.28 399.362 83.375C393.622 71.485 388.907 62.26 385.217 55.905L355.082 4.04002H306.907V150H352.007V126.22C352.007 104.9 351.597 87.475 351.187 73.74C355.082 81.53 359.592 89.525 364.922 98.135L395.672 150H443.847V4.04002H398.747V27.82Z" fill="black"/>
<path d="M544.432 4.04002H498.102V150H607.162V110.23H544.432V4.04002Z" fill="black"/>
<path d="M682.094 153.485C705.054 153.485 723.709 146.515 738.059 132.575C752.204 118.84 759.379 100.39 759.379 77.02C759.379 54.06 752.204 35.405 738.059 21.465C723.504 7.73002 704.849 0.76001 682.094 0.76001C659.134 0.76001 640.479 7.73002 626.334 21.465C611.984 35.405 604.809 54.06 604.809 77.02C604.809 100.39 611.779 118.84 626.129 132.575C640.069 146.515 658.724 153.485 682.094 153.485ZM660.774 104.9C655.444 98.955 652.779 89.73 652.779 77.02C652.779 64.925 655.239 55.7 660.364 49.55C665.489 43.4 672.664 40.12 682.094 40.12C691.319 40.12 698.494 43.4 703.619 49.55C708.744 55.7 711.409 64.925 711.409 77.02C711.409 89.73 708.744 98.955 703.619 104.9C698.289 111.05 691.114 114.125 682.094 114.125C673.074 114.125 665.899 111.05 660.774 104.9Z" fill="black"/>
<path d="M881.763 138.52C893.243 128.475 898.983 114.33 898.983 96.29V4.04002H852.653V95.06C852.653 107.77 845.683 114.125 832.153 114.125C818.418 114.125 811.653 107.77 811.653 95.06V4.04002H765.323V96.29C765.323 114.535 771.063 128.68 782.748 138.52C794.023 148.565 810.423 153.485 832.153 153.485C853.473 153.485 870.078 148.565 881.763 138.52Z" fill="black"/>
<path d="M955.545 4.04002H909.215V150H1018.28V110.23H955.545V4.04002Z" fill="black"/>
<path d="M1093.21 153.485C1116.17 153.485 1134.82 146.515 1149.17 132.575C1163.32 118.84 1170.49 100.39 1170.49 77.02C1170.49 54.06 1163.32 35.405 1149.17 21.465C1134.62 7.73002 1115.96 0.76001 1093.21 0.76001C1070.25 0.76001 1051.59 7.73002 1037.45 21.465C1023.1 35.405 1015.92 54.06 1015.92 77.02C1015.92 100.39 1022.89 118.84 1037.24 132.575C1051.18 146.515 1069.84 153.485 1093.21 153.485ZM1071.89 104.9C1066.56 98.955 1063.89 89.73 1063.89 77.02C1063.89 64.925 1066.35 55.7 1071.48 49.55C1076.6 43.4 1083.78 40.12 1093.21 40.12C1102.43 40.12 1109.61 43.4 1114.73 49.55C1119.86 55.7 1122.52 64.925 1122.52 77.02C1122.52 89.73 1119.86 98.955 1114.73 104.9C1109.4 111.05 1102.23 114.125 1093.21 114.125C1084.19 114.125 1077.01 111.05 1071.89 104.9Z" fill="black"/>
<path d="M1292.88 138.52C1304.36 128.475 1310.1 114.33 1310.1 96.29V4.04002H1263.77V95.06C1263.77 107.77 1256.8 114.125 1243.27 114.125C1229.53 114.125 1222.77 107.77 1222.77 95.06V4.04002H1176.44V96.29C1176.44 114.535 1182.18 128.68 1193.86 138.52C1205.14 148.565 1221.54 153.485 1243.27 153.485C1264.59 153.485 1281.19 148.565 1292.88 138.52Z" fill="black"/>
<path d="M1334.17 16.135C1323.51 26.795 1318.18 39.505 1318.18 54.265C1318.18 69.23 1323.51 81.735 1334.17 91.985C1344.63 102.44 1357.75 107.565 1373.33 107.565C1388.91 107.565 1401.82 102.44 1412.48 91.985C1423.14 81.735 1428.47 69.23 1428.47 54.265C1428.47 39.505 1423.14 26.795 1412.48 16.135C1401.82 5.88502 1388.7 0.76001 1373.33 0.76001C1357.75 0.76001 1344.83 5.88502 1334.17 16.135ZM1343.81 83.375C1335.61 75.585 1331.71 65.95 1331.71 54.265C1331.71 42.58 1335.61 32.74 1343.6 24.95C1351.39 17.16 1361.44 13.265 1373.33 13.265C1385.01 13.265 1394.85 17.16 1403.05 24.95C1410.84 32.74 1414.94 42.58 1414.94 54.265C1414.94 65.95 1410.84 75.585 1403.05 83.375C1395.06 91.165 1385.22 95.06 1373.33 95.06C1361.64 95.06 1351.8 91.165 1343.81 83.375ZM1396.49 67.385C1396.08 61.44 1394.24 57.34 1390.55 55.29C1395.06 52.83 1397.52 48.73 1397.52 43.4C1397.52 38.48 1395.67 34.585 1392.19 31.715C1388.7 28.845 1383.78 27.41 1377.63 27.41H1351.6V80.3H1367.59V62.67H1374.35C1376.4 62.67 1378.04 63.08 1378.86 63.9C1379.68 64.72 1380.3 66.36 1380.5 68.615L1380.91 74.355C1380.91 76.815 1381.53 78.865 1382.35 80.3H1398.95C1397.72 79.48 1396.9 77.43 1396.9 74.355L1396.49 67.385ZM1367.59 40.325H1375.38C1379.07 40.325 1380.91 42.17 1380.91 45.45C1380.91 48.935 1379.07 50.575 1375.38 50.575H1367.59V40.325Z" fill="black"/>
</svg>
