<svg width="1429" height="154" viewBox="0 0 1429 154" fill="none" xmlns="http://www.w3.org/2000/svg">
<path d="M0 4.04002V150H68.265C116.235 150 140.425 125.81 140.425 77.02C140.425 28.435 116.44 4.04002 68.88 4.04002H0ZM46.33 111.46V42.58H66.01C75.44 42.58 82.205 45.245 86.305 50.37C90.405 55.7 92.455 64.515 92.455 77.02C92.455 89.73 90.405 98.545 86.305 103.67C82.205 109 75.44 111.46 66.01 111.46H46.33Z" fill="#E4E1DC"/>
<path d="M221.429 153.485C244.389 153.485 263.044 146.515 277.394 132.575C291.539 118.84 298.714 100.39 298.714 77.02C298.714 54.06 291.539 35.405 277.394 21.465C262.839 7.73002 244.184 0.76001 221.429 0.76001C198.469 0.76001 179.814 7.73002 165.669 21.465C151.319 35.405 144.144 54.06 144.144 77.02C144.144 100.39 151.114 118.84 165.464 132.575C179.404 146.515 198.059 153.485 221.429 153.485ZM200.109 104.9C194.779 98.955 192.114 89.73 192.114 77.02C192.114 64.925 194.574 55.7 199.699 49.55C204.824 43.4 211.999 40.12 221.429 40.12C230.654 40.12 237.829 43.4 242.954 49.55C248.079 55.7 250.744 64.925 250.744 77.02C250.744 89.73 248.079 98.955 242.954 104.9C237.624 111.05 230.449 114.125 221.429 114.125C212.409 114.125 205.234 111.05 200.109 104.9Z" fill="#E4E1DC"/>
<path d="M398.547 27.82C398.547 52.83 398.752 71.28 399.162 83.375C393.422 71.485 388.707 62.26 385.017 55.905L354.882 4.04002H306.707V150H351.807V126.22C351.807 104.9 351.397 87.475 350.987 73.74C354.882 81.53 359.392 89.525 364.722 98.135L395.472 150H443.647V4.04002H398.547V27.82Z" fill="#E4E1DC"/>
<path d="M544.232 4.04002H497.902V150H606.962V110.23H544.232V4.04002Z" fill="#E4E1DC"/>
<path d="M681.894 153.485C704.854 153.485 723.509 146.515 737.859 132.575C752.004 118.84 759.179 100.39 759.179 77.02C759.179 54.06 752.004 35.405 737.859 21.465C723.304 7.73002 704.649 0.76001 681.894 0.76001C658.934 0.76001 640.279 7.73002 626.134 21.465C611.784 35.405 604.609 54.06 604.609 77.02C604.609 100.39 611.579 118.84 625.929 132.575C639.869 146.515 658.524 153.485 681.894 153.485ZM660.574 104.9C655.244 98.955 652.579 89.73 652.579 77.02C652.579 64.925 655.039 55.7 660.164 49.55C665.289 43.4 672.464 40.12 681.894 40.12C691.119 40.12 698.294 43.4 703.419 49.55C708.544 55.7 711.209 64.925 711.209 77.02C711.209 89.73 708.544 98.955 703.419 104.9C698.089 111.05 690.914 114.125 681.894 114.125C672.874 114.125 665.699 111.05 660.574 104.9Z" fill="#E4E1DC"/>
<path d="M881.562 138.52C893.042 128.475 898.782 114.33 898.782 96.29V4.04002H852.453V95.06C852.453 107.77 845.483 114.125 831.953 114.125C818.218 114.125 811.453 107.77 811.453 95.06V4.04002H765.122V96.29C765.122 114.535 770.862 128.68 782.547 138.52C793.822 148.565 810.223 153.485 831.953 153.485C853.273 153.485 869.877 148.565 881.562 138.52Z" fill="#E4E1DC"/>
<path d="M955.345 4.04002H909.015V150H1018.07V110.23H955.345V4.04002Z" fill="#E4E1DC"/>
<path d="M1093.01 153.485C1115.97 153.485 1134.62 146.515 1148.97 132.575C1163.12 118.84 1170.29 100.39 1170.29 77.02C1170.29 54.06 1163.12 35.405 1148.97 21.465C1134.42 7.73002 1115.76 0.76001 1093.01 0.76001C1070.05 0.76001 1051.39 7.73002 1037.25 21.465C1022.9 35.405 1015.72 54.06 1015.72 77.02C1015.72 100.39 1022.69 118.84 1037.04 132.575C1050.98 146.515 1069.64 153.485 1093.01 153.485ZM1071.69 104.9C1066.36 98.955 1063.69 89.73 1063.69 77.02C1063.69 64.925 1066.15 55.7 1071.28 49.55C1076.4 43.4 1083.58 40.12 1093.01 40.12C1102.23 40.12 1109.41 43.4 1114.53 49.55C1119.66 55.7 1122.32 64.925 1122.32 77.02C1122.32 89.73 1119.66 98.955 1114.53 104.9C1109.2 111.05 1102.03 114.125 1093.01 114.125C1083.99 114.125 1076.81 111.05 1071.69 104.9Z" fill="#E4E1DC"/>
<path d="M1292.68 138.52C1304.16 128.475 1309.9 114.33 1309.9 96.29V4.04002H1263.57V95.06C1263.57 107.77 1256.6 114.125 1243.07 114.125C1229.33 114.125 1222.57 107.77 1222.57 95.06V4.04002H1176.24V96.29C1176.24 114.535 1181.98 128.68 1193.66 138.52C1204.94 148.565 1221.34 153.485 1243.07 153.485C1264.39 153.485 1280.99 148.565 1292.68 138.52Z" fill="#E4E1DC"/>
<path d="M1333.97 16.135C1323.31 26.795 1317.98 39.505 1317.98 54.265C1317.98 69.23 1323.31 81.735 1333.97 91.985C1344.43 102.44 1357.55 107.565 1373.13 107.565C1388.71 107.565 1401.62 102.44 1412.28 91.985C1422.94 81.735 1428.27 69.23 1428.27 54.265C1428.27 39.505 1422.94 26.795 1412.28 16.135C1401.62 5.88502 1388.5 0.76001 1373.13 0.76001C1357.55 0.76001 1344.63 5.88502 1333.97 16.135ZM1343.61 83.375C1335.41 75.585 1331.51 65.95 1331.51 54.265C1331.51 42.58 1335.41 32.74 1343.4 24.95C1351.19 17.16 1361.24 13.265 1373.13 13.265C1384.81 13.265 1394.65 17.16 1402.85 24.95C1410.64 32.74 1414.74 42.58 1414.74 54.265C1414.74 65.95 1410.64 75.585 1402.85 83.375C1394.86 91.165 1385.02 95.06 1373.13 95.06C1361.44 95.06 1351.6 91.165 1343.61 83.375ZM1396.29 67.385C1395.88 61.44 1394.04 57.34 1390.35 55.29C1394.86 52.83 1397.32 48.73 1397.32 43.4C1397.32 38.48 1395.47 34.585 1391.99 31.715C1388.5 28.845 1383.58 27.41 1377.43 27.41H1351.4V80.3H1367.39V62.67H1374.15C1376.2 62.67 1377.84 63.08 1378.66 63.9C1379.48 64.72 1380.1 66.36 1380.3 68.615L1380.71 74.355C1380.71 76.815 1381.33 78.865 1382.15 80.3H1398.75C1397.52 79.48 1396.7 77.43 1396.7 74.355L1396.29 67.385ZM1367.39 40.325H1375.18C1378.87 40.325 1380.71 42.17 1380.71 45.45C1380.71 48.935 1378.87 50.575 1375.18 50.575H1367.39V40.325Z" fill="#E4E1DC"/>
</svg>
