<svg width="1434" height="150" viewBox="0 0 1434 150" fill="none" xmlns="http://www.w3.org/2000/svg">
<path d="M0 3.60003H67.2C113.6 3.60003 137 27.4 137 74.8C137 122.4 113.4 146 66.6 146H0V3.60003ZM45.2 108.4H64.4C73.6 108.4 80.2 106 84.2 100.8C88.2 95.8 90.2 87.2 90.2 74.8C90.2 62.6 88.2 54 84.2 48.8C80.2 43.8 73.6 41.2 64.4 41.2H45.2V108.4Z" fill="#AB9580"/>
<path d="M220.028 149.4C197.228 149.4 179.028 142.6 165.428 129C151.428 115.6 144.628 97.6 144.628 74.8C144.628 52.4 151.628 34.2 165.628 20.6C179.428 7.20003 197.628 0.400024 220.028 0.400024C242.228 0.400024 260.428 7.20003 274.628 20.6C288.428 34.2 295.428 52.4 295.428 74.8C295.428 97.6 288.428 115.6 274.628 129C260.628 142.6 242.428 149.4 220.028 149.4ZM199.228 102C204.228 108 211.228 111 220.028 111C228.828 111 235.828 108 241.028 102C246.028 96.2 248.628 87.2 248.628 74.8C248.628 63 246.028 54 241.028 48C236.028 42 229.028 38.8 220.028 38.8C210.828 38.8 203.828 42 198.828 48C193.828 54 191.428 63 191.428 74.8C191.428 87.2 194.028 96.2 199.228 102Z" fill="#AB9580"/>
<path d="M396.827 26.8V3.60003H440.827V146H393.827L363.827 95.4C358.627 87 354.227 79.2 350.427 71.6C350.827 85 351.227 102 351.227 122.8V146H307.227V3.60003H354.227L383.627 54.2C387.227 60.4 391.827 69.4 397.427 81C397.027 69.2 396.827 51.2 396.827 26.8Z" fill="#AB9580"/>
<path d="M546.958 3.60003V107.2H608.158V146H501.758V3.60003H546.958Z" fill="#AB9580"/>
<path d="M685.263 149.4C662.463 149.4 644.262 142.6 630.662 129C616.662 115.6 609.862 97.6 609.862 74.8C609.862 52.4 616.862 34.2 630.862 20.6C644.662 7.20003 662.863 0.400024 685.263 0.400024C707.463 0.400024 725.662 7.20003 739.862 20.6C753.662 34.2 760.663 52.4 760.663 74.8C760.663 97.6 753.662 115.6 739.862 129C725.862 142.6 707.663 149.4 685.263 149.4ZM664.463 102C669.463 108 676.463 111 685.263 111C694.063 111 701.063 108 706.263 102C711.263 96.2 713.862 87.2 713.862 74.8C713.862 63 711.263 54 706.263 48C701.263 42 694.263 38.8 685.263 38.8C676.063 38.8 669.063 42 664.062 48C659.062 54 656.662 63 656.662 74.8C656.662 87.2 659.263 96.2 664.463 102Z" fill="#AB9580"/>
<path d="M884.061 134.8C872.661 144.6 856.461 149.4 835.661 149.4C814.461 149.4 798.461 144.6 787.461 134.8C776.061 125.2 770.461 111.4 770.461 93.6V3.60003H815.661V92.4C815.661 104.8 822.261 111 835.661 111C848.861 111 855.661 104.8 855.661 92.4V3.60003H900.861V93.6C900.861 111.2 895.261 125 884.061 134.8Z" fill="#AB9580"/>
<path d="M960.044 3.60003V107.2H1021.24V146H914.844V3.60003H960.044Z" fill="#AB9580"/>
<path d="M1098.35 149.4C1075.55 149.4 1057.35 142.6 1043.75 129C1029.75 115.6 1022.95 97.6 1022.95 74.8C1022.95 52.4 1029.95 34.2 1043.95 20.6C1057.75 7.20003 1075.95 0.400024 1098.35 0.400024C1120.55 0.400024 1138.75 7.20003 1152.95 20.6C1166.75 34.2 1173.75 52.4 1173.75 74.8C1173.75 97.6 1166.75 115.6 1152.95 129C1138.95 142.6 1120.75 149.4 1098.35 149.4ZM1077.55 102C1082.55 108 1089.55 111 1098.35 111C1107.15 111 1114.15 108 1119.35 102C1124.35 96.2 1126.95 87.2 1126.95 74.8C1126.95 63 1124.35 54 1119.35 48C1114.35 42 1107.35 38.8 1098.35 38.8C1089.15 38.8 1082.15 42 1077.15 48C1072.15 54 1069.75 63 1069.75 74.8C1069.75 87.2 1072.35 96.2 1077.55 102Z" fill="#AB9580"/>
<path d="M1297.15 134.8C1285.75 144.6 1269.55 149.4 1248.75 149.4C1227.55 149.4 1211.55 144.6 1200.55 134.8C1189.15 125.2 1183.55 111.4 1183.55 93.6V3.60003H1228.75V92.4C1228.75 104.8 1235.35 111 1248.75 111C1261.95 111 1268.75 104.8 1268.75 92.4V3.60003H1313.95V93.6C1313.95 111.2 1308.35 125 1297.15 134.8Z" fill="#AB9580"/>
<path d="M1341.44 15.4C1351.84 5.40003 1364.44 0.400024 1379.64 0.400024C1394.64 0.400024 1407.44 5.40003 1417.84 15.4C1428.24 25.8 1433.44 38.2 1433.44 52.6C1433.44 67.2 1428.24 79.4 1417.84 89.4C1407.44 99.6 1394.84 104.6 1379.64 104.6C1364.44 104.6 1351.64 99.6 1341.44 89.4C1331.04 79.4 1325.84 67.2 1325.84 52.6C1325.84 38.2 1331.04 25.8 1341.44 15.4ZM1350.84 81C1358.64 88.6 1368.24 92.4 1379.64 92.4C1391.24 92.4 1400.84 88.6 1408.64 81C1416.24 73.4 1420.24 64 1420.24 52.6C1420.24 41.2 1416.24 31.6 1408.64 24C1400.64 16.4 1391.04 12.6 1379.64 12.6C1368.04 12.6 1358.24 16.4 1350.64 24C1342.84 31.6 1339.04 41.2 1339.04 52.6C1339.04 64 1342.84 73.4 1350.84 81ZM1402.24 65.4L1402.64 72.2C1402.64 75.2 1403.44 77.2 1404.64 78H1388.44C1387.64 76.6 1387.04 74.6 1387.04 72.2L1386.64 66.6C1386.44 64.4 1385.84 62.8 1385.04 62C1384.24 61.2 1382.64 60.8 1380.64 60.8H1374.04V78H1358.44V26.4H1383.84C1389.84 26.4 1394.64 27.8 1398.04 30.6C1401.44 33.4 1403.24 37.2 1403.24 42C1403.24 47.2 1400.84 51.2 1396.44 53.6C1400.04 55.6 1401.84 59.6 1402.24 65.4ZM1374.04 39V49H1381.64C1385.24 49 1387.04 47.4 1387.04 44C1387.04 40.8 1385.24 39 1381.64 39H1374.04Z" fill="#AB9580"/>
</svg>
