<svg width="1610" height="150" viewBox="0 0 1610 150" fill="none" xmlns="http://www.w3.org/2000/svg">
<path d="M45.2 3.6V107.2H106.4V146H5.66244e-07V3.6H45.2ZM183.505 149.4C160.705 149.4 142.505 142.6 128.905 129C114.905 115.6 108.105 97.6 108.105 74.8C108.105 52.4 115.105 34.2 129.105 20.6C142.905 7.2 161.105 0.399991 183.505 0.399991C205.705 0.399991 223.905 7.2 238.105 20.6C251.905 34.2 258.905 52.4 258.905 74.8C258.905 97.6 251.905 115.6 238.105 129C224.105 142.6 205.905 149.4 183.505 149.4ZM162.705 102C167.705 108 174.705 111 183.505 111C192.305 111 199.305 108 204.505 102C209.505 96.2 212.105 87.2 212.105 74.8C212.105 63 209.505 54 204.505 48C199.505 42 192.505 38.8 183.505 38.8C174.305 38.8 167.305 42 162.305 48C157.305 54 154.905 63 154.905 74.8C154.905 87.2 157.505 96.2 162.705 102ZM382.303 134.8C370.903 144.6 354.703 149.4 333.903 149.4C312.703 149.4 296.703 144.6 285.703 134.8C274.303 125.2 268.703 111.4 268.703 93.6V3.6H313.903V92.4C313.903 104.8 320.503 111 333.903 111C347.103 111 353.903 104.8 353.903 92.4V3.6H399.103V93.6C399.103 111.2 393.503 125 382.303 134.8ZM458.286 146H413.086V3.6H458.286V146ZM582.619 135.8C571.219 145 555.019 149.4 534.219 149.4C513.219 149.4 497.219 145 486.219 135.8C475.019 126.8 469.019 114.6 468.619 99.2H513.219C513.619 105.4 515.619 109.6 519.219 112C522.619 114.4 527.819 115.6 535.019 115.6C547.419 115.6 553.619 112.4 553.619 105.8C553.619 102.6 552.019 100.2 549.219 98.4C546.219 96.8 541.019 95.4 533.419 94.2L516.219 91.8C502.219 89.8 491.219 85.2 483.619 77.6C475.819 70 472.019 59.8 472.019 47C472.019 34.6 475.819 24 483.819 15.4C493.019 5.4 509.219 0.399991 532.619 0.399991C571.819 0.399991 592.619 16.2 595.219 47.4H553.419C552.819 42.8 551.019 39.4 548.219 37.2C545.219 35 540.619 33.8 534.219 33.8C522.619 33.8 517.019 37 517.019 43C517.019 48.2 521.419 51.4 530.419 52.6L547.619 55C565.419 57.6 578.419 62.4 586.819 69.4C595.019 76.6 599.219 86.4 599.219 99C599.219 114.6 593.619 126.8 582.619 135.8ZM699.692 3.6V107.2H760.892V146H654.492V3.6H699.692ZM888.675 3.6V42.4H817.075V56.4H883.275V93.8H817.075V107.2H888.675V146H771.875V3.6H888.675ZM1053.28 69.6C1060.48 72.4 1066.48 76.8 1070.88 83.2C1075.28 89.6 1077.68 96.6 1077.68 104C1077.68 117.4 1073.08 127.8 1064.08 135C1055.08 142.4 1041.68 146 1024.08 146H946.68V3.6H1022.68C1039.88 3.6 1052.48 7.2 1060.28 14C1067.88 21 1071.88 29.6 1071.88 39.8C1071.88 54 1065.68 64 1053.28 69.6ZM1014.08 38.4H991.88V58.4H1014.08C1021.48 58.4 1025.28 55.2 1025.28 48.4C1025.28 41.8 1021.48 38.4 1014.08 38.4ZM991.88 111.2H1019.68C1027.08 111.2 1030.88 108 1030.88 101.2C1030.88 94.6 1027.08 91.2 1019.68 91.2H991.88V111.2ZM1212.08 110.6L1213.68 131.6C1214.28 138.8 1215.48 143.6 1217.08 146H1170.88C1169.28 143 1168.28 138.2 1168.08 131.6L1167.48 117.4C1167.08 110.6 1165.68 106 1163.08 103.4C1160.48 101 1155.88 99.6 1149.28 99.6H1133.68V146H1088.48V3.6H1158.68C1195.08 3.6 1213.48 17.6 1213.48 45.4C1213.48 62.6 1206.28 73.8 1192.08 79.4C1198.48 81.8 1203.08 85.6 1206.28 90.4C1209.48 95.4 1211.28 102.2 1212.08 110.6ZM1133.68 66.8H1151.68C1162.08 66.8 1167.28 62.2 1167.28 52.6C1167.28 43.2 1162.08 38.4 1151.68 38.4H1133.68V66.8ZM1371.16 146H1324.36L1318.76 127.4H1267.56L1261.96 146H1216.76L1264.96 3.6H1320.16L1371.16 146ZM1286.96 61.6L1277.16 94.4H1308.76L1298.96 61.6C1296.56 53.2 1294.56 46 1292.96 40.4L1286.96 61.6ZM1480.67 135.8C1469.27 145 1453.07 149.4 1432.27 149.4C1411.27 149.4 1395.27 145 1384.27 135.8C1373.07 126.8 1367.07 114.6 1366.67 99.2H1411.27C1411.67 105.4 1413.67 109.6 1417.27 112C1420.67 114.4 1425.87 115.6 1433.07 115.6C1445.47 115.6 1451.67 112.4 1451.67 105.8C1451.67 102.6 1450.07 100.2 1447.27 98.4C1444.27 96.8 1439.07 95.4 1431.47 94.2L1414.27 91.8C1400.27 89.8 1389.27 85.2 1381.67 77.6C1373.87 70 1370.07 59.8 1370.07 47C1370.07 34.6 1373.87 24 1381.87 15.4C1391.07 5.4 1407.27 0.399991 1430.67 0.399991C1469.87 0.399991 1490.67 16.2 1493.27 47.4H1451.47C1450.87 42.8 1449.07 39.4 1446.27 37.2C1443.27 35 1438.67 33.8 1432.27 33.8C1420.67 33.8 1415.07 37 1415.07 43C1415.07 48.2 1419.47 51.4 1428.47 52.6L1445.67 55C1463.47 57.6 1476.47 62.4 1484.87 69.4C1493.07 76.6 1497.27 86.4 1497.27 99C1497.27 114.6 1491.67 126.8 1480.67 135.8ZM1499.11 3.6H1544.11V17.8H1529.51V55.2H1513.91V17.8H1499.11V3.6ZM1581.91 23.2L1586.91 3.6H1609.71V55.2H1594.91V40.2C1594.91 31.6 1594.91 26 1595.11 23.4L1593.91 28.2L1586.51 55.2H1573.91L1566.51 28.2L1566.11 26.6C1565.91 26.2 1565.71 25.6 1565.71 25.2C1565.51 24.8 1565.51 24.4 1565.51 24.2C1565.51 26.6 1565.71 31.8 1565.71 40.2V55.2H1550.71V3.6H1573.51L1578.51 23.2L1580.31 30.2C1580.31 28.6 1580.91 26.2 1581.91 23.2Z" fill="#E4E1DC"/>
</svg>
