<svg width="80" height="75" viewBox="0 0 80 75" fill="none" xmlns="http://www.w3.org/2000/svg">
<path fill-rule="evenodd" clip-rule="evenodd" d="M16.4925 13.2476C26.8406 -4.41586 52.7108 -4.41587 63.0589 13.2476L75.9094 35.1825C86.2575 52.8459 73.3224 74.9253 52.6262 74.9253H26.9252C6.22908 74.9253 -6.70605 52.8459 3.64202 35.1825L16.4925 13.2476ZM71.7794 41.4242C71.7794 58.8429 57.4509 72.9636 39.7758 72.9636C22.1007 72.9636 7.77218 58.8429 7.77218 41.4242C7.77218 24.0054 22.1007 9.88473 39.7758 9.88473C57.4509 9.88473 71.7794 24.0054 71.7794 41.4242Z" fill="#AB9580"/>
<path d="M71.1589 8.13175V7.43903H74.6187V8.13175H73.2862V11.5152H72.4914V8.13175H71.1589Z" fill="#AB9580"/>
<path d="M77.6937 9.37979C77.571 9.72329 77.4483 10.1011 77.3256 10.5248L77.2292 10.2243L77.2273 10.2184C77.0923 9.79727 77.0073 9.53213 76.9691 9.41987L76.2502 7.43903H75.1048V11.5152H75.8645V10.2729C75.8645 9.51719 75.8528 8.84737 75.8411 8.26342C75.8996 8.45807 75.9989 8.76722 76.1509 9.19087L76.9983 11.5152H77.647L78.4886 9.19087C78.6113 8.85309 78.7165 8.53822 78.8042 8.25197C78.7866 8.83592 78.7808 9.51146 78.7808 10.2729V11.5152H79.5347V7.43903H78.3892L77.6937 9.37979Z" fill="#AB9580"/>
</svg>
